STARTFONT 2.1
FONT -FontForge-PT Sans Narrow-Bold-R-Normal-Sans-32-310-75-75--143--
SIZE 31 75 75
FONTBOUNDINGBOX 46 41 -13 -8
COMMENT "Generated by fontforge, http://fontforge.sourceforge.net"
COMMENT "Copyright (c) 2009 ParaType Ltd. All rights reserved."
STARTPROPERTIES 40
FOUNDRY "FontForge"
FAMILY_NAME "PT Sans Narrow"
WEIGHT_NAME "Bold"
SLANT "R"
SETWIDTH_NAME "Normal"
ADD_STYLE_NAME "Sans"
PIXEL_SIZE 32
POINT_SIZE 310
RESOLUTION_X 75
RESOLUTION_Y 75
SPACING ""
AVERAGE_WIDTH 0
CHARSET_REGISTRY ""
CHARSET_ENCODING ""
FONTNAME_REGISTRY ""
CHARSET_COLLECTIONS "ISO8859-2 ISO8859-5 ISO8859-9 ISO8859-4 ISO10646-1"
FONT_NAME "PTSans-NarrowBold"
FACE_NAME "PT Sans Narrow Bold"
COPYRIGHT "Copyright (c) 2009 ParaType Ltd. All rights reserved."
FONT_VERSION "2.003W OFL"
FONT_ASCENT 26
FONT_DESCENT 6
UNDERLINE_POSITION -3
UNDERLINE_THICKNESS 2
X_HEIGHT 15
CAP_HEIGHT 22
RAW_ASCENT 800
RAW_DESCENT 200
NORM_SPACE 7
RELATIVE_WEIGHT 70
RELATIVE_SETWIDTH 30
SUPERSCRIPT_X 0
SUPERSCRIPT_Y 11
SUPERSCRIPT_SIZE 19
SUBSCRIPT_X 0
SUBSCRIPT_Y 2
SUBSCRIPT_SIZE 19
FIGURE_WIDTH 15
AVG_LOWERCASE_WIDTH 133
AVG_UPPERCASE_WIDTH 165
ENDPROPERTIES
CHARS 723
STARTCHAR space
ENCODING 32
SWIDTH 205 0
DWIDTH 7 0
BBX 1 1 0 0
BITMAP
00
ENDCHAR
STARTCHAR exclam
ENCODING 33
SWIDTH 251 0
DWIDTH 8 0
BBX 5 23 2 0
BITMAP
F0
F0
F0
F0
F0
F0
F0
F0
F0
F0
F0
F0
F0
F0
60
60
00
00
70
F8
F8
F8
70
ENDCHAR
STARTCHAR quotedbl
ENCODING 34
SWIDTH 351 0
DWIDTH 11 0
BBX 8 7 2 16
BITMAP
E7
E7
E7
E7
C6
C6
C6
ENDCHAR
STARTCHAR numbersign
ENCODING 35
SWIDTH 478 0
DWIDTH 15 0
BBX 14 19 1 2
BITMAP
0738
0738
0778
0F70
0E70
3FFC
3FFC
3FF8
1EE0
1CE0
1CE0
7FF8
FFF8
FFF0
39C0
39C0
39C0
3BC0
7380
ENDCHAR
STARTCHAR dollar
ENCODING 36
SWIDTH 478 0
DWIDTH 15 0
BBX 12 29 2 -3
BITMAP
0E00
0E00
0E00
1FC0
7FE0
7FC0
F640
F600
F600
F600
F600
FE00
7E00
3F00
1FC0
0FE0
0FE0
0DF0
0CF0
0CF0
0CF0
0CF0
4DE0
7FE0
FFC0
7F00
0E00
0E00
0E00
ENDCHAR
STARTCHAR percent
ENCODING 37
SWIDTH 720 0
DWIDTH 23 0
BBX 21 23 2 0
BITMAP
3E0040
7F00E0
FF81E0
E381C0
E38380
E1C780
E38700
E38E00
FF9E00
7F3C00
3E3800
007000
00F7C0
00EFE0
01DFF0
03DC70
039C38
071C38
0E1C38
1E1C70
1C1FF0
380FF0
0807C0
ENDCHAR
STARTCHAR ampersand
ENCODING 38
SWIDTH 671 0
DWIDTH 21 0
BBX 17 23 2 0
BITMAP
07C000
0FE000
1FF000
1E7000
1E7000
1E7000
1EE000
0EE000
0FC000
0F8000
1F8000
3FC200
79C380
79E780
F0F700
F0FF00
F07E00
F03C00
F03E00
787F00
7FFF80
3FE700
0F8300
ENDCHAR
STARTCHAR quotesingle
ENCODING 39
SWIDTH 217 0
DWIDTH 7 0
BBX 3 7 2 16
BITMAP
E0
E0
E0
E0
C0
C0
C0
ENDCHAR
STARTCHAR parenleft
ENCODING 40
SWIDTH 278 0
DWIDTH 9 0
BBX 7 30 2 -7
BITMAP
08
1E
1C
3C
3C
38
78
78
78
F0
F0
F0
F0
F0
F0
F0
F0
F0
F0
F0
F0
78
78
78
78
3C
3C
1C
1E
08
ENDCHAR
STARTCHAR parenright
ENCODING 41
SWIDTH 278 0
DWIDTH 9 0
BBX 7 30 0 -7
BITMAP
20
F0
70
78
78
38
3C
3C
3C
1E
1E
1E
1E
1E
1E
1E
1E
1E
1E
1E
1C
3C
3C
3C
38
78
78
F0
F0
20
ENDCHAR
STARTCHAR asterisk
ENCODING 42
SWIDTH 323 0
DWIDTH 10 0
BBX 8 9 1 14
BITMAP
24
66
3C
3C
FF
FF
3C
7E
24
ENDCHAR
STARTCHAR plus
ENCODING 43
SWIDTH 444 0
DWIDTH 14 0
BBX 12 13 1 4
BITMAP
0F00
0F00
0F00
0F00
0F00
FFF0
FFF0
FFF0
0F00
0F00
0F00
0F00
0F00
ENDCHAR
STARTCHAR comma
ENCODING 44
SWIDTH 216 0
DWIDTH 7 0
BBX 5 9 1 -4
BITMAP
70
F8
F8
F8
78
38
70
E0
40
ENDCHAR
STARTCHAR hyphen
ENCODING 45
SWIDTH 298 0
DWIDTH 10 0
BBX 7 3 1 7
BITMAP
FE
FE
FE
ENDCHAR
STARTCHAR period
ENCODING 46
SWIDTH 212 0
DWIDTH 7 0
BBX 5 5 1 0
BITMAP
70
F8
F8
F8
70
ENDCHAR
STARTCHAR slash
ENCODING 47
SWIDTH 349 0
DWIDTH 11 0
BBX 11 27 0 -4
BITMAP
0040
00E0
00E0
00E0
01C0
01C0
0180
0380
0380
0700
0700
0700
0E00
0E00
0E00
1C00
1C00
1C00
3800
3800
3800
7000
7000
E000
E000
E000
4000
ENDCHAR
STARTCHAR zero
ENCODING 48
SWIDTH 478 0
DWIDTH 15 0
BBX 13 23 1 0
BITMAP
0F80
1FE0
3FE0
78F0
78F0
7070
F078
F078
F078
F078
F078
F078
F078
F078
F078
F078
F078
70F0
78F0
78F0
3FE0
3FC0
0F80
ENDCHAR
STARTCHAR one
ENCODING 49
SWIDTH 478 0
DWIDTH 15 0
BBX 13 23 1 0
BITMAP
0380
0780
0F80
1F80
7F80
FF80
7780
4780
0780
0780
0780
0780
0780
0780
0780
0780
0780
0780
0780
0780
7FF8
7FF8
7FF8
ENDCHAR
STARTCHAR two
ENCODING 50
SWIDTH 478 0
DWIDTH 15 0
BBX 11 23 2 0
BITMAP
3F00
FF80
7FC0
43E0
01E0
01E0
01E0
01E0
01E0
03E0
03C0
03C0
0780
0780
0F80
0F00
1E00
1E00
3C00
7800
FFE0
FFE0
FFE0
ENDCHAR
STARTCHAR three
ENCODING 51
SWIDTH 478 0
DWIDTH 15 0
BBX 11 23 2 0
BITMAP
FFC0
FFC0
FFC0
0380
0780
0F00
0F00
1E00
1C00
3F00
3FC0
3FC0
03E0
03E0
01E0
01E0
01E0
01E0
03E0
43C0
FFC0
FF80
7E00
ENDCHAR
STARTCHAR four
ENCODING 52
SWIDTH 478 0
DWIDTH 15 0
BBX 14 23 1 0
BITMAP
01E0
03E0
03E0
07E0
07E0
0FE0
0FE0
1DE0
1DE0
39E0
39E0
71E0
71E0
FFFC
FFFC
FFFC
01E0
01E0
01E0
01E0
01E0
01E0
01E0
ENDCHAR
STARTCHAR five
ENCODING 53
SWIDTH 478 0
DWIDTH 15 0
BBX 11 23 2 0
BITMAP
7FC0
7FC0
7FC0
7000
7000
7000
7000
7000
7E00
7F80
7FC0
07C0
03E0
01E0
01E0
01E0
01E0
01E0
03E0
47C0
FFC0
FF80
7E00
ENDCHAR
STARTCHAR six
ENCODING 54
SWIDTH 478 0
DWIDTH 15 0
BBX 13 23 1 0
BITMAP
00C0
03E0
07E0
0F80
1F00
3E00
3C00
7800
7800
77C0
FFE0
FFF0
F8F0
F078
F078
F078
F078
F078
7878
78F0
7FF0
3FE0
0F80
ENDCHAR
STARTCHAR seven
ENCODING 55
SWIDTH 478 0
DWIDTH 15 0
BBX 12 23 2 0
BITMAP
FFF0
FFF0
FFE0
00E0
01E0
01C0
03C0
03C0
0380
0780
0780
0700
0F00
0F00
0F00
1E00
1E00
1E00
3C00
3C00
3C00
7800
7800
ENDCHAR
STARTCHAR eight
ENCODING 56
SWIDTH 478 0
DWIDTH 15 0
BBX 12 23 2 0
BITMAP
0F00
3FC0
3FC0
7DE0
78E0
78E0
78E0
78E0
7DC0
3DC0
3F80
1FC0
3FE0
73E0
F1F0
E0F0
E0F0
E0F0
E0F0
F1F0
7FE0
3FC0
1F80
ENDCHAR
STARTCHAR nine
ENCODING 57
SWIDTH 478 0
DWIDTH 15 0
BBX 13 23 1 0
BITMAP
0F80
3FE0
7FF0
78F0
F0F0
F078
F078
F078
F078
F078
78F8
7FF8
3FF8
1FF0
00F0
00F0
01E0
03E0
07C0
0FC0
3F80
3E00
1800
ENDCHAR
STARTCHAR colon
ENCODING 58
SWIDTH 251 0
DWIDTH 8 0
BBX 5 16 2 0
BITMAP
70
F8
F8
F8
70
00
00
00
00
00
00
70
F8
F8
F8
70
ENDCHAR
STARTCHAR semicolon
ENCODING 59
SWIDTH 251 0
DWIDTH 8 0
BBX 5 20 2 -4
BITMAP
70
F8
F8
F8
70
00
00
00
00
00
00
70
F8
F8
F8
78
38
70
E0
40
ENDCHAR
STARTCHAR less
ENCODING 60
SWIDTH 444 0
DWIDTH 14 0
BBX 12 16 1 2
BITMAP
0040
00E0
03F0
07E0
0F80
3F00
7E00
F800
F800
FC00
3F00
1F80
07E0
03F0
00E0
0040
ENDCHAR
STARTCHAR equal
ENCODING 61
SWIDTH 444 0
DWIDTH 14 0
BBX 12 9 1 6
BITMAP
FFF0
FFF0
FFF0
0000
0000
0000
FFF0
FFF0
FFF0
ENDCHAR
STARTCHAR greater
ENCODING 62
SWIDTH 444 0
DWIDTH 14 0
BBX 12 16 1 2
BITMAP
6000
7000
FC00
7E00
1F80
0FC0
07F0
01F0
01F0
07E0
0FC0
1F00
7E00
FC00
7000
2000
ENDCHAR
STARTCHAR question
ENCODING 63
SWIDTH 382 0
DWIDTH 12 0
BBX 11 23 1 0
BITMAP
3F00
FFC0
7FC0
43E0
01E0
01E0
01E0
03E0
03C0
07C0
0F80
0F00
1E00
1E00
1C00
1C00
0000
0000
1C00
3E00
3E00
3E00
1C00
ENDCHAR
STARTCHAR at
ENCODING 64
SWIDTH 881 0
DWIDTH 28 0
BBX 25 27 2 -5
BITMAP
003F8000
01FFF000
07FFF800
0FC07C00
1F001E00
1E000F00
3C3CC700
787FC700
70FFC380
70F3C380
E1E38380
E1E38380
E3C38380
E3C38380
E3C38380
E3C78700
E3C78700
E3CF8E00
F3FBFC00
71F3F800
78E1E000
3C000000
3E000000
1F810000
0FFF8000
03FF8000
00FE0000
ENDCHAR
STARTCHAR A
ENCODING 65
SWIDTH 501 0
DWIDTH 16 0
BBX 16 23 0 0
BITMAP
03C0
03C0
03C0
07E0
07E0
07E0
07E0
0FF0
0E70
0E70
1E78
1E78
1C38
1C38
3FFC
3FFC
3FFC
381C
781E
701E
700E
F00F
F00F
ENDCHAR
STARTCHAR B
ENCODING 66
SWIDTH 490 0
DWIDTH 16 0
BBX 13 23 2 0
BITMAP
FF80
FFE0
FFE0
F1F0
F0F0
F0F0
F0F0
F0F0
F1F0
F1E0
FFC0
FFC0
FFF0
F0F0
F078
F078
F078
F078
F078
F0F0
FFF0
FFE0
FF80
ENDCHAR
STARTCHAR C
ENCODING 67
SWIDTH 457 0
DWIDTH 15 0
BBX 13 23 1 0
BITMAP
07F0
0FF8
3FF8
3E10
7C00
7800
7800
F000
F000
F000
F000
F000
F000
F000
F000
F000
7800
7800
7C00
3E10
3FF8
1FF8
07F0
ENDCHAR
STARTCHAR D
ENCODING 68
SWIDTH 535 0
DWIDTH 17 0
BBX 14 23 2 0
BITMAP
FF80
FFE0
FFF0
F0F0
F078
F078
F03C
F03C
F03C
F03C
F03C
F03C
F03C
F03C
F03C
F03C
F078
F078
F0F8
F1F0
FFE0
FFC0
FF00
ENDCHAR
STARTCHAR E
ENCODING 69
SWIDTH 430 0
DWIDTH 14 0
BBX 11 23 2 0
BITMAP
FFE0
FFE0
FFE0
F000
F000
F000
F000
F000
F000
F000
FFC0
FFC0
FFC0
F000
F000
F000
F000
F000
F000
F000
FFE0
FFE0
FFE0
ENDCHAR
STARTCHAR F
ENCODING 70
SWIDTH 419 0
DWIDTH 14 0
BBX 11 23 2 0
BITMAP
FFE0
FFE0
FFE0
F000
F000
F000
F000
F000
F000
F000
FFC0
FFC0
FFC0
F000
F000
F000
F000
F000
F000
F000
F000
F000
F000
ENDCHAR
STARTCHAR G
ENCODING 71
SWIDTH 502 0
DWIDTH 17 0
BBX 14 23 1 0
BITMAP
03F0
0FF8
1FF8
3E10
7C00
7800
7800
F000
F000
F000
F000
F1FC
F1FC
F1FC
F01C
F01C
781C
781C
7C1C
3E3C
3FFC
1FF8
07E0
ENDCHAR
STARTCHAR H
ENCODING 72
SWIDTH 533 0
DWIDTH 18 0
BBX 14 23 2 0
BITMAP
F03C
F03C
F03C
F03C
F03C
F03C
F03C
F03C
F03C
F03C
FFFC
FFFC
FFFC
F03C
F03C
F03C
F03C
F03C
F03C
F03C
F03C
F03C
F03C
ENDCHAR
STARTCHAR I
ENCODING 73
SWIDTH 238 0
DWIDTH 8 0
BBX 4 23 2 0
BITMAP
F0
F0
F0
F0
F0
F0
F0
F0
F0
F0
F0
F0
F0
F0
F0
F0
F0
F0
F0
F0
F0
F0
F0
ENDCHAR
STARTCHAR J
ENCODING 74
SWIDTH 289 0
DWIDTH 10 0
BBX 8 23 0 0
BITMAP
0F
0F
0F
0F
0F
0F
0F
0F
0F
0F
0F
0F
0F
0F
0F
0F
0F
0F
0F
1F
7E
FE
FC
ENDCHAR
STARTCHAR K
ENCODING 75
SWIDTH 519 0
DWIDTH 17 0
BBX 15 23 2 0
BITMAP
F07C
F078
F0F0
F0F0
F1E0
F1E0
F3C0
F3C0
F780
F780
FF00
FF00
FF80
F7C0
F3C0
F3E0
F1E0
F1F0
F0F0
F0F8
F078
F07C
F03E
ENDCHAR
STARTCHAR L
ENCODING 76
SWIDTH 424 0
DWIDTH 13 0
BBX 11 23 2 0
BITMAP
F000
F000
F000
F000
F000
F000
F000
F000
F000
F000
F000
F000
F000
F000
F000
F000
F000
F000
F000
F000
FFE0
FFE0
FFE0
ENDCHAR
STARTCHAR M
ENCODING 77
SWIDTH 664 0
DWIDTH 21 0
BBX 18 23 2 0
BITMAP
F003C0
F003C0
F803C0
F807C0
F807C0
FC0FC0
FC0FC0
FE1FC0
FE1FC0
FF1BC0
F73BC0
F73BC0
F3B3C0
F3F3C0
F3E3C0
F1E3C0
F1E3C0
F0C3C0
F0C3C0
F003C0
F003C0
F003C0
F003C0
ENDCHAR
STARTCHAR N
ENCODING 78
SWIDTH 540 0
DWIDTH 18 0
BBX 14 23 2 0
BITMAP
F03C
F03C
F03C
F83C
F83C
FC3C
FC3C
FE3C
FE3C
FF3C
F73C
F7BC
F3BC
F3BC
F1FC
F1FC
F0FC
F0FC
F07C
F07C
F07C
F03C
F03C
ENDCHAR
STARTCHAR O
ENCODING 79
SWIDTH 553 0
DWIDTH 18 0
BBX 16 23 1 0
BITMAP
07E0
1FF8
3FFC
3C3C
781E
781E
F81E
F00F
F00F
F00F
F00F
F00F
F00F
F00F
F00F
F00F
F81E
781E
781E
3C3C
3FFC
1FF8
07E0
ENDCHAR
STARTCHAR P
ENCODING 80
SWIDTH 477 0
DWIDTH 16 0
BBX 13 23 2 0
BITMAP
FF80
FFE0
FFF0
F1F0
F0F8
F078
F078
F078
F078
F078
F0F8
F1F0
FFF0
FFE0
FF80
F000
F000
F000
F000
F000
F000
F000
F000
ENDCHAR
STARTCHAR Q
ENCODING 81
SWIDTH 553 0
DWIDTH 18 0
BBX 18 29 1 -6
BITMAP
07E000
1FF800
3FFC00
3C3C00
781E00
781E00
F81E00
F00F00
F00F00
F00F00
F00F00
F00F00
F00F00
F00F00
F00F00
F00F00
F81E00
781E00
781E00
3C3C00
3FFC00
1FF800
07E000
000000
0F8000
0FF000
0FFFC0
00FFC0
000FC0
ENDCHAR
STARTCHAR R
ENCODING 82
SWIDTH 503 0
DWIDTH 16 0
BBX 14 23 2 0
BITMAP
FF80
FFE0
FFF0
F0F0
F078
F078
F078
F078
F078
F0F8
F1F0
FFE0
FFC0
FF80
F3C0
F1E0
F1E0
F0F0
F0F0
F078
F078
F07C
F03C
ENDCHAR
STARTCHAR S
ENCODING 83
SWIDTH 439 0
DWIDTH 14 0
BBX 12 23 1 0
BITMAP
1FE0
3FF0
7FE0
F820
F000
F000
F000
F800
7C00
7E00
3F80
1FC0
07E0
03E0
01F0
00F0
00F0
00F0
00F0
41E0
7FE0
FFC0
3F00
ENDCHAR
STARTCHAR T
ENCODING 84
SWIDTH 474 0
DWIDTH 16 0
BBX 14 23 1 0
BITMAP
FFFC
FFFC
FFFC
0780
0780
0780
0780
0780
0780
0780
0780
0780
0780
0780
0780
0780
0780
0780
0780
0780
0780
0780
0780
ENDCHAR
STARTCHAR U
ENCODING 85
SWIDTH 515 0
DWIDTH 17 0
BBX 13 23 2 0
BITMAP
F078
F078
F078
F078
F078
F078
F078
F078
F078
F078
F078
F078
F078
F078
F078
F078
F078
F078
F078
78F0
7FF0
3FE0
0F80
ENDCHAR
STARTCHAR V
ENCODING 86
SWIDTH 503 0
DWIDTH 16 0
BBX 16 23 0 0
BITMAP
F00F
F00F
F80F
780E
781E
781E
3C1C
3C1C
3C3C
3C3C
1E38
1E38
1E78
0F70
0F70
0F70
0770
07E0
07E0
07E0
03C0
03C0
03C0
ENDCHAR
STARTCHAR W
ENCODING 87
SWIDTH 717 0
DWIDTH 23 0
BBX 23 23 0 0
BITMAP
F0381E
F03C1E
783C1C
783C1C
787C3C
787C3C
786E3C
3C6E38
3CEE38
3CEE38
3CEF78
3CEF78
1DC770
1FC770
1FC770
1FC770
0F8360
0F83E0
0F83E0
0F81E0
0F01E0
0701C0
0701C0
ENDCHAR
STARTCHAR X
ENCODING 88
SWIDTH 528 0
DWIDTH 17 0
BBX 15 23 1 0
BITMAP
F81E
783C
783C
3C38
3C78
3E78
1E70
1EF0
0FE0
0FE0
07C0
07C0
0FE0
0EE0
0EF0
1EF0
1CF8
3C78
3C78
783C
783C
F03E
F01E
ENDCHAR
STARTCHAR Y
ENCODING 89
SWIDTH 495 0
DWIDTH 16 0
BBX 16 23 0 0
BITMAP
F80F
781E
781E
7C1E
3C3C
3C3C
1E38
1E78
0E70
0F70
0F70
07E0
07E0
03C0
03C0
03C0
03C0
03C0
03C0
03C0
03C0
03C0
03C0
ENDCHAR
STARTCHAR Z
ENCODING 90
SWIDTH 445 0
DWIDTH 15 0
BBX 13 23 1 0
BITMAP
FFF8
FFF8
FFF8
0078
00F0
00F0
01E0
01E0
03C0
07C0
0780
0F80
0F00
1F00
1E00
3C00
3C00
7800
7800
F000
FFF8
FFF8
FFF8
ENDCHAR
STARTCHAR bracketleft
ENCODING 91
SWIDTH 276 0
DWIDTH 9 0
BBX 7 30 2 -7
BITMAP
FE
FE
FE
F0
F0
F0
F0
F0
F0
F0
F0
F0
F0
F0
F0
F0
F0
F0
F0
F0
F0
F0
F0
F0
F0
F0
F0
FE
FE
FE
ENDCHAR
STARTCHAR backslash
ENCODING 92
SWIDTH 362 0
DWIDTH 12 0
BBX 12 27 0 -4
BITMAP
6000
E000
E000
7000
7000
7800
3800
3800
3C00
1C00
1C00
0E00
0E00
0F00
0700
0700
0380
0380
03C0
01C0
01C0
00E0
00E0
00E0
0070
0070
0060
ENDCHAR
STARTCHAR bracketright
ENCODING 93
SWIDTH 276 0
DWIDTH 9 0
BBX 7 30 0 -7
BITMAP
FE
FE
FE
1E
1E
1E
1E
1E
1E
1E
1E
1E
1E
1E
1E
1E
1E
1E
1E
1E
1E
1E
1E
1E
1E
1E
1E
FE
FE
FE
ENDCHAR
STARTCHAR asciicircum
ENCODING 94
SWIDTH 428 0
DWIDTH 14 0
BBX 12 9 1 14
BITMAP
0600
0F00
0F80
1F80
1FC0
39C0
79E0
70E0
F0F0
ENDCHAR
STARTCHAR underscore
ENCODING 95
SWIDTH 374 0
DWIDTH 12 0
BBX 12 3 0 -7
BITMAP
FFF0
FFF0
FFF0
ENDCHAR
STARTCHAR grave
ENCODING 96
SWIDTH 290 0
DWIDTH 9 0
BBX 5 5 2 18
BITMAP
F0
F0
70
38
18
ENDCHAR
STARTCHAR a
ENCODING 97
SWIDTH 413 0
DWIDTH 13 0
BBX 11 16 1 0
BITMAP
1F80
7FC0
7FE0
21E0
01E0
01E0
01E0
1FE0
7FE0
FFE0
F9E0
F1E0
F1E0
FFE0
7EE0
3CE0
ENDCHAR
STARTCHAR b
ENCODING 98
SWIDTH 443 0
DWIDTH 14 0
BBX 12 23 1 0
BITMAP
F000
F000
F000
F000
F000
F000
F000
F780
FFE0
FFE0
F9F0
F0F0
F0F0
F0F0
F0F0
F0F0
F0F0
F0F0
F0F0
F1E0
FFE0
FFC0
7F00
ENDCHAR
STARTCHAR c
ENCODING 99
SWIDTH 350 0
DWIDTH 11 0
BBX 9 16 1 0
BITMAP
1F00
3F80
7F80
7900
F000
F000
F000
F000
F000
F000
F000
F800
7900
7F80
3F80
1F00
ENDCHAR
STARTCHAR d
ENCODING 100
SWIDTH 445 0
DWIDTH 14 0
BBX 12 23 1 0
BITMAP
00F0
00F0
00F0
00F0
00F0
00F0
00F0
1FF0
3FF0
7FF0
78F0
F0F0
F0F0
F0F0
F0F0
F0F0
F0F0
F0F0
F0F0
79F0
7FF0
3F70
1E70
ENDCHAR
STARTCHAR e
ENCODING 101
SWIDTH 428 0
DWIDTH 13 0
BBX 11 16 1 0
BITMAP
1F00
3FC0
7FC0
79E0
F1E0
F1E0
FFE0
FFE0
FFE0
F000
F000
F000
7840
7FE0
3FE0
1F80
ENDCHAR
STARTCHAR f
ENCODING 102
SWIDTH 267 0
DWIDTH 9 0
BBX 10 23 0 0
BITMAP
0FC0
1FC0
1F80
3E00
3C00
3C00
3C00
FF80
FF80
FF80
3C00
3C00
3C00
3C00
3C00
3C00
3C00
3C00
3C00
3C00
3C00
3C00
3C00
ENDCHAR
STARTCHAR g
ENCODING 103
SWIDTH 443 0
DWIDTH 14 0
BBX 12 22 1 -6
BITMAP
0FE0
3FF0
7FF0
78F0
F0F0
F0F0
F0F0
F0F0
F0F0
F0F0
F0F0
F0F0
F9F0
7FF0
7FF0
1EF0
00F0
00F0
21F0
7FE0
7FC0
3F80
ENDCHAR
STARTCHAR h
ENCODING 104
SWIDTH 449 0
DWIDTH 14 0
BBX 12 23 1 0
BITMAP
F000
F000
F000
F000
F000
F000
F000
F3C0
FFE0
FFF0
F9F0
F0F0
F0F0
F0F0
F0F0
F0F0
F0F0
F0F0
F0F0
F0F0
F0F0
F0F0
F0F0
ENDCHAR
STARTCHAR i
ENCODING 105
SWIDTH 225 0
DWIDTH 8 0
BBX 5 23 1 0
BITMAP
78
F8
F8
78
00
00
00
78
78
78
78
78
78
78
78
78
78
78
78
78
78
78
78
ENDCHAR
STARTCHAR j
ENCODING 106
SWIDTH 225 0
DWIDTH 8 0
BBX 6 29 0 -6
BITMAP
3C
7C
7C
3C
00
00
00
3C
3C
3C
3C
3C
3C
3C
3C
3C
3C
3C
3C
3C
3C
3C
3C
3C
3C
7C
FC
F8
F0
ENDCHAR
STARTCHAR k
ENCODING 107
SWIDTH 412 0
DWIDTH 13 0
BBX 12 23 1 0
BITMAP
F000
F000
F000
F000
F000
F000
F000
F1F0
F1E0
F1C0
F3C0
F380
F780
FE00
FF00
FF80
F780
F780
F3C0
F3C0
F1E0
F1E0
F1F0
ENDCHAR
STARTCHAR l
ENCODING 108
SWIDTH 243 0
DWIDTH 7 0
BBX 6 23 1 0
BITMAP
F0
F0
F0
F0
F0
F0
F0
F0
F0
F0
F0
F0
F0
F0
F0
F0
F0
F0
F0
FC
FC
FC
7C
ENDCHAR
STARTCHAR m
ENCODING 109
SWIDTH 663 0
DWIDTH 22 0
BBX 20 16 1 0
BITMAP
E3C7C0
EFEFE0
FFFFF0
F9F9F0
F0F0F0
F0F0F0
F0F0F0
F0F0F0
F0F0F0
F0F0F0
F0F0F0
F0F0F0
F0F0F0
F0F0F0
F0F0F0
F0F0F0
ENDCHAR
STARTCHAR n
ENCODING 110
SWIDTH 449 0
DWIDTH 14 0
BBX 12 16 1 0
BITMAP
E3C0
FFE0
FFF0
F9F0
F0F0
F0F0
F0F0
F0F0
F0F0
F0F0
F0F0
F0F0
F0F0
F0F0
F0F0
F0F0
ENDCHAR
STARTCHAR o
ENCODING 111
SWIDTH 445 0
DWIDTH 14 0
BBX 12 16 1 0
BITMAP
1F80
3FC0
7FE0
79E0
F0F0
F0F0
F0F0
F0F0
F0F0
F0F0
F0F0
F0F0
79E0
7FE0
3FC0
1F80
ENDCHAR
STARTCHAR p
ENCODING 112
SWIDTH 447 0
DWIDTH 14 0
BBX 12 22 1 -6
BITMAP
E780
EFE0
FFE0
F9F0
F0F0
F0F0
F0F0
F0F0
F0F0
F0F0
F0F0
F1F0
F1E0
FFE0
FFC0
FF80
F000
F000
F000
F000
F000
F000
ENDCHAR
STARTCHAR q
ENCODING 113
SWIDTH 443 0
DWIDTH 14 0
BBX 12 22 1 -6
BITMAP
0FE0
3FF0
7FF0
78F0
F0F0
F0F0
F0F0
F0F0
F0F0
F0F0
F0F0
F0F0
79F0
7FF0
3FF0
1EF0
00F0
00F0
00F0
00F0
00F0
00F0
ENDCHAR
STARTCHAR r
ENCODING 114
SWIDTH 293 0
DWIDTH 9 0
BBX 8 16 1 0
BITMAP
E7
EF
FF
F8
F0
F0
F0
F0
F0
F0
F0
F0
F0
F0
F0
F0
ENDCHAR
STARTCHAR s
ENCODING 115
SWIDTH 350 0
DWIDTH 11 0
BBX 9 16 1 0
BITMAP
3F00
7F80
FF80
F100
F000
F000
FC00
7E00
3F00
1F80
0F80
0780
4780
7F80
FF00
7E00
ENDCHAR
STARTCHAR t
ENCODING 116
SWIDTH 291 0
DWIDTH 9 0
BBX 9 20 0 0
BITMAP
0C00
3C00
3C00
3C00
FF80
FF80
FF80
3C00
3C00
3C00
3C00
3C00
3C00
3C00
3C00
3C00
3C00
3F80
1F80
1F80
ENDCHAR
STARTCHAR u
ENCODING 117
SWIDTH 446 0
DWIDTH 14 0
BBX 12 16 1 0
BITMAP
F0F0
F0F0
F0F0
F0F0
F0F0
F0F0
F0F0
F0F0
F0F0
F0F0
F0F0
F0F0
F1F0
FFF0
7F70
3E70
ENDCHAR
STARTCHAR v
ENCODING 118
SWIDTH 399 0
DWIDTH 13 0
BBX 13 16 0 0
BITMAP
F078
F078
7870
78F0
78F0
3CE0
3CE0
3DE0
1DC0
1FC0
1FC0
0F80
0F80
0F80
0700
0700
ENDCHAR
STARTCHAR w
ENCODING 119
SWIDTH 596 0
DWIDTH 19 0
BBX 19 16 0 0
BITMAP
F0E0E0
F0F1E0
78F1C0
78F1C0
79F1C0
79B9C0
39BB80
3DBB80
3FBB80
3F9F80
1F1F80
1F1F00
1F1F00
1F0F00
0E0F00
0E0E00
ENDCHAR
STARTCHAR x
ENCODING 120
SWIDTH 439 0
DWIDTH 14 0
BBX 14 16 0 0
BITMAP
F87C
7878
3C70
3CF0
1EE0
1FE0
0FC0
0FC0
0FC0
1FE0
1FE0
3CF0
3CF0
7878
7878
F03C
ENDCHAR
STARTCHAR y
ENCODING 121
SWIDTH 400 0
DWIDTH 13 0
BBX 13 22 0 -6
BITMAP
F878
F878
7870
78F0
7CF0
3CF0
3CE0
3CE0
1DE0
1FC0
1FC0
0FC0
0FC0
0F80
0780
0780
0700
0700
0F00
1E00
3E00
3C00
ENDCHAR
STARTCHAR z
ENCODING 122
SWIDTH 381 0
DWIDTH 12 0
BBX 10 16 1 0
BITMAP
FFC0
FFC0
FFC0
03C0
0780
0F80
0F00
1F00
1E00
3C00
7C00
7800
F000
FFC0
FFC0
FFC0
ENDCHAR
STARTCHAR braceleft
ENCODING 123
SWIDTH 313 0
DWIDTH 10 0
BBX 8 30 1 -7
BITMAP
1F
3F
3F
3C
3C
3C
3C
3C
3C
3C
3C
3C
7C
F8
F0
F8
7C
3C
3C
3C
3C
3C
3C
3C
3C
3C
3C
3F
3F
1F
ENDCHAR
STARTCHAR bar
ENCODING 124
SWIDTH 188 0
DWIDTH 6 0
BBX 3 27 1 -4
BITMAP
E0
E0
E0
E0
E0
E0
E0
E0
E0
E0
E0
E0
E0
E0
E0
E0
E0
E0
E0
E0
E0
E0
E0
E0
E0
E0
E0
ENDCHAR
STARTCHAR braceright
ENCODING 125
SWIDTH 313 0
DWIDTH 10 0
BBX 8 30 1 -7
BITMAP
F8
FC
FC
3C
3C
3C
3C
3C
3C
3C
3C
3C
3E
1F
0F
1F
3E
3C
3C
3C
3C
3C
3C
3C
3C
3C
3C
FC
FC
F8
ENDCHAR
STARTCHAR asciitilde
ENCODING 126
SWIDTH 444 0
DWIDTH 14 0
BBX 13 6 1 9
BITMAP
3C00
7F10
FFF0
FFF8
63F8
40E0
ENDCHAR
STARTCHAR uni00A0
ENCODING 160
SWIDTH 205 0
DWIDTH 7 0
BBX 1 1 0 0
BITMAP
00
ENDCHAR
STARTCHAR exclamdown
ENCODING 161
SWIDTH 251 0
DWIDTH 8 0
BBX 5 22 2 -6
BITMAP
70
F8
F8
F8
70
00
00
60
E0
F0
F0
F0
F0
F0
F0
F0
F0
F0
F0
F0
F0
F0
ENDCHAR
STARTCHAR cent
ENCODING 162
SWIDTH 478 0
DWIDTH 15 0
BBX 11 22 2 -3
BITMAP
0F00
0F00
0F00
1FE0
3FE0
7FC0
7B00
FB00
F300
F300
F300
F300
F300
F300
FB00
7B40
7FE0
3FE0
1F80
0F00
0F00
0F00
ENDCHAR
STARTCHAR sterling
ENCODING 163
SWIDTH 478 0
DWIDTH 15 0
BBX 13 23 1 0
BITMAP
0FE0
1FF8
3FF0
7C10
7800
7800
7800
7800
7800
3C00
FFC0
FFC0
FFC0
1E00
1E00
1E00
1E00
1E00
3C00
7800
FFF8
FFF8
FFF8
ENDCHAR
STARTCHAR currency
ENCODING 164
SWIDTH 478 0
DWIDTH 15 0
BBX 17 15 -1 4
BITMAP
200200
700700
FBEF80
3FFE00
0FFC00
1E3C00
1C1C00
1C1C00
1C1C00
1E3C00
0FF800
3FFE00
FBEF80
700700
200200
ENDCHAR
STARTCHAR yen
ENCODING 165
SWIDTH 478 0
DWIDTH 15 0
BBX 16 23 0 0
BITMAP
F80F
781E
7C1E
3C1C
3C3C
1E38
1E78
1E78
0F70
0F70
07E0
3FFC
3FFC
3FFC
03C0
03C0
3FFC
3FFC
3FFC
03C0
03C0
03C0
03C0
ENDCHAR
STARTCHAR brokenbar
ENCODING 166
SWIDTH 188 0
DWIDTH 6 0
BBX 3 27 1 -4
BITMAP
E0
E0
E0
E0
E0
E0
E0
E0
E0
E0
E0
00
00
00
00
00
E0
E0
E0
E0
E0
E0
E0
E0
E0
E0
E0
ENDCHAR
STARTCHAR section
ENCODING 167
SWIDTH 444 0
DWIDTH 14 0
BBX 12 23 1 0
BITMAP
1FC0
3FE0
7FE0
7840
7800
7C00
3F80
1FC0
7FE0
FBF0
F0F0
F0F0
F0F0
FDF0
7FE0
3F80
0FC0
03E0
01E0
21E0
7FE0
7FC0
1F80
ENDCHAR
STARTCHAR dieresis
ENCODING 168
SWIDTH 432 0
DWIDTH 14 0
BBX 10 4 2 19
BITMAP
6180
F3C0
F3C0
6180
ENDCHAR
STARTCHAR copyright
ENCODING 169
SWIDTH 725 0
DWIDTH 23 0
BBX 20 20 2 0
BITMAP
01F800
0FFF00
1FFF80
3E07C0
79F1E0
73F8E0
73F0E0
E78070
E78070
E78070
E78070
E7C070
E3F070
F3F8E0
71F0E0
7801E0
3E07C0
1FFF80
0FFF00
03F800
ENDCHAR
STARTCHAR ordfeminine
ENCODING 170
SWIDTH 347 0
DWIDTH 11 0
BBX 9 11 1 12
BITMAP
3F00
7F80
2380
0380
3F80
7F80
E380
E380
FF80
FF80
7B80
ENDCHAR
STARTCHAR guillemotleft
ENCODING 171
SWIDTH 405 0
DWIDTH 13 0
BBX 11 14 1 1
BITMAP
0880
1EE0
1DC0
3DC0
3B80
7380
F700
E700
7380
3B80
3DC0
1DC0
0EE0
0840
ENDCHAR
STARTCHAR logicalnot
ENCODING 172
SWIDTH 444 0
DWIDTH 14 0
BBX 12 7 1 6
BITMAP
FFF0
FFF0
FFF0
00F0
00F0
00F0
00F0
ENDCHAR
STARTCHAR uni00AD
ENCODING 173
SWIDTH 298 0
DWIDTH 10 0
BBX 7 3 1 7
BITMAP
FE
FE
FE
ENDCHAR
STARTCHAR registered
ENCODING 174
SWIDTH 595 0
DWIDTH 19 0
BBX 16 16 1 8
BITMAP
07E0
1FF8
3C3C
700E
77CE
E667
E667
E7C7
E6C7
E667
F63F
700E
7C3E
3FFC
1FF8
07E0
ENDCHAR
STARTCHAR macron
ENCODING 175
SWIDTH 392 0
DWIDTH 13 0
BBX 9 3 2 18
BITMAP
FF80
FF80
FF80
ENDCHAR
STARTCHAR degree
ENCODING 176
SWIDTH 364 0
DWIDTH 12 0
BBX 9 11 2 12
BITMAP
3E00
7F00
7F00
F780
E380
E380
E380
F780
7F00
7F00
3E00
ENDCHAR
STARTCHAR plusminus
ENCODING 177
SWIDTH 444 0
DWIDTH 14 0
BBX 12 16 1 5
BITMAP
0F00
0F00
0F00
0F00
0F00
FFF0
FFF0
FFF0
0F00
0F00
0F00
0000
0000
FFF0
FFF0
FFF0
ENDCHAR
STARTCHAR twosuperior
ENCODING 178
SWIDTH 353 0
DWIDTH 11 0
BBX 8 13 1 12
BITMAP
7C
FE
FF
47
07
07
0E
0E
1C
38
7F
FF
FF
ENDCHAR
STARTCHAR threesuperior
ENCODING 179
SWIDTH 353 0
DWIDTH 11 0
BBX 8 13 2 12
BITMAP
FE
FE
FE
1C
1C
3E
3F
07
07
87
FF
FE
7C
ENDCHAR
STARTCHAR acute
ENCODING 180
SWIDTH 281 0
DWIDTH 9 0
BBX 5 5 2 18
BITMAP
78
78
70
E0
C0
ENDCHAR
STARTCHAR mu
ENCODING 181
SWIDTH 476 0
DWIDTH 15 0
BBX 13 22 1 -6
BITMAP
F078
F078
F078
F078
F078
F078
F078
F078
F078
F078
F078
F078
F8F8
FFF8
FFB8
FF38
F000
F000
F000
F000
F000
F000
ENDCHAR
STARTCHAR paragraph
ENCODING 182
SWIDTH 448 0
DWIDTH 14 0
BBX 12 27 1 -4
BITMAP
1E70
3E70
7E70
FE70
FE70
FE70
FE70
FE70
FE70
FE70
7E70
7E70
3E70
0E70
0E70
0E70
0E70
0E70
0E70
0E70
0E70
0E70
0E70
0E70
0E70
0E70
0E70
ENDCHAR
STARTCHAR periodcentered
ENCODING 183
SWIDTH 212 0
DWIDTH 7 0
BBX 5 5 1 8
BITMAP
70
F8
F8
F8
70
ENDCHAR
STARTCHAR cedilla
ENCODING 184
SWIDTH 305 0
DWIDTH 10 0
BBX 6 6 2 -6
BITMAP
70
78
FC
3C
FC
F0
ENDCHAR
STARTCHAR onesuperior
ENCODING 185
SWIDTH 353 0
DWIDTH 11 0
BBX 8 13 2 12
BITMAP
1C
3C
7C
FC
FC
5C
1C
1C
1C
1C
7F
7F
7F
ENDCHAR
STARTCHAR ordmasculine
ENCODING 186
SWIDTH 350 0
DWIDTH 11 0
BBX 10 11 1 12
BITMAP
1E00
7F80
7F80
F3C0
E1C0
E1C0
E1C0
E1C0
7F80
7F80
3F00
ENDCHAR
STARTCHAR guillemotright
ENCODING 187
SWIDTH 405 0
DWIDTH 13 0
BBX 11 14 1 1
BITMAP
4600
EE00
EF00
7780
7B80
3BC0
1CE0
1DE0
3BC0
7B80
7780
7700
EE00
4200
ENDCHAR
STARTCHAR onequarter
ENCODING 188
SWIDTH 749 0
DWIDTH 24 0
BBX 21 23 1 0
BITMAP
0E0080
1E01C0
7E03C0
FE0380
EE0780
4E0700
0E0F00
0E0E00
0E1E00
0E1C00
0E3CE0
0E39E0
0E7BE0
0E73E0
00F7E0
00E6E0
01CEE0
01CCE0
039FF8
039FF8
071FF8
0F00E0
0200E0
ENDCHAR
STARTCHAR onehalf
ENCODING 189
SWIDTH 770 0
DWIDTH 25 0
BBX 22 23 1 0
BITMAP
0E0080
1E01C0
7E03C0
FE0380
EE0780
4E0700
0E0F00
0E0E00
0E1E00
0E1C00
0E3DF0
0E3BF8
0E7BF8
0E7238
00F03C
00E038
01C038
01C070
0380F0
0381E0
0703FC
0F07FC
0207FC
ENDCHAR
STARTCHAR threequarters
ENCODING 190
SWIDTH 766 0
DWIDTH 25 0
BBX 21 23 2 0
BITMAP
FE0100
FE01C0
FC0380
1C0380
380700
3E0F00
3E0E00
0F1E00
071C00
8F3C00
FE38E0
FE78E0
F871E0
00F3E0
00E3E0
01E7E0
01C6E0
03CEE0
039FF8
071FF8
071FF8
0E00E0
0200E0
ENDCHAR
STARTCHAR questiondown
ENCODING 191
SWIDTH 382 0
DWIDTH 12 0
BBX 11 22 1 -6
BITMAP
0700
0F80
0F80
0F80
0700
0000
0000
0700
0700
0F00
0F00
1E00
3C00
7800
F800
F000
F000
F040
F8C0
FFE0
7FE0
1F80
ENDCHAR
STARTCHAR Agrave
ENCODING 192
SWIDTH 501 0
DWIDTH 16 0
BBX 16 28 0 0
BITMAP
0F00
0F80
03C0
01C0
0020
03C0
03C0
03C0
07E0
07E0
07E0
07E0
0FF0
0E70
0E70
1E78
1E78
1C38
1C38
3FFC
3FFC
3FFC
381C
781E
701E
700E
F00F
F00F
ENDCHAR
STARTCHAR Aacute
ENCODING 193
SWIDTH 501 0
DWIDTH 16 0
BBX 16 28 0 0
BITMAP
00F0
01F0
03C0
0380
0400
03C0
03C0
03C0
07E0
07E0
07E0
07E0
0FF0
0E70
0E70
1E78
1E78
1C38
1C38
3FFC
3FFC
3FFC
381C
781E
701E
700E
F00F
F00F
ENDCHAR
STARTCHAR Acircumflex
ENCODING 194
SWIDTH 501 0
DWIDTH 16 0
BBX 16 28 0 0
BITMAP
03C0
07F0
0F78
1E38
0000
03C0
03C0
03C0
07E0
07E0
07E0
07E0
0FF0
0E70
0E70
1E78
1E78
1C38
1C38
3FFC
3FFC
3FFC
381C
781E
701E
700E
F00F
F00F
ENDCHAR
STARTCHAR Atilde
ENCODING 195
SWIDTH 501 0
DWIDTH 16 0
BBX 16 28 0 0
BITMAP
1F10
3FF0
3FF8
21E0
0000
03C0
03C0
03C0
07E0
07E0
07E0
07E0
0FF0
0E70
0E70
1E78
1E78
1C38
1C38
3FFC
3FFC
3FFC
381C
781E
701E
700E
F00F
F00F
ENDCHAR
STARTCHAR Adieresis
ENCODING 196
SWIDTH 501 0
DWIDTH 16 0
BBX 16 28 0 0
BITMAP
0E38
1E78
1E78
0E38
0000
03C0
03C0
03C0
07E0
07E0
07E0
07E0
0FF0
0E70
0E70
1E78
1E78
1C38
1C38
3FFC
3FFC
3FFC
381C
781E
701E
700E
F00F
F00F
ENDCHAR
STARTCHAR Aring
ENCODING 197
SWIDTH 501 0
DWIDTH 16 0
BBX 16 28 0 0
BITMAP
0380
0FE0
0EE0
0C60
07E0
03C0
03C0
03C0
07E0
07E0
07E0
07E0
0EF0
0E70
0E70
1E78
1E78
1C38
1C38
3FFC
3FFC
3FFC
381C
781E
701E
700E
F00F
F00F
ENDCHAR
STARTCHAR AE
ENCODING 198
SWIDTH 717 0
DWIDTH 23 0
BBX 23 23 -1 0
BITMAP
000FFE
001FFE
001FFE
003F00
003F00
007F00
007F00
00EF00
00EF00
01EF00
01CFFC
03CFFC
038FFC
078F00
07FF00
0FFF00
0FFF00
1E0F00
1C0F00
3C0F00
380FFE
780FFE
F00FFE
ENDCHAR
STARTCHAR Ccedilla
ENCODING 199
SWIDTH 457 0
DWIDTH 15 0
BBX 13 29 1 -6
BITMAP
07F0
0FF8
1FF8
3E10
7C00
7800
7800
F000
F000
F000
F000
F000
F000
F000
F000
F000
F800
7800
7C00
3E10
3FF8
1FF8
07F0
0380
03C0
07E0
01E0
07E0
0780
ENDCHAR
STARTCHAR Egrave
ENCODING 200
SWIDTH 430 0
DWIDTH 14 0
BBX 11 28 2 0
BITMAP
F800
7C00
3C00
0E00
0000
FFE0
FFE0
FFE0
F000
F000
F000
F000
F000
F000
F000
FFC0
FFC0
FFC0
F000
F000
F000
F000
F000
F000
F000
FFE0
FFE0
FFE0
ENDCHAR
STARTCHAR Eacute
ENCODING 201
SWIDTH 430 0
DWIDTH 14 0
BBX 11 28 2 0
BITMAP
07C0
0780
0F00
1E00
0000
FFE0
FFE0
FFE0
F000
F000
F000
F000
F000
F000
F000
FFC0
FFC0
FFC0
F000
F000
F000
F000
F000
F000
F000
FFE0
FFE0
FFE0
ENDCHAR
STARTCHAR Ecircumflex
ENCODING 202
SWIDTH 430 0
DWIDTH 14 0
BBX 11 28 2 0
BITMAP
1E00
3F80
7BC0
F1C0
0000
FFE0
FFE0
FFE0
F000
F000
F000
F000
F000
F000
F000
FFC0
FFC0
FFC0
F000
F000
F000
F000
F000
F000
F000
FFE0
FFE0
FFE0
ENDCHAR
STARTCHAR Edieresis
ENCODING 203
SWIDTH 430 0
DWIDTH 14 0
BBX 11 28 2 0
BITMAP
6180
F3C0
F3C0
E380
0000
FFE0
FFE0
FFE0
F000
F000
F000
F000
F000
F000
F000
FFC0
FFC0
FFC0
F000
F000
F000
F000
F000
F000
F000
FFE0
FFE0
FFE0
ENDCHAR
STARTCHAR Igrave
ENCODING 204
SWIDTH 238 0
DWIDTH 8 0
BBX 7 28 -1 0
BITMAP
F8
7C
3C
0E
00
1E
1E
1E
1E
1E
1E
1E
1E
1E
1E
1E
1E
1E
1E
1E
1E
1E
1E
1E
1E
1E
1E
1E
ENDCHAR
STARTCHAR Iacute
ENCODING 205
SWIDTH 238 0
DWIDTH 8 0
BBX 7 28 1 0
BITMAP
3E
3E
78
70
80
78
78
78
78
78
78
78
78
78
78
78
78
78
78
78
78
78
78
78
78
78
78
78
ENDCHAR
STARTCHAR Icircumflex
ENCODING 206
SWIDTH 238 0
DWIDTH 8 0
BBX 10 28 -1 0
BITMAP
1E00
3F80
FBC0
F1C0
0000
1E00
1E00
1E00
1E00
1E00
1E00
1E00
1E00
1E00
1E00
1E00
1E00
1E00
1E00
1E00
1E00
1E00
1E00
1E00
1E00
1E00
1E00
1E00
ENDCHAR
STARTCHAR Idieresis
ENCODING 207
SWIDTH 238 0
DWIDTH 8 0
BBX 10 28 -1 0
BITMAP
E380
F3C0
F3C0
E380
0000
1E00
1E00
1E00
1E00
1E00
1E00
1E00
1E00
1E00
1E00
1E00
1E00
1E00
1E00
1E00
1E00
1E00
1E00
1E00
1E00
1E00
1E00
1E00
ENDCHAR
STARTCHAR Eth
ENCODING 208
SWIDTH 555 0
DWIDTH 18 0
BBX 16 23 1 0
BITMAP
3FE0
3FF8
3FFC
3C3C
3C1E
3C1E
3C0F
3C0F
3C0F
3C0F
FF8F
FF8F
FF8F
3C0F
3C0F
3C0F
3C1E
3C1E
3C3E
3C7C
3FF8
3FF0
3FC0
ENDCHAR
STARTCHAR Ntilde
ENCODING 209
SWIDTH 540 0
DWIDTH 18 0
BBX 14 28 2 0
BITMAP
0F88
1FF8
3FF8
10F0
0000
F03C
F03C
F03C
F83C
F83C
FC3C
FC3C
FE3C
FE3C
FF3C
F73C
F7BC
F3BC
F3BC
F1FC
F1FC
F0FC
F0FC
F07C
F07C
F07C
F03C
F03C
ENDCHAR
STARTCHAR Ograve
ENCODING 210
SWIDTH 553 0
DWIDTH 18 0
BBX 16 28 1 0
BITMAP
1F00
0F00
0780
03C0
0000
07E0
1FF8
3FFC
3C3C
781E
781E
F81E
F00F
F00F
F00F
F00F
F00F
F00F
F00F
F00F
F00F
F81E
781E
781E
3C3C
3FFC
1FF8
07E0
ENDCHAR
STARTCHAR Oacute
ENCODING 211
SWIDTH 553 0
DWIDTH 18 0
BBX 16 28 1 0
BITMAP
00F8
00F0
01E0
03C0
0000
07E0
1FF8
3FFC
3C3C
781E
781E
F81E
F00F
F00F
F00F
F00F
F00F
F00F
F00F
F00F
F00F
F81E
781E
781E
3C3C
3FFC
1FF8
07E0
ENDCHAR
STARTCHAR Ocircumflex
ENCODING 212
SWIDTH 553 0
DWIDTH 18 0
BBX 16 28 1 0
BITMAP
03C0
07E0
1F78
1C38
0000
07E0
1FF8
3FFC
3C3C
781E
781E
F81E
F00F
F00F
F00F
F00F
F00F
F00F
F00F
F00F
F00F
F81E
781E
781E
3C3C
3FFC
1FF8
07E0
ENDCHAR
STARTCHAR Otilde
ENCODING 213
SWIDTH 553 0
DWIDTH 18 0
BBX 16 28 1 0
BITMAP
0F88
1FF8
1FFC
10F0
0000
07E0
1FF8
3FFC
3C3C
781E
781E
F81E
F00F
F00F
F00F
F00F
F00F
F00F
F00F
F00F
F00F
F81E
781E
781E
3C3C
3FFC
1FF8
07E0
ENDCHAR
STARTCHAR Odieresis
ENCODING 214
SWIDTH 553 0
DWIDTH 18 0
BBX 16 28 1 0
BITMAP
1C70
1E78
1E78
1C70
0000
07E0
1FF8
3FFC
3C3C
781E
781E
F81E
F00F
F00F
F00F
F00F
F00F
F00F
F00F
F00F
F00F
F81E
781E
781E
3C3C
3FFC
1FF8
07E0
ENDCHAR
STARTCHAR multiply
ENCODING 215
SWIDTH 444 0
DWIDTH 14 0
BBX 12 13 1 4
BITMAP
2040
70E0
F9F0
7FE0
3FC0
1F80
0F00
1F80
3FC0
7FE0
F9F0
70E0
2040
ENDCHAR
STARTCHAR Oslash
ENCODING 216
SWIDTH 553 0
DWIDTH 18 0
BBX 16 23 1 0
BITMAP
07E8
1FFE
3FFC
3C3C
783E
783E
F87E
F07F
F0EF
F0EF
F1CF
F1CF
F38F
F38F
F70F
FE0F
FE1E
7C1E
7C1E
3C3C
3FFC
7FF8
17E0
ENDCHAR
STARTCHAR Ugrave
ENCODING 217
SWIDTH 515 0
DWIDTH 17 0
BBX 13 28 2 0
BITMAP
3E00
1F00
0F00
0380
0000
F078
F078
F078
F078
F078
F078
F078
F078
F078
F078
F078
F078
F078
F078
F078
F078
F078
F078
F078
78F0
7FF0
3FE0
0F80
ENDCHAR
STARTCHAR Uacute
ENCODING 218
SWIDTH 515 0
DWIDTH 17 0
BBX 13 28 2 0
BITMAP
01F0
03E0
03C0
0780
0000
F078
F078
F078
F078
F078
F078
F078
F078
F078
F078
F078
F078
F078
F078
F078
F078
F078
F078
F078
78F0
7FF0
3FE0
0F80
ENDCHAR
STARTCHAR Ucircumflex
ENCODING 219
SWIDTH 515 0
DWIDTH 17 0
BBX 13 28 2 0
BITMAP
0780
1FC0
3DE0
38F0
0000
F078
F078
F078
F078
F078
F078
F078
F078
F078
F078
F078
F078
F078
F078
F078
F078
F078
F078
F078
78F0
7FF0
3FE0
0F80
ENDCHAR
STARTCHAR Udieresis
ENCODING 220
SWIDTH 515 0
DWIDTH 17 0
BBX 13 28 2 0
BITMAP
38E0
79E0
79E0
38E0
0000
F078
F078
F078
F078
F078
F078
F078
F078
F078
F078
F078
F078
F078
F078
F078
F078
F078
F078
F078
78F0
7FF0
3FE0
0F80
ENDCHAR
STARTCHAR Yacute
ENCODING 221
SWIDTH 495 0
DWIDTH 16 0
BBX 16 28 0 0
BITMAP
00F8
00F0
01E0
03C0
0000
F80F
781E
781E
7C1E
3C3C
3C3C
1E38
1E78
0E70
0F70
0F70
07E0
07E0
03C0
03C0
03C0
03C0
03C0
03C0
03C0
03C0
03C0
03C0
ENDCHAR
STARTCHAR Thorn
ENCODING 222
SWIDTH 477 0
DWIDTH 16 0
BBX 13 23 2 0
BITMAP
F000
F000
FF80
FFE0
FFF0
F1F0
F0F8
F078
F078
F078
F078
F078
F0F8
F1F0
FFF0
FFE0
FF80
F000
F000
F000
F000
F000
F000
ENDCHAR
STARTCHAR germandbls
ENCODING 223
SWIDTH 535 0
DWIDTH 17 0
BBX 16 23 0 0
BITMAP
07E0
0FF8
1FF8
3E7C
3C3C
3C3C
3C7C
FCF8
FCF0
FDE0
3DE0
3DE0
3DF8
3CFC
3C7E
3C3F
3C1F
3C0F
3C0F
3C9F
3DFE
3DFE
3CF8
ENDCHAR
STARTCHAR agrave
ENCODING 224
SWIDTH 413 0
DWIDTH 13 0
BBX 11 23 1 0
BITMAP
3C00
3C00
1C00
0C00
0600
0000
0000
1F80
7FC0
7FE0
21E0
01E0
01E0
01E0
1FE0
7FE0
FFE0
F9E0
F1E0
F1E0
FFE0
7EE0
3CE0
ENDCHAR
STARTCHAR aacute
ENCODING 225
SWIDTH 413 0
DWIDTH 13 0
BBX 11 23 1 0
BITMAP
0780
0780
0700
0E00
0C00
0000
0000
1F80
7FC0
7FE0
21E0
01E0
01E0
01E0
1FE0
7FE0
FFE0
F9E0
F1E0
F1E0
FFE0
7EE0
3CE0
ENDCHAR
STARTCHAR acircumflex
ENCODING 226
SWIDTH 413 0
DWIDTH 13 0
BBX 11 24 1 0
BITMAP
0F00
0F00
1F80
1F80
39C0
39C0
4000
0000
1F80
7FC0
7FE0
21E0
01E0
01E0
01E0
1FE0
7FE0
FFE0
F9E0
F1E0
F1E0
FFE0
7EE0
3CE0
ENDCHAR
STARTCHAR atilde
ENCODING 227
SWIDTH 413 0
DWIDTH 13 0
BBX 11 23 1 0
BITMAP
1C80
7FC0
7FC0
4780
0000
0000
0000
1F80
7FC0
7FE0
21E0
01E0
01E0
01E0
1FE0
7FE0
FFE0
F9E0
F1E0
F1E0
FFE0
7EE0
3CE0
ENDCHAR
STARTCHAR adieresis
ENCODING 228
SWIDTH 413 0
DWIDTH 13 0
BBX 11 23 1 0
BITMAP
71C0
79E0
79E0
71C0
0000
0000
0000
1F80
7FC0
7FE0
21E0
01E0
01E0
01E0
1FE0
7FE0
FFE0
F9E0
F1E0
F1E0
FFE0
7EE0
3CE0
ENDCHAR
STARTCHAR aring
ENCODING 229
SWIDTH 413 0
DWIDTH 13 0
BBX 11 24 1 0
BITMAP
0F00
1F00
1980
1980
1F00
0F00
0000
0000
1F80
7FC0
7FE0
21E0
01E0
01E0
01E0
1FE0
7FE0
FFE0
F9E0
F1E0
F1E0
FFE0
7EE0
3CE0
ENDCHAR
STARTCHAR ae
ENCODING 230
SWIDTH 653 0
DWIDTH 21 0
BBX 19 16 1 0
BITMAP
1F8F00
7FDFC0
7FFFC0
21F9E0
00F1E0
00F1E0
00FFE0
1FFFE0
7FFFE0
FFF000
F8F000
F0F000
F1F840
FFFFC0
7F3FE0
3E1F80
ENDCHAR
STARTCHAR ccedilla
ENCODING 231
SWIDTH 350 0
DWIDTH 11 0
BBX 9 22 1 -6
BITMAP
1F00
3F80
7F80
7900
F000
F000
F000
F000
F000
F000
F000
F800
7900
7F80
3F80
1F00
1800
1E00
3F00
0F00
3F00
3C00
ENDCHAR
STARTCHAR egrave
ENCODING 232
SWIDTH 428 0
DWIDTH 13 0
BBX 11 23 1 0
BITMAP
3C00
1C00
1E00
0E00
0600
0000
0000
1F00
3FC0
7FC0
79E0
F1E0
F1E0
FFE0
FFE0
FFE0
F000
F000
F000
7840
7FE0
3FE0
1F80
ENDCHAR
STARTCHAR eacute
ENCODING 233
SWIDTH 428 0
DWIDTH 13 0
BBX 11 23 1 0
BITMAP
03C0
0380
0380
0700
0600
0000
0000
1F00
3FC0
7FC0
79E0
F1E0
F1E0
FFE0
FFE0
FFE0
F000
F000
F000
7840
7FE0
3FE0
1F80
ENDCHAR
STARTCHAR ecircumflex
ENCODING 234
SWIDTH 428 0
DWIDTH 13 0
BBX 11 24 1 0
BITMAP
0E00
1E00
3F00
3F00
7380
7380
0040
0000
1F00
3FC0
7FC0
79E0
F1E0
F1E0
FFE0
FFE0
FFE0
F000
F000
F000
7840
7FE0
3FE0
1F80
ENDCHAR
STARTCHAR edieresis
ENCODING 235
SWIDTH 428 0
DWIDTH 13 0
BBX 11 23 1 0
BITMAP
38E0
79E0
79E0
38E0
0000
0000
0000
1F00
3FC0
7FC0
79E0
F1E0
F1E0
FFE0
FFE0
FFE0
F000
F000
F000
7840
7FE0
3FE0
1F80
ENDCHAR
STARTCHAR igrave
ENCODING 236
SWIDTH 225 0
DWIDTH 8 0
BBX 6 23 0 0
BITMAP
F0
F0
70
30
18
00
00
3C
3C
3C
3C
3C
3C
3C
3C
3C
3C
3C
3C
3C
3C
3C
3C
ENDCHAR
STARTCHAR iacute
ENCODING 237
SWIDTH 225 0
DWIDTH 8 0
BBX 5 23 2 0
BITMAP
78
78
70
E0
C0
00
00
F0
F0
F0
F0
F0
F0
F0
F0
F0
F0
F0
F0
F0
F0
F0
F0
ENDCHAR
STARTCHAR icircumflex
ENCODING 238
SWIDTH 225 0
DWIDTH 8 0
BBX 9 24 0 0
BITMAP
1C00
1E00
3E00
3700
7300
E380
0000
0000
3C00
3C00
3C00
3C00
3C00
3C00
3C00
3C00
3C00
3C00
3C00
3C00
3C00
3C00
3C00
3C00
ENDCHAR
STARTCHAR idieresis
ENCODING 239
SWIDTH 225 0
DWIDTH 8 0
BBX 10 23 -1 0
BITMAP
E380
F3C0
F3C0
E380
0000
0000
0000
1E00
1E00
1E00
1E00
1E00
1E00
1E00
1E00
1E00
1E00
1E00
1E00
1E00
1E00
1E00
1E00
ENDCHAR
STARTCHAR eth
ENCODING 240
SWIDTH 458 0
DWIDTH 15 0
BBX 13 23 1 0
BITMAP
0C80
1FC0
0F80
07C0
0FE0
04E0
00F0
0F70
3FF8
7FF8
78F8
F878
F078
F078
F078
F078
F078
F078
F8F0
78F0
7FE0
3FC0
0F80
ENDCHAR
STARTCHAR ntilde
ENCODING 241
SWIDTH 449 0
DWIDTH 14 0
BBX 12 23 1 0
BITMAP
3C80
7F80
7FC0
4700
0000
0000
0000
E3C0
FFE0
FFF0
F9F0
F0F0
F0F0
F0F0
F0F0
F0F0
F0F0
F0F0
F0F0
F0F0
F0F0
F0F0
F0F0
ENDCHAR
STARTCHAR ograve
ENCODING 242
SWIDTH 445 0
DWIDTH 14 0
BBX 12 23 1 0
BITMAP
3C00
1C00
1E00
0E00
0600
0000
0000
1F80
3FC0
7FE0
79E0
F0F0
F0F0
F0F0
F0F0
F0F0
F0F0
F0F0
F0F0
79E0
7FE0
3FC0
1F80
ENDCHAR
STARTCHAR oacute
ENCODING 243
SWIDTH 445 0
DWIDTH 14 0
BBX 12 23 1 0
BITMAP
03C0
03C0
0380
0700
0600
0000
0000
1F80
3FC0
7FE0
79E0
F0F0
F0F0
F0F0
F0F0
F0F0
F0F0
F0F0
F0F0
79E0
7FE0
3FC0
1F80
ENDCHAR
STARTCHAR ocircumflex
ENCODING 244
SWIDTH 445 0
DWIDTH 14 0
BBX 12 24 1 0
BITMAP
0700
0F80
0F80
1DC0
19C0
38E0
0000
0000
1F80
3FC0
7FE0
79E0
F0F0
F0F0
F0F0
F0F0
F0F0
F0F0
F0F0
F0F0
79E0
7FE0
3FC0
1F80
ENDCHAR
STARTCHAR otilde
ENCODING 245
SWIDTH 445 0
DWIDTH 14 0
BBX 12 23 1 0
BITMAP
1C40
3FC0
7FC0
2380
0000
0000
0000
1F80
3FC0
7FE0
79E0
F0F0
F0F0
F0F0
F0F0
F0F0
F0F0
F0F0
F0F0
79E0
7FE0
3FC0
1F80
ENDCHAR
STARTCHAR odieresis
ENCODING 246
SWIDTH 445 0
DWIDTH 14 0
BBX 12 23 1 0
BITMAP
38E0
79E0
79E0
38E0
0000
0000
0000
1F80
3FC0
7FE0
79E0
F0F0
F0F0
F0F0
F0F0
F0F0
F0F0
F0F0
F0F0
79E0
7FE0
3FC0
1F80
ENDCHAR
STARTCHAR divide
ENCODING 247
SWIDTH 444 0
DWIDTH 14 0
BBX 13 17 1 2
BITMAP
0700
0F80
0F80
0F80
0700
0000
0000
FFF8
FFF8
FFF8
0000
0000
0700
0F80
0F80
0F80
0700
ENDCHAR
STARTCHAR oslash
ENCODING 248
SWIDTH 448 0
DWIDTH 14 0
BBX 12 16 1 0
BITMAP
1F40
3FF0
7FE0
79E0
F1F0
F3F0
F3F0
F6F0
F6F0
FCF0
FCF0
F8F0
79E0
7FE0
FFC0
2F80
ENDCHAR
STARTCHAR ugrave
ENCODING 249
SWIDTH 446 0
DWIDTH 14 0
BBX 12 23 1 0
BITMAP
3C00
1C00
1C00
0E00
0600
0000
0000
F0F0
F0F0
F0F0
F0F0
F0F0
F0F0
F0F0
F0F0
F0F0
F0F0
F0F0
F0F0
F1F0
FFF0
7F70
3E70
ENDCHAR
STARTCHAR uacute
ENCODING 250
SWIDTH 446 0
DWIDTH 14 0
BBX 12 23 1 0
BITMAP
03C0
0780
0700
0700
0600
0000
0000
F0F0
F0F0
F0F0
F0F0
F0F0
F0F0
F0F0
F0F0
F0F0
F0F0
F0F0
F0F0
F1F0
FFF0
7F70
3E70
ENDCHAR
STARTCHAR ucircumflex
ENCODING 251
SWIDTH 446 0
DWIDTH 14 0
BBX 12 24 1 0
BITMAP
0E00
1E00
1F00
3B00
3380
7180
0040
0000
F0F0
F0F0
F0F0
F0F0
F0F0
F0F0
F0F0
F0F0
F0F0
F0F0
F0F0
F0F0
F1F0
FFF0
7F70
3E70
ENDCHAR
STARTCHAR udieresis
ENCODING 252
SWIDTH 446 0
DWIDTH 14 0
BBX 12 23 1 0
BITMAP
38E0
79E0
79E0
38E0
0000
0000
0000
F0F0
F0F0
F0F0
F0F0
F0F0
F0F0
F0F0
F0F0
F0F0
F0F0
F0F0
F0F0
F1F0
FFF0
7F70
3E70
ENDCHAR
STARTCHAR yacute
ENCODING 253
SWIDTH 400 0
DWIDTH 13 0
BBX 13 29 0 -6
BITMAP
01E0
01E0
01C0
0180
0380
0000
0000
F878
F878
7870
78F0
7CF0
3CF0
3CE0
3CE0
1DE0
1FC0
1FC0
0FC0
0FC0
0F80
0780
0780
0700
0700
0F00
1E00
3E00
3C00
ENDCHAR
STARTCHAR thorn
ENCODING 254
SWIDTH 446 0
DWIDTH 14 0
BBX 12 29 1 -6
BITMAP
F000
F000
F000
F000
F000
F000
F000
F780
FFE0
FFE0
F9F0
F0F0
F0F0
F0F0
F0F0
F0F0
F0F0
F0F0
F1F0
F1E0
FFE0
FFC0
FF80
F000
F000
F000
F000
F000
F000
ENDCHAR
STARTCHAR ydieresis
ENCODING 255
SWIDTH 400 0
DWIDTH 13 0
BBX 13 29 0 -6
BITMAP
38E0
3CF0
3CF0
38E0
0000
0000
0000
F878
F878
7870
78F0
7CF0
3CF0
3CE0
3CE0
1DE0
1FC0
1FC0
0FC0
0FC0
0F80
0780
0780
0700
0700
0F00
1E00
3E00
3C00
ENDCHAR
STARTCHAR Amacron
ENCODING 256
SWIDTH 501 0
DWIDTH 16 0
BBX 16 28 0 0
BITMAP
0FF8
0FF8
0FF8
0000
0000
03C0
03C0
03C0
07E0
07E0
07E0
07E0
0FF0
0E70
0E70
1E78
1E78
1C38
1C38
3FFC
3FFC
3FFC
381C
781E
701E
700E
F00F
F00F
ENDCHAR
STARTCHAR amacron
ENCODING 257
SWIDTH 413 0
DWIDTH 13 0
BBX 11 21 1 0
BITMAP
7FC0
7FC0
7FC0
0000
0000
1F80
7FC0
7FE0
21E0
01E0
01E0
01E0
1FE0
7FE0
FFE0
F9E0
F1E0
F1E0
FFE0
7EE0
3CE0
ENDCHAR
STARTCHAR Abreve
ENCODING 258
SWIDTH 501 0
DWIDTH 16 0
BBX 16 29 0 0
BITMAP
0810
1C38
0FF0
0FF0
03C0
0000
03C0
03C0
03C0
07E0
07E0
07E0
07E0
0FF0
0E70
0E70
1E78
1E78
1C38
1C38
3FFC
3FFC
3FFC
381C
781E
701E
700E
F00F
F00F
ENDCHAR
STARTCHAR abreve
ENCODING 259
SWIDTH 413 0
DWIDTH 13 0
BBX 11 23 1 0
BITMAP
2080
71C0
3FC0
3F80
0F00
0000
0000
1F80
7FC0
7FE0
21E0
01E0
01E0
01E0
1FE0
7FE0
FFE0
F9E0
F1E0
F1E0
FFE0
7EE0
3CE0
ENDCHAR
STARTCHAR Aogonek
ENCODING 260
SWIDTH 501 0
DWIDTH 16 0
BBX 17 29 0 -6
BITMAP
03C000
03C000
03C000
07E000
07E000
07E000
07E000
0FF000
0E7000
0E7000
1E7800
1E7800
1C3800
1C3800
3FFC00
3FFC00
3FFC00
381C00
781E00
701E00
700E00
F00F00
F00F00
000E00
001E00
001E00
001F80
001F80
000F00
ENDCHAR
STARTCHAR aogonek
ENCODING 261
SWIDTH 413 0
DWIDTH 13 0
BBX 12 22 1 -6
BITMAP
1F80
7FC0
7FE0
21E0
01E0
01E0
01E0
1FE0
7FE0
FFE0
F9E0
F1E0
F1E0
FFE0
7EE0
3CE0
01C0
03C0
03C0
03F0
03F0
01E0
ENDCHAR
STARTCHAR Cacute
ENCODING 262
SWIDTH 457 0
DWIDTH 15 0
BBX 13 28 1 0
BITMAP
00F8
00F8
01E0
01C0
0200
07F0
0FF8
3FF8
3E10
7C00
7800
7800
F000
F000
F000
F000
F000
F000
F000
F000
F000
7800
7800
7C00
3E10
3FF8
1FF8
07F0
ENDCHAR
STARTCHAR cacute
ENCODING 263
SWIDTH 350 0
DWIDTH 11 0
BBX 9 23 1 0
BITMAP
0780
0780
0700
0600
0E00
0000
0000
1F00
3F80
7F80
7900
F000
F000
F000
F000
F000
F000
F000
F800
7900
7F80
3F80
1F00
ENDCHAR
STARTCHAR Ccircumflex
ENCODING 264
SWIDTH 457 0
DWIDTH 15 0
BBX 13 28 1 0
BITMAP
03C0
07F0
0F78
1E38
0000
07F0
0FF8
3FF8
3E10
7C00
7800
7800
F000
F000
F000
F000
F000
F000
F000
F000
F000
7800
7800
7C00
3E10
3FF8
1FF8
07F0
ENDCHAR
STARTCHAR ccircumflex
ENCODING 265
SWIDTH 350 0
DWIDTH 11 0
BBX 9 24 1 0
BITMAP
1E00
1E00
3F00
3700
7380
6380
8000
0000
1F00
3F80
7F80
7900
F000
F000
F000
F000
F000
F000
F000
F800
7900
7F80
3F80
1F00
ENDCHAR
STARTCHAR Ccaron
ENCODING 268
SWIDTH 457 0
DWIDTH 15 0
BBX 13 28 1 0
BITMAP
1E38
0F78
07F0
03C0
0000
07F0
0FF8
3FF8
3E10
7C00
7800
7800
F000
F000
F000
F000
F000
F000
F000
F000
F000
7800
7800
7C00
3E10
3FF8
1FF8
07F0
ENDCHAR
STARTCHAR ccaron
ENCODING 269
SWIDTH 350 0
DWIDTH 11 0
BBX 10 24 1 0
BITMAP
71C0
3B80
3B80
1B00
1F00
0E00
0000
0000
1F00
3F80
7F80
7900
F000
F000
F000
F000
F000
F000
F000
F800
7900
7F80
3F80
1F00
ENDCHAR
STARTCHAR Dcaron
ENCODING 270
SWIDTH 535 0
DWIDTH 17 0
BBX 14 28 2 0
BITMAP
71E0
7BC0
3F80
0F00
0000
FF80
FFE0
FFF0
F0F0
F078
F078
F03C
F03C
F03C
F03C
F03C
F03C
F03C
F03C
F03C
F03C
F078
F078
F0F8
F1F0
FFE0
FFC0
FF00
ENDCHAR
STARTCHAR dcaron
ENCODING 271
SWIDTH 445 0
DWIDTH 15 0
BBX 16 23 1 0
BITMAP
00F7
00F7
00F7
00F6
00FE
00F4
00F0
1FF0
3FF0
7FF0
78F0
F0F0
F0F0
F0F0
F0F0
F0F0
F0F0
F0F0
F0F0
79F0
7FF0
3F70
1E70
ENDCHAR
STARTCHAR Dcroat
ENCODING 272
SWIDTH 555 0
DWIDTH 18 0
BBX 16 23 1 0
BITMAP
3FE0
3FF8
3FFC
3C3C
3C1E
3C1E
3C0F
3C0F
3C0F
3C0F
FF8F
FF8F
FF8F
3C0F
3C0F
3C0F
3C1E
3C1E
3C3E
3C7C
3FF8
3FF0
3FC0
ENDCHAR
STARTCHAR dcroat
ENCODING 273
SWIDTH 452 0
DWIDTH 15 0
BBX 14 23 1 0
BITMAP
00F0
00F0
0FFC
0FFC
0FFC
00F0
00F0
1FF0
3FF0
7FF0
78F0
F0F0
F0F0
F0F0
F0F0
F0F0
F0F0
F0F0
F0F0
79F0
7FF0
3F70
1E70
ENDCHAR
STARTCHAR Emacron
ENCODING 274
SWIDTH 430 0
DWIDTH 14 0
BBX 11 28 2 0
BITMAP
7FC0
7FC0
7FC0
0000
0000
FFE0
FFE0
FFE0
F000
F000
F000
F000
F000
F000
F000
FFC0
FFC0
FFC0
F000
F000
F000
F000
F000
F000
F000
FFE0
FFE0
FFE0
ENDCHAR
STARTCHAR emacron
ENCODING 275
SWIDTH 428 0
DWIDTH 13 0
BBX 11 21 1 0
BITMAP
3FE0
3FE0
3FE0
0000
0000
1F00
3FC0
7FC0
79E0
F1E0
F1E0
FFE0
FFE0
FFE0
F000
F000
F000
7840
7FE0
3FE0
1F80
ENDCHAR
STARTCHAR Edotaccent
ENCODING 278
SWIDTH 430 0
DWIDTH 14 0
BBX 11 28 2 0
BITMAP
0E00
1F00
1F00
0E00
0000
FFE0
FFE0
FFE0
F000
F000
F000
F000
F000
F000
F000
FFC0
FFC0
FFC0
F000
F000
F000
F000
F000
F000
F000
FFE0
FFE0
FFE0
ENDCHAR
STARTCHAR edotaccent
ENCODING 279
SWIDTH 428 0
DWIDTH 13 0
BBX 11 23 1 0
BITMAP
1E00
1F00
1F00
1E00
0000
0000
0000
1F00
3FC0
7FC0
79E0
F1E0
F1E0
FFE0
FFE0
FFE0
F000
F000
F000
7840
7FE0
3FE0
1F80
ENDCHAR
STARTCHAR Eogonek
ENCODING 280
SWIDTH 430 0
DWIDTH 14 0
BBX 11 29 2 -6
BITMAP
FFE0
FFE0
FFE0
F000
F000
F000
F000
F000
F000
F000
FFC0
FFC0
FFC0
F000
F000
F000
F000
F000
F000
F000
FFE0
FFE0
FFE0
0380
0380
0780
07E0
07E0
03C0
ENDCHAR
STARTCHAR eogonek
ENCODING 281
SWIDTH 421 0
DWIDTH 13 0
BBX 12 22 1 -6
BITMAP
0F80
3FC0
7FE0
79F0
F8F0
F0F0
F0F0
FFF0
FFF0
FFF0
F000
F000
7820
7FF0
3FF0
0FC0
0380
0780
0780
07E0
07E0
03C0
ENDCHAR
STARTCHAR Ecaron
ENCODING 282
SWIDTH 430 0
DWIDTH 14 0
BBX 11 28 2 0
BITMAP
F1C0
7BC0
3F80
1E00
0000
FFE0
FFE0
FFE0
F000
F000
F000
F000
F000
F000
F000
FFC0
FFC0
FFC0
F000
F000
F000
F000
F000
F000
F000
FFE0
FFE0
FFE0
ENDCHAR
STARTCHAR ecaron
ENCODING 283
SWIDTH 428 0
DWIDTH 13 0
BBX 11 24 1 0
BITMAP
73C0
7380
3F00
3F00
1E00
1E00
0000
0000
1F00
3FC0
7FC0
79E0
F1E0
F1E0
FFE0
FFE0
FFE0
F000
F000
F000
7840
7FE0
3FE0
1F80
ENDCHAR
STARTCHAR Gcircumflex
ENCODING 284
SWIDTH 502 0
DWIDTH 17 0
BBX 14 28 1 0
BITMAP
03C0
0FE0
1EF0
1C78
0000
03F0
0FF8
1FF8
3E10
7C00
7800
7800
F000
F000
F000
F000
F1FC
F1FC
F1FC
F01C
F01C
781C
781C
7C1C
3E3C
3FFC
1FF8
07E0
ENDCHAR
STARTCHAR gcircumflex
ENCODING 285
SWIDTH 443 0
DWIDTH 14 0
BBX 12 30 1 -6
BITMAP
0700
0F00
0F80
1D80
19C0
38C0
0020
0000
0FE0
3FF0
7FF0
78F0
F0F0
F0F0
F0F0
F0F0
F0F0
F0F0
F0F0
F0F0
F9F0
7FF0
7FF0
1EF0
00F0
00F0
21F0
7FE0
7FC0
3F80
ENDCHAR
STARTCHAR Gbreve
ENCODING 286
SWIDTH 502 0
DWIDTH 17 0
BBX 14 29 1 0
BITMAP
0810
1C38
1FF0
0FE0
03C0
0000
03F0
0FF8
1FF8
3E10
7C00
7800
7800
F000
F000
F000
F000
F1FC
F1FC
F1FC
F01C
F01C
781C
781C
7C1C
3E3C
3FFC
1FF8
07E0
ENDCHAR
STARTCHAR gbreve
ENCODING 287
SWIDTH 443 0
DWIDTH 14 0
BBX 12 29 1 -6
BITMAP
3040
38E0
3FC0
1F80
0F00
0000
0000
0FE0
3FF0
7FF0
78F0
F0F0
F0F0
F0F0
F0F0
F0F0
F0F0
F0F0
F0F0
F9F0
7FF0
7FF0
1EF0
00F0
00F0
21F0
7FE0
7FC0
3F80
ENDCHAR
STARTCHAR Gcommaaccent
ENCODING 290
SWIDTH 502 0
DWIDTH 17 0
BBX 14 31 1 -8
BITMAP
03F0
0FF8
1FF8
3E10
7C00
7800
7800
F000
F000
F000
F000
F1FC
F1FC
F1FC
F01C
F01C
781C
781C
7C1C
3E3C
3FFC
1FF8
07E0
0000
01C0
01C0
01E0
01E0
01C0
01C0
0180
ENDCHAR
STARTCHAR gcommaaccent
ENCODING 291
SWIDTH 443 0
DWIDTH 14 0
BBX 12 30 1 -6
BITMAP
0100
0380
0700
0700
0780
0780
0700
0000
0FE0
3FF0
7FF0
78F0
F0F0
F0F0
F0F0
F0F0
F0F0
F0F0
F0F0
F0F0
F9F0
7FF0
7FF0
1EF0
00F0
00F0
21F0
7FE0
7FC0
3F80
ENDCHAR
STARTCHAR Hcircumflex
ENCODING 292
SWIDTH 533 0
DWIDTH 18 0
BBX 14 28 2 0
BITMAP
0780
0FC0
3FF0
3870
0000
F03C
F03C
F03C
F03C
F03C
F03C
F03C
F03C
F03C
F03C
FFFC
FFFC
FFFC
F03C
F03C
F03C
F03C
F03C
F03C
F03C
F03C
F03C
F03C
ENDCHAR
STARTCHAR hcircumflex
ENCODING 293
SWIDTH 449 0
DWIDTH 14 0
BBX 15 28 -2 0
BITMAP
1E00
3F00
F780
E3C0
0000
1E00
1E00
1E00
1E00
1E00
1E00
1E00
1E78
1FFC
1FFE
1F3E
1E1E
1E1E
1E1E
1E1E
1E1E
1E1E
1E1E
1E1E
1E1E
1E1E
1E1E
1E1E
ENDCHAR
STARTCHAR Hbar
ENCODING 294
SWIDTH 567 0
DWIDTH 18 0
BBX 18 23 0 0
BITMAP
3C0F00
3C0F00
3C0F00
3C0F00
FFFFC0
FFFFC0
FFFFC0
3C0F00
3C0F00
3C0F00
3FFF00
3FFF00
3FFF00
3C0F00
3C0F00
3C0F00
3C0F00
3C0F00
3C0F00
3C0F00
3C0F00
3C0F00
3C0F00
ENDCHAR
STARTCHAR hbar
ENCODING 295
SWIDTH 456 0
DWIDTH 15 0
BBX 14 23 0 0
BITMAP
3C00
3C00
FFC0
FFC0
FFC0
3C00
3C00
3CF0
3FF8
3FFC
3E7C
3C3C
3C3C
3C3C
3C3C
3C3C
3C3C
3C3C
3C3C
3C3C
3C3C
3C3C
3C3C
ENDCHAR
STARTCHAR Imacron
ENCODING 298
SWIDTH 238 0
DWIDTH 8 0
BBX 9 28 0 0
BITMAP
FF80
FF80
FF80
0000
0000
3C00
3C00
3C00
3C00
3C00
3C00
3C00
3C00
3C00
3C00
3C00
3C00
3C00
3C00
3C00
3C00
3C00
3C00
3C00
3C00
3C00
3C00
3C00
ENDCHAR
STARTCHAR imacron
ENCODING 299
SWIDTH 225 0
DWIDTH 8 0
BBX 9 21 0 0
BITMAP
FF80
FF80
FF80
0000
0000
3C00
3C00
3C00
3C00
3C00
3C00
3C00
3C00
3C00
3C00
3C00
3C00
3C00
3C00
3C00
3C00
ENDCHAR
STARTCHAR Iogonek
ENCODING 302
SWIDTH 238 0
DWIDTH 8 0
BBX 6 29 1 -6
BITMAP
78
78
78
78
78
78
78
78
78
78
78
78
78
78
78
78
78
78
78
78
78
78
78
70
F0
F0
FC
FC
78
ENDCHAR
STARTCHAR iogonek
ENCODING 303
SWIDTH 223 0
DWIDTH 8 0
BBX 6 29 1 -6
BITMAP
70
F8
F8
70
00
00
00
78
78
78
78
78
78
78
78
78
78
78
78
78
78
78
78
70
F0
F0
FC
FC
78
ENDCHAR
STARTCHAR Idotaccent
ENCODING 304
SWIDTH 238 0
DWIDTH 8 0
BBX 5 28 2 0
BITMAP
78
F8
F8
78
00
F0
F0
F0
F0
F0
F0
F0
F0
F0
F0
F0
F0
F0
F0
F0
F0
F0
F0
F0
F0
F0
F0
F0
ENDCHAR
STARTCHAR dotlessi
ENCODING 305
SWIDTH 225 0
DWIDTH 8 0
BBX 4 16 2 0
BITMAP
F0
F0
F0
F0
F0
F0
F0
F0
F0
F0
F0
F0
F0
F0
F0
F0
ENDCHAR
STARTCHAR Jcircumflex
ENCODING 308
SWIDTH 289 0
DWIDTH 10 0
BBX 11 28 0 0
BITMAP
0F00
3F80
7BC0
71E0
0000
0F00
0F00
0F00
0F00
0F00
0F00
0F00
0F00
0F00
0F00
0F00
0F00
0F00
0F00
0F00
0F00
0F00
0F00
0F00
1F00
7E00
FE00
FC00
ENDCHAR
STARTCHAR jcircumflex
ENCODING 309
SWIDTH 225 0
DWIDTH 8 0
BBX 9 30 -1 -6
BITMAP
1E00
1E00
3F00
3700
7380
6380
8000
0000
1E00
1E00
1E00
1E00
1E00
1E00
1E00
1E00
1E00
1E00
1E00
1E00
1E00
1E00
1E00
1E00
1E00
1E00
3E00
7E00
7C00
7800
ENDCHAR
STARTCHAR Kcommaaccent
ENCODING 310
SWIDTH 519 0
DWIDTH 17 0
BBX 15 31 2 -8
BITMAP
F07C
F078
F0F0
F0F0
F1E0
F1E0
F3C0
F3C0
F780
F780
FF00
FF00
FF80
F7C0
F3C0
F3E0
F1E0
F1F0
F0F0
F0F8
F07C
F07C
F03E
0000
0600
0F00
0F00
0F00
0700
0E00
0400
ENDCHAR
STARTCHAR kcommaaccent
ENCODING 311
SWIDTH 412 0
DWIDTH 13 0
BBX 12 31 1 -8
BITMAP
F000
F000
F000
F000
F000
F000
F000
F1F0
F1E0
F1C0
F3C0
F380
F780
FE00
FF00
FF80
F780
F780
F3C0
F3C0
F1E0
F1E0
F1F0
0000
0E00
0F00
0F00
0F00
0600
0E00
0C00
ENDCHAR
STARTCHAR Lacute
ENCODING 313
SWIDTH 424 0
DWIDTH 13 0
BBX 11 28 2 0
BITMAP
1E00
3E00
7800
7000
8000
F000
F000
F000
F000
F000
F000
F000
F000
F000
F000
F000
F000
F000
F000
F000
F000
F000
F000
F000
F000
FFE0
FFE0
FFE0
ENDCHAR
STARTCHAR lacute
ENCODING 314
SWIDTH 243 0
DWIDTH 7 0
BBX 7 28 1 0
BITMAP
3E
7C
78
E0
00
F0
F0
F0
F0
F0
F0
F0
F0
F0
F0
F0
F0
F0
F0
F0
F0
F0
F0
F0
FC
FC
FC
7C
ENDCHAR
STARTCHAR Lcommaaccent
ENCODING 315
SWIDTH 424 0
DWIDTH 13 0
BBX 11 31 2 -8
BITMAP
F000
F000
F000
F000
F000
F000
F000
F000
F000
F000
F000
F000
F000
F000
F000
F000
F000
F000
F000
F000
FFE0
FFE0
FFE0
0000
1C00
1E00
1E00
1E00
0E00
1C00
0800
ENDCHAR
STARTCHAR lcommaaccent
ENCODING 316
SWIDTH 243 0
DWIDTH 7 0
BBX 6 31 1 -8
BITMAP
F0
F0
F0
F0
F0
F0
F0
F0
F0
F0
F0
F0
F0
F0
F0
F0
F0
F0
F0
FC
FC
FC
7C
00
38
38
78
38
38
38
70
ENDCHAR
STARTCHAR Lcaron
ENCODING 317
SWIDTH 424 0
DWIDTH 13 0
BBX 11 23 2 0
BITMAP
F1C0
F1C0
F1C0
F180
F380
F100
F000
F000
F000
F000
F000
F000
F000
F000
F000
F000
F000
F000
F000
F000
FFE0
FFE0
FFE0
ENDCHAR
STARTCHAR lcaron
ENCODING 318
SWIDTH 243 0
DWIDTH 7 0
BBX 8 23 1 0
BITMAP
F7
FE
FE
FE
FC
FC
F0
F0
F0
F0
F0
F0
F0
F0
F0
F0
F0
F0
F0
FC
FC
FC
7C
ENDCHAR
STARTCHAR Lslash
ENCODING 321
SWIDTH 434 0
DWIDTH 14 0
BBX 13 23 1 0
BITMAP
3C00
3C00
3C00
3C00
3C00
3C00
3C80
3D80
3F80
3F80
3F00
3E00
7C00
FC00
FC00
FC00
BC00
3C00
3C00
3C00
3FF8
3FF8
3FF8
ENDCHAR
STARTCHAR lslash
ENCODING 322
SWIDTH 267 0
DWIDTH 8 0
BBX 8 23 0 0
BITMAP
3C
3C
3C
3C
3C
3C
3C
3D
3F
3F
3F
3E
7C
FC
FC
FC
BC
3C
3C
3F
3F
3F
1F
ENDCHAR
STARTCHAR Nacute
ENCODING 323
SWIDTH 540 0
DWIDTH 18 0
BBX 14 28 2 0
BITMAP
01F0
01F0
03C0
0780
0000
F03C
F03C
F03C
F83C
F83C
FC3C
FC3C
FE3C
FE3C
FF3C
F73C
F7BC
F3BC
F3BC
F1FC
F1FC
F0FC
F0FC
F07C
F07C
F07C
F03C
F03C
ENDCHAR
STARTCHAR nacute
ENCODING 324
SWIDTH 449 0
DWIDTH 14 0
BBX 12 23 1 0
BITMAP
03C0
03C0
0380
0700
0600
0000
0000
E3C0
FFE0
FFF0
F9F0
F0F0
F0F0
F0F0
F0F0
F0F0
F0F0
F0F0
F0F0
F0F0
F0F0
F0F0
F0F0
ENDCHAR
STARTCHAR Ncommaaccent
ENCODING 325
SWIDTH 540 0
DWIDTH 18 0
BBX 14 31 2 -8
BITMAP
F03C
F03C
F03C
F83C
F83C
FC3C
FC3C
FE3C
FE3C
FF3C
F73C
F7BC
F3BC
F3BC
F1FC
F1FC
F0FC
F0FC
F07C
F07C
F07C
F03C
F03C
0000
0300
0780
0780
0780
0380
0700
0200
ENDCHAR
STARTCHAR ncommaaccent
ENCODING 326
SWIDTH 449 0
DWIDTH 14 0
BBX 12 24 1 -8
BITMAP
E3C0
FFE0
FFF0
F9F0
F0F0
F0F0
F0F0
F0F0
F0F0
F0F0
F0F0
F0F0
F0F0
F0F0
F0F0
F0F0
0000
0600
0F00
0F00
0F00
0700
0E00
0400
ENDCHAR
STARTCHAR Ncaron
ENCODING 327
SWIDTH 540 0
DWIDTH 18 0
BBX 14 28 2 0
BITMAP
3C70
3EF0
0FC0
0780
0000
F03C
F03C
F03C
F83C
F83C
FC3C
FC3C
FE3C
FE3C
FF3C
F73C
F7BC
F3BC
F3BC
F1FC
F1FC
F0FC
F0FC
F07C
F07C
F07C
F03C
F03C
ENDCHAR
STARTCHAR ncaron
ENCODING 328
SWIDTH 449 0
DWIDTH 14 0
BBX 12 24 1 0
BITMAP
71C0
3B80
3B00
1F00
1E00
0E00
0000
0000
E3C0
FFE0
FFF0
F9F0
F0F0
F0F0
F0F0
F0F0
F0F0
F0F0
F0F0
F0F0
F0F0
F0F0
F0F0
F0F0
ENDCHAR
STARTCHAR Omacron
ENCODING 332
SWIDTH 553 0
DWIDTH 18 0
BBX 16 28 1 0
BITMAP
0FF8
0FF8
0FF8
0000
0000
07E0
1FF8
3FFC
3C3C
781E
781E
F81E
F00F
F00F
F00F
F00F
F00F
F00F
F00F
F00F
F00F
F81E
781E
781E
3C3C
3FFC
1FF8
07E0
ENDCHAR
STARTCHAR omacron
ENCODING 333
SWIDTH 445 0
DWIDTH 14 0
BBX 12 21 1 0
BITMAP
3FE0
3FE0
3FE0
0000
0000
1F80
3FC0
7FE0
79E0
F0F0
F0F0
F0F0
F0F0
F0F0
F0F0
F0F0
F0F0
79E0
7FE0
3FC0
1F80
ENDCHAR
STARTCHAR Ohungarumlaut
ENCODING 336
SWIDTH 553 0
DWIDTH 18 0
BBX 16 27 1 0
BITMAP
07BE
0778
0EF0
0000
07E0
1FF8
3FFC
3C3C
781E
781E
F81E
F00F
F00F
F00F
F00F
F00F
F00F
F00F
F00F
F00F
F81E
781E
781E
3C3C
3FFC
1FF8
07E0
ENDCHAR
STARTCHAR ohungarumlaut
ENCODING 337
SWIDTH 445 0
DWIDTH 14 0
BBX 12 22 1 0
BITMAP
1CF0
19E0
39C0
3380
0000
0000
1F80
3FC0
7FE0
79E0
F0F0
F0F0
F0F0
F0F0
F0F0
F0F0
F0F0
F0F0
79E0
7FE0
3FC0
1F80
ENDCHAR
STARTCHAR OE
ENCODING 338
SWIDTH 753 0
DWIDTH 24 0
BBX 22 23 1 0
BITMAP
07FFFC
1FFFFC
3FFFFC
3C3E00
781E00
781E00
F81E00
F01E00
F01E00
F01E00
F01FF8
F01FF8
F01FF8
F01E00
F01E00
F01E00
F81E00
781E00
781E00
3C1E00
3FFFFC
1FFFFC
07FFFC
ENDCHAR
STARTCHAR oe
ENCODING 339
SWIDTH 697 0
DWIDTH 22 0
BBX 20 16 1 0
BITMAP
1F0F80
3FDFE0
7FFFE0
79F9F0
F0F0F0
F0F0F0
F0FFF0
F0FFF0
F0FFF0
F0F000
F0F000
F0F800
79F820
7FFFF0
3FDFF0
1F0FC0
ENDCHAR
STARTCHAR Racute
ENCODING 340
SWIDTH 503 0
DWIDTH 16 0
BBX 14 28 2 0
BITMAP
03E0
03C0
0780
0F00
0000
FF80
FFE0
FFF0
F0F0
F078
F078
F078
F078
F078
F0F8
F1F0
FFE0
FFC0
FF80
F3C0
F1E0
F1E0
F0F0
F0F0
F078
F078
F07C
F03C
ENDCHAR
STARTCHAR racute
ENCODING 341
SWIDTH 293 0
DWIDTH 9 0
BBX 8 23 1 0
BITMAP
0E
1E
1C
1C
18
20
00
E7
EF
FF
F8
F0
F0
F0
F0
F0
F0
F0
F0
F0
F0
F0
F0
ENDCHAR
STARTCHAR Rcommaaccent
ENCODING 342
SWIDTH 503 0
DWIDTH 16 0
BBX 14 31 2 -8
BITMAP
FF80
FFE0
FFF0
F0F0
F078
F078
F078
F078
F078
F0F8
F1F0
FFE0
FFC0
FF80
F3C0
F1E0
F1E0
F0F0
F0F0
F078
F078
F07C
F03C
0000
0600
0F00
0F00
0700
0700
0E00
0400
ENDCHAR
STARTCHAR rcommaaccent
ENCODING 343
SWIDTH 293 0
DWIDTH 9 0
BBX 8 24 1 -8
BITMAP
E7
EF
FF
F8
F0
F0
F0
F0
F0
F0
F0
F0
F0
F0
F0
F0
00
30
78
78
78
38
70
20
ENDCHAR
STARTCHAR Rcaron
ENCODING 344
SWIDTH 503 0
DWIDTH 16 0
BBX 14 28 2 0
BITMAP
78E0
3DE0
1FC0
0F00
0000
FF80
FFE0
FFF0
F0F8
F078
F078
F078
F078
F078
F0F8
F0F0
FFF0
FFC0
FF80
F3C0
F1E0
F1E0
F0F0
F0F0
F078
F078
F07C
F03C
ENDCHAR
STARTCHAR rcaron
ENCODING 345
SWIDTH 293 0
DWIDTH 9 0
BBX 9 24 0 0
BITMAP
E380
F700
7600
7E00
3C00
3C00
0000
0000
7380
7780
7F80
7C00
7800
7800
7800
7800
7800
7800
7800
7800
7800
7800
7800
7800
ENDCHAR
STARTCHAR Sacute
ENCODING 346
SWIDTH 439 0
DWIDTH 14 0
BBX 12 28 1 0
BITMAP
01E0
03E0
0780
0700
0800
1FE0
3FF0
7FE0
F820
F000
F000
F000
F800
7C00
7E00
3F80
1FC0
07E0
03E0
01F0
00F0
00F0
00F0
00F0
41E0
7FE0
FFC0
3F00
ENDCHAR
STARTCHAR sacute
ENCODING 347
SWIDTH 350 0
DWIDTH 11 0
BBX 9 23 1 0
BITMAP
0F00
0F00
0E00
0C00
1C00
0000
0000
3F00
7F80
FF80
F100
F000
F000
FC00
7E00
3F00
1F80
0F80
0780
4780
7F80
FF00
7E00
ENDCHAR
STARTCHAR Scircumflex
ENCODING 348
SWIDTH 439 0
DWIDTH 14 0
BBX 12 28 1 0
BITMAP
0F00
3F80
7BC0
71E0
0000
1FE0
3FF0
7FE0
F820
F000
F000
F000
F800
7C00
7E00
3F80
1FC0
07E0
03E0
01F0
00F0
00F0
00F0
00F0
41E0
7FE0
FFC0
3F00
ENDCHAR
STARTCHAR scircumflex
ENCODING 349
SWIDTH 350 0
DWIDTH 11 0
BBX 9 24 1 0
BITMAP
1E00
1E00
3F00
3700
7380
6380
8000
0000
3F00
7F80
FF80
F100
F000
F000
FC00
7E00
3F00
1F80
0F80
0780
4780
7F80
FF00
7E00
ENDCHAR
STARTCHAR Scedilla
ENCODING 350
SWIDTH 439 0
DWIDTH 14 0
BBX 12 29 1 -6
BITMAP
1FE0
3FF0
7FE0
F820
F000
F000
F000
F800
7C00
7E00
3F80
1FC0
07E0
03E0
01F0
00F0
00F0
00F0
00F0
41E0
7FE0
FFC0
7F00
0E00
0F00
1F80
0780
1F80
1E00
ENDCHAR
STARTCHAR scedilla
ENCODING 351
SWIDTH 350 0
DWIDTH 11 0
BBX 9 22 1 -6
BITMAP
3F00
7F80
FF80
F100
F000
F000
FC00
7E00
3F00
1F80
0F80
0780
4780
7F80
FF00
7C00
3800
3C00
7E00
1E00
7E00
7800
ENDCHAR
STARTCHAR Scaron
ENCODING 352
SWIDTH 439 0
DWIDTH 14 0
BBX 12 28 1 0
BITMAP
71E0
7BC0
3F80
0F00
0000
1FE0
3FF0
7FE0
F820
F000
F000
F000
F800
7C00
7E00
3F80
1FC0
07E0
03E0
01F0
00F0
00F0
00F0
00F0
41E0
7FE0
FFC0
3F00
ENDCHAR
STARTCHAR scaron
ENCODING 353
SWIDTH 350 0
DWIDTH 11 0
BBX 9 24 1 0
BITMAP
F380
7300
7700
3E00
3E00
1C00
0000
0000
3F00
7F80
FF80
F100
F000
F000
FC00
7E00
3F00
1F80
0F80
0780
4780
7F80
FF00
7E00
ENDCHAR
STARTCHAR Tcedilla
ENCODING 354
SWIDTH 474 0
DWIDTH 15 0
BBX 14 29 1 -6
BITMAP
FFFC
FFFC
FFFC
0780
0780
0780
0780
0780
0780
0780
0780
0780
0780
0780
0780
0780
0780
0780
0780
0780
0780
0780
0780
0300
0780
0FC0
01C0
0FC0
0F00
ENDCHAR
STARTCHAR tcedilla
ENCODING 355
SWIDTH 291 0
DWIDTH 9 0
BBX 9 26 0 -6
BITMAP
0C00
3C00
3C00
3C00
FF80
FF80
FF80
3C00
3C00
3C00
3C00
3C00
3C00
3C00
3C00
3C00
3C00
3F80
3F80
1F80
0C00
1F00
0F80
0780
1F80
1E00
ENDCHAR
STARTCHAR Tcaron
ENCODING 356
SWIDTH 474 0
DWIDTH 16 0
BBX 14 28 1 0
BITMAP
38F0
3DE0
1FC0
0780
0000
FFFC
FFFC
FFFC
0780
0780
0780
0780
0780
0780
0780
0780
0780
0780
0780
0780
0780
0780
0780
0780
0780
0780
0780
0780
ENDCHAR
STARTCHAR tcaron
ENCODING 357
SWIDTH 291 0
DWIDTH 9 0
BBX 10 24 0 0
BITMAP
01C0
01C0
01C0
0180
0F80
3D00
3C00
3C00
FF80
FF80
FF80
3C00
3C00
3C00
3C00
3C00
3C00
3C00
3C00
3C00
3C00
3F80
1F80
1F80
ENDCHAR
STARTCHAR Umacron
ENCODING 362
SWIDTH 515 0
DWIDTH 17 0
BBX 13 28 2 0
BITMAP
3FE0
3FE0
3FE0
0000
0000
F078
F078
F078
F078
F078
F078
F078
F078
F078
F078
F078
F078
F078
F078
F078
F078
F078
F078
F078
78F0
7FF0
3FE0
0F80
ENDCHAR
STARTCHAR umacron
ENCODING 363
SWIDTH 446 0
DWIDTH 14 0
BBX 12 21 1 0
BITMAP
7FC0
7FC0
7FC0
0000
0000
F0F0
F0F0
F0F0
F0F0
F0F0
F0F0
F0F0
F0F0
F0F0
F0F0
F0F0
F0F0
F1F0
FFF0
7F70
3E70
ENDCHAR
STARTCHAR Ubreve
ENCODING 364
SWIDTH 515 0
DWIDTH 17 0
BBX 13 29 2 0
BITMAP
1020
3870
1FE0
0FE0
0780
0000
F078
F078
F078
F078
F078
F078
F078
F078
F078
F078
F078
F078
F078
F078
F078
F078
F078
F078
F078
78F0
7FF0
3FE0
0F80
ENDCHAR
STARTCHAR ubreve
ENCODING 365
SWIDTH 446 0
DWIDTH 14 0
BBX 12 23 1 0
BITMAP
3040
38E0
3FC0
1F80
0F00
0000
0000
F0F0
F0F0
F0F0
F0F0
F0F0
F0F0
F0F0
F0F0
F0F0
F0F0
F0F0
F0F0
F1F0
FFF0
7F70
3E70
ENDCHAR
STARTCHAR Uring
ENCODING 366
SWIDTH 515 0
DWIDTH 17 0
BBX 13 29 2 0
BITMAP
0F80
1FC0
18C0
18C0
1FC0
0F80
F078
F078
F078
F078
F078
F078
F078
F078
F078
F078
F078
F078
F078
F078
F078
F078
F078
F078
F078
78F0
7FF0
3FE0
0F80
ENDCHAR
STARTCHAR uring
ENCODING 367
SWIDTH 446 0
DWIDTH 14 0
BBX 12 24 1 0
BITMAP
0F00
1F80
1980
1980
1F80
0F00
0000
0000
F0F0
F0F0
F0F0
F0F0
F0F0
F0F0
F0F0
F0F0
F0F0
F0F0
F0F0
F0F0
F1F0
FFF0
7F70
3E70
ENDCHAR
STARTCHAR Uhungarumlaut
ENCODING 368
SWIDTH 515 0
DWIDTH 17 0
BBX 14 27 2 0
BITMAP
0F7C
0EF0
1DE0
0000
F078
F078
F078
F078
F078
F078
F078
F078
F078
F078
F078
F078
F078
F078
F078
F078
F078
F078
F078
78F0
7FF0
3FE0
0F80
ENDCHAR
STARTCHAR uhungarumlaut
ENCODING 369
SWIDTH 446 0
DWIDTH 14 0
BBX 12 22 1 0
BITMAP
1CF0
19E0
39C0
3380
0000
0000
F0F0
F0F0
F0F0
F0F0
F0F0
F0F0
F0F0
F0F0
F0F0
F0F0
F0F0
F0F0
F1F0
FFF0
7F70
3E70
ENDCHAR
STARTCHAR Uogonek
ENCODING 370
SWIDTH 515 0
DWIDTH 17 0
BBX 13 29 2 -6
BITMAP
F078
F078
F078
F078
F078
F078
F078
F078
F078
F078
F078
F078
F078
F078
F078
F078
F078
F078
F078
78F0
7FF0
3FE0
0FC0
0380
0780
0780
07E0
07E0
03C0
ENDCHAR
STARTCHAR uogonek
ENCODING 371
SWIDTH 446 0
DWIDTH 14 0
BBX 13 22 1 -6
BITMAP
F0F0
F0F0
F0F0
F0F0
F0F0
F0F0
F0F0
F0F0
F0F0
F0F0
F0F0
F0F0
F1F0
FFF0
7F70
3E70
00E0
01E0
01E0
01F8
01F8
00F0
ENDCHAR
STARTCHAR Ydieresis
ENCODING 376
SWIDTH 495 0
DWIDTH 16 0
BBX 16 28 0 0
BITMAP
0E38
1E78
1E78
0E38
0000
F80F
781E
781E
7C1E
3C3C
3C3C
1E38
1E78
0E70
0F70
0F70
07E0
07E0
03C0
03C0
03C0
03C0
03C0
03C0
03C0
03C0
03C0
03C0
ENDCHAR
STARTCHAR Zacute
ENCODING 377
SWIDTH 445 0
DWIDTH 15 0
BBX 13 28 1 0
BITMAP
03E0
03E0
0780
0700
0800
FFF8
FFF8
FFF8
0078
00F0
00F0
01E0
01E0
03C0
07C0
0780
0F80
0F00
1F00
1E00
3C00
3C00
7800
7800
F000
FFF8
FFF8
FFF8
ENDCHAR
STARTCHAR zacute
ENCODING 378
SWIDTH 381 0
DWIDTH 12 0
BBX 10 23 1 0
BITMAP
0780
0700
0F00
0E00
0C00
0000
0000
FFC0
FFC0
FFC0
03C0
0780
0F80
0F00
1F00
1E00
3C00
7C00
7800
F000
FFC0
FFC0
FFC0
ENDCHAR
STARTCHAR Zdotaccent
ENCODING 379
SWIDTH 445 0
DWIDTH 15 0
BBX 13 28 1 0
BITMAP
0700
0F80
0F80
0700
0000
FFF8
FFF8
FFF8
0078
00F0
00F0
01E0
01E0
03C0
07C0
0780
0F80
0F00
1F00
1E00
3C00
3C00
7800
7800
F000
FFF8
FFF8
FFF8
ENDCHAR
STARTCHAR zdotaccent
ENCODING 380
SWIDTH 381 0
DWIDTH 12 0
BBX 10 23 1 0
BITMAP
0E00
1F00
1F00
0E00
0000
0000
0000
FFC0
FFC0
FFC0
03C0
0780
0F80
0F00
1F00
1E00
3C00
7C00
7800
F000
FFC0
FFC0
FFC0
ENDCHAR
STARTCHAR Zcaron
ENCODING 381
SWIDTH 445 0
DWIDTH 15 0
BBX 13 28 1 0
BITMAP
78E0
3DE0
1FC0
0F00
0000
FFF8
FFF8
FFF8
0078
00F0
00F0
01E0
01E0
03C0
07C0
0780
0F80
0F00
1F00
1E00
3C00
3C00
7800
7800
F000
FFF8
FFF8
FFF8
ENDCHAR
STARTCHAR zcaron
ENCODING 382
SWIDTH 381 0
DWIDTH 12 0
BBX 10 24 1 0
BITMAP
71C0
7380
3B00
3F00
1E00
1E00
0000
0000
FFC0
FFC0
FFC0
03C0
0780
0F80
0F00
1F00
1E00
3C00
7C00
7800
F000
FFC0
FFC0
FFC0
ENDCHAR
STARTCHAR longs
ENCODING 383
SWIDTH 219 0
DWIDTH 7 0
BBX 10 23 0 0
BITMAP
0FC0
1FC0
1F80
3C00
3C00
3C00
3C00
FC00
FC00
FC00
3C00
3C00
3C00
3C00
3C00
3C00
3C00
3C00
3C00
3C00
3C00
3C00
3C00
ENDCHAR
STARTCHAR florin
ENCODING 402
SWIDTH 478 0
DWIDTH 15 0
BBX 17 29 -2 -6
BITMAP
003F00
007F80
00FF80
00F100
00F000
00F000
00F000
07FE00
07FE00
07FE00
01E000
01E000
01E000
01E000
03C000
03C000
03C000
03C000
03C000
03C000
03C000
038000
078000
078000
078000
8F8000
FF0000
FF0000
7E0000
ENDCHAR
STARTCHAR uni01F4
ENCODING 500
SWIDTH 502 0
DWIDTH 17 0
BBX 14 28 1 0
BITMAP
007C
00F8
00F0
01C0
0000
03F0
0FF8
1FF8
3E10
7C00
7800
7800
F000
F000
F000
F000
F1FC
F1FC
F1FC
F01C
F01C
781C
781C
7C1C
3E3C
3FFC
1FF8
07E0
ENDCHAR
STARTCHAR uni01F5
ENCODING 501
SWIDTH 443 0
DWIDTH 14 0
BBX 12 29 1 -6
BITMAP
03C0
03C0
0380
0300
0700
0000
0000
0FE0
3FF0
7FF0
78F0
F0F0
F0F0
F0F0
F0F0
F0F0
F0F0
F0F0
F0F0
F9F0
7FF0
7FF0
1EF0
00F0
00F0
21F0
7FE0
7FC0
3F80
ENDCHAR
STARTCHAR Scommaaccent
ENCODING 536
SWIDTH 439 0
DWIDTH 14 0
BBX 12 31 1 -8
BITMAP
1FE0
3FF0
7FE0
F820
F000
F000
F000
F800
7C00
7E00
3F80
1FC0
07E0
03E0
01F0
00F0
00F0
00F0
00F0
41E0
7FE0
FFC0
7F00
0000
0E00
0F00
0F00
0F00
0600
0E00
0400
ENDCHAR
STARTCHAR scommaaccent
ENCODING 537
SWIDTH 350 0
DWIDTH 11 0
BBX 9 24 1 -8
BITMAP
3F00
7F80
FF80
F100
F000
F000
FC00
7E00
3F00
1F80
0F80
0780
4780
7F80
FF00
7E00
0000
1C00
1C00
1E00
1C00
1C00
1C00
1800
ENDCHAR
STARTCHAR Tcommaaccent
ENCODING 538
SWIDTH 473 0
DWIDTH 15 0
BBX 14 31 1 -8
BITMAP
FFFC
FFFC
FFFC
0780
0780
0780
0780
0780
0780
0780
0780
0780
0780
0780
0780
0780
0780
0780
0780
0780
0780
0780
0780
0000
0380
0780
0780
0380
0380
0780
0200
ENDCHAR
STARTCHAR tcommaaccent
ENCODING 539
SWIDTH 291 0
DWIDTH 9 0
BBX 9 28 0 -8
BITMAP
0C00
3C00
3C00
3C00
FF80
FF80
FF80
3C00
3C00
3C00
3C00
3C00
3C00
3C00
3C00
3C00
3C00
3F80
1F80
1F80
0000
0C00
1E00
1E00
1E00
0E00
1C00
0800
ENDCHAR
STARTCHAR uni0237
ENCODING 567
SWIDTH 225 0
DWIDTH 8 0
BBX 6 22 0 -6
BITMAP
3C
3C
3C
3C
3C
3C
3C
3C
3C
3C
3C
3C
3C
3C
3C
3C
3C
3C
7C
FC
F8
F0
ENDCHAR
STARTCHAR afii57929
ENCODING 700
SWIDTH 188 0
DWIDTH 6 0
BBX 4 8 1 15
BITMAP
60
F0
F0
F0
70
60
E0
40
ENDCHAR
STARTCHAR circumflex
ENCODING 710
SWIDTH 397 0
DWIDTH 13 0
BBX 9 6 2 18
BITMAP
1C00
3E00
3600
7700
7700
E380
ENDCHAR
STARTCHAR caron
ENCODING 711
SWIDTH 404 0
DWIDTH 13 0
BBX 9 6 2 18
BITMAP
E380
7700
7700
3600
3E00
1C00
ENDCHAR
STARTCHAR breve
ENCODING 728
SWIDTH 410 0
DWIDTH 13 0
BBX 9 5 2 18
BITMAP
4100
E380
FF80
7F00
3E00
ENDCHAR
STARTCHAR dotaccent
ENCODING 729
SWIDTH 270 0
DWIDTH 9 0
BBX 5 4 2 19
BITMAP
70
F8
F8
70
ENDCHAR
STARTCHAR ring
ENCODING 730
SWIDTH 315 0
DWIDTH 10 0
BBX 6 6 2 18
BITMAP
78
FC
CC
CC
FC
78
ENDCHAR
STARTCHAR ogonek
ENCODING 731
SWIDTH 321 0
DWIDTH 10 0
BBX 6 6 2 -6
BITMAP
78
F0
F0
FC
FC
78
ENDCHAR
STARTCHAR tilde
ENCODING 732
SWIDTH 415 0
DWIDTH 13 0
BBX 9 4 2 19
BITMAP
3900
FF80
FF80
8F00
ENDCHAR
STARTCHAR hungarumlaut
ENCODING 733
SWIDTH 417 0
DWIDTH 13 0
BBX 10 4 2 18
BITMAP
73C0
6780
E700
CE00
ENDCHAR
STARTCHAR acutecomb
ENCODING 769
SWIDTH 2 0
DWIDTH 0 0
BBX 5 5 -11 18
BITMAP
78
78
70
E0
C0
ENDCHAR
STARTCHAR uni0394
ENCODING 916
SWIDTH 486 0
DWIDTH 16 0
BBX 15 23 1 0
BITMAP
0380
0380
0780
07C0
07C0
07C0
0EE0
0EE0
0EE0
1EF0
1EF0
1C70
1C70
3C78
3C78
3838
783C
783C
701C
F01E
FFFE
FFFE
FFFE
ENDCHAR
STARTCHAR uni03A9
ENCODING 937
SWIDTH 633 0
DWIDTH 20 0
BBX 17 23 2 0
BITMAP
07F000
0FF800
3FFE00
3C3E00
780F00
780F00
F00780
F00780
F00780
F00780
F00780
F00780
F00780
F80F80
780F00
7C1F00
7E3F00
3F7E00
1F7C00
077000
FF7F80
FF7F80
FF7F80
ENDCHAR
STARTCHAR mu.dup1
ENCODING 956
SWIDTH 476 0
DWIDTH 15 0
BBX 13 22 1 -6
BITMAP
F078
F078
F078
F078
F078
F078
F078
F078
F078
F078
F078
F078
F8F8
FFF8
FFB8
FF38
F000
F000
F000
F000
F000
F000
ENDCHAR
STARTCHAR pi
ENCODING 960
SWIDTH 578 0
DWIDTH 19 0
BBX 18 16 0 0
BITMAP
3FFF80
FFFF80
FFFF80
4F1E00
0F1E00
0F1E00
0F1E00
0F1E00
0F1E00
0F1E00
0F1E00
0F1E00
0F1E00
0F1FC0
0F1FC0
0F0F80
ENDCHAR
STARTCHAR afii10023
ENCODING 1025
SWIDTH 430 0
DWIDTH 14 0
BBX 11 28 2 0
BITMAP
6180
F3C0
F3C0
E380
0000
FFE0
FFE0
FFE0
F000
F000
F000
F000
F000
F000
F000
FFC0
FFC0
FFC0
F000
F000
F000
F000
F000
F000
F000
FFE0
FFE0
FFE0
ENDCHAR
STARTCHAR afii10051
ENCODING 1026
SWIDTH 615 0
DWIDTH 19 0
BBX 18 23 0 0
BITMAP
FFFC00
FFFC00
FFFC00
078000
078000
078000
078000
078000
07BE00
07FF00
07FF80
078780
0783C0
0783C0
0783C0
0783C0
0783C0
0783C0
0787C0
078780
07BF80
07BF00
07BE00
ENDCHAR
STARTCHAR afii10052
ENCODING 1027
SWIDTH 381 0
DWIDTH 12 0
BBX 10 28 2 0
BITMAP
07C0
0780
0F00
1E00
0000
FFC0
FFC0
FFC0
F000
F000
F000
F000
F000
F000
F000
F000
F000
F000
F000
F000
F000
F000
F000
F000
F000
F000
F000
F000
ENDCHAR
STARTCHAR afii10053
ENCODING 1028
SWIDTH 475 0
DWIDTH 15 0
BBX 13 23 1 0
BITMAP
07F0
0FF8
3FF8
3E10
7C00
7800
7800
F000
F000
F000
FFE0
FFE0
FFE0
F000
F000
F000
7800
7800
7C00
3E10
3FF8
1FF8
07F0
ENDCHAR
STARTCHAR afii10054
ENCODING 1029
SWIDTH 439 0
DWIDTH 14 0
BBX 12 23 1 0
BITMAP
1FE0
3FF0
7FE0
F820
F000
F000
F000
F800
7C00
7E00
3F80
1FC0
07E0
03E0
01F0
00F0
00F0
00F0
00F0
41E0
7FE0
FFC0
3F00
ENDCHAR
STARTCHAR afii10055
ENCODING 1030
SWIDTH 238 0
DWIDTH 8 0
BBX 4 23 2 0
BITMAP
F0
F0
F0
F0
F0
F0
F0
F0
F0
F0
F0
F0
F0
F0
F0
F0
F0
F0
F0
F0
F0
F0
F0
ENDCHAR
STARTCHAR afii10056
ENCODING 1031
SWIDTH 245 0
DWIDTH 8 0
BBX 7 28 1 0
BITMAP
EE
EE
EE
EE
00
78
78
78
78
78
78
78
78
78
78
78
78
78
78
78
78
78
78
78
78
78
78
78
ENDCHAR
STARTCHAR afii10057
ENCODING 1032
SWIDTH 289 0
DWIDTH 10 0
BBX 8 23 0 0
BITMAP
0F
0F
0F
0F
0F
0F
0F
0F
0F
0F
0F
0F
0F
0F
0F
0F
0F
0F
0F
1F
7E
FE
FC
ENDCHAR
STARTCHAR afii10058
ENCODING 1033
SWIDTH 775 0
DWIDTH 25 0
BBX 24 23 0 0
BITMAP
0FFE00
0FFE00
0FFE00
0F1E00
0F1E00
0F1E00
0F1E00
0F1E00
0E1FF0
0E1FFC
0E1FFE
0E1E1E
0E1E1F
1E1E0F
1E1E0F
1E1E0F
1E1E0F
1E1E0F
1C1E1F
3C1E3E
FC1FFE
F81FFC
F01FF0
ENDCHAR
STARTCHAR afii10059
ENCODING 1034
SWIDTH 792 0
DWIDTH 26 0
BBX 23 23 2 0
BITMAP
F03C00
F03C00
F03C00
F03C00
F03C00
F03C00
F03C00
F03C00
F03FF0
F03FF8
FFFFFC
FFFC3C
FFFC1E
F03C1E
F03C1E
F03C1E
F03C1E
F03C1E
F03C3E
F03C3C
F03FFC
F03FF8
F03FE0
ENDCHAR
STARTCHAR afii10060
ENCODING 1035
SWIDTH 631 0
DWIDTH 20 0
BBX 18 23 0 0
BITMAP
FFFC00
FFFC00
FFFC00
078000
078000
078000
078000
078000
079E00
07FF80
07FF80
07C7C0
0783C0
0783C0
0783C0
0783C0
0783C0
0783C0
0783C0
0783C0
0783C0
0783C0
0783C0
ENDCHAR
STARTCHAR afii10061
ENCODING 1036
SWIDTH 519 0
DWIDTH 17 0
BBX 15 28 2 0
BITMAP
03E0
07C0
0780
0E00
0000
F07C
F078
F0F0
F0F0
F1E0
F1E0
F3C0
F3C0
F780
F780
FF00
FF00
FF80
F7C0
F3C0
F3E0
F1E0
F1F0
F0F0
F0F8
F078
F07C
F03E
ENDCHAR
STARTCHAR afii10062
ENCODING 1038
SWIDTH 475 0
DWIDTH 15 0
BBX 15 28 0 0
BITMAP
3C78
3FF8
1FF0
0FE0
0000
F01E
F81E
781E
781C
7C3C
3C3C
3C38
1E78
1E78
1E70
0F70
0F70
07E0
07E0
03E0
03E0
03C0
03C0
03C0
0380
1F80
3F00
3E00
ENDCHAR
STARTCHAR afii10145
ENCODING 1039
SWIDTH 524 0
DWIDTH 17 0
BBX 13 29 2 -6
BITMAP
F078
F078
F078
F078
F078
F078
F078
F078
F078
F078
F078
F078
F078
F078
F078
F078
F078
F078
F078
F078
FFF8
FFF8
FFF8
0780
0780
0780
0780
0780
0380
ENDCHAR
STARTCHAR afii10017
ENCODING 1040
SWIDTH 501 0
DWIDTH 16 0
BBX 16 23 0 0
BITMAP
03C0
03C0
03C0
07E0
07E0
07E0
07E0
0FF0
0E70
0E70
1E78
1E78
1C38
1C38
3FFC
3FFC
3FFC
381C
781E
701E
700E
F00F
F00F
ENDCHAR
STARTCHAR afii10018
ENCODING 1041
SWIDTH 476 0
DWIDTH 16 0
BBX 13 23 2 0
BITMAP
FFF0
FFF0
FFF0
F000
F000
F000
F000
F000
FF80
FFE0
FFF0
F0F0
F0F8
F078
F078
F078
F078
F078
F0F8
F0F0
FFF0
FFE0
FF80
ENDCHAR
STARTCHAR afii10019
ENCODING 1042
SWIDTH 490 0
DWIDTH 16 0
BBX 13 23 2 0
BITMAP
FF80
FFE0
FFE0
F1F0
F0F0
F0F0
F0F0
F0F0
F1F0
F1E0
FFC0
FFC0
FFF0
F0F0
F078
F078
F078
F078
F078
F0F0
FFF0
FFE0
FF80
ENDCHAR
STARTCHAR afii10020
ENCODING 1043
SWIDTH 381 0
DWIDTH 12 0
BBX 10 23 2 0
BITMAP
FFC0
FFC0
FFC0
F000
F000
F000
F000
F000
F000
F000
F000
F000
F000
F000
F000
F000
F000
F000
F000
F000
F000
F000
F000
ENDCHAR
STARTCHAR afii10021
ENCODING 1044
SWIDTH 576 0
DWIDTH 19 0
BBX 18 27 0 -4
BITMAP
07FF00
07FF00
07FF00
078F00
078F00
070F00
070F00
070F00
070F00
070F00
070F00
0F0F00
0F0F00
0F0F00
0F0F00
0F0F00
1E0F00
1E0F00
1E0F00
1E0F00
FFFFC0
FFFFC0
FFFFC0
E001C0
E001C0
E001C0
E001C0
ENDCHAR
STARTCHAR afii10022
ENCODING 1045
SWIDTH 430 0
DWIDTH 14 0
BBX 11 23 2 0
BITMAP
FFE0
FFE0
FFE0
F000
F000
F000
F000
F000
F000
F000
FFC0
FFC0
FFC0
F000
F000
F000
F000
F000
F000
F000
FFE0
FFE0
FFE0
ENDCHAR
STARTCHAR afii10024
ENCODING 1046
SWIDTH 701 0
DWIDTH 22 0
BBX 22 23 0 0
BITMAP
F0783C
787878
787878
7C7878
3C78F0
3C78F0
1E79E0
1E79E0
1E7BC0
0F7BC0
0FFF80
07FF80
07FFC0
0F7BC0
0F79E0
1E79E0
1E79E0
3C78F0
3C78F0
3C78F8
787878
787878
F0787C
ENDCHAR
STARTCHAR afii10025
ENCODING 1047
SWIDTH 435 0
DWIDTH 14 0
BBX 13 23 0 0
BITMAP
1F80
7FE0
3FE0
21F0
00F0
00F0
00F0
00F0
01E0
1FC0
1FC0
1FF0
01F0
00F8
0078
0078
0078
0078
00F8
41F0
7FF0
FFE0
7F80
ENDCHAR
STARTCHAR afii10026
ENCODING 1048
SWIDTH 547 0
DWIDTH 18 0
BBX 14 23 2 0
BITMAP
F01C
F03C
F03C
F07C
F07C
F0FC
F0FC
F1FC
F1FC
F3BC
F3BC
F73C
F73C
F73C
FE3C
FE3C
FC3C
FC3C
F83C
F83C
F03C
F03C
E03C
ENDCHAR
STARTCHAR afii10027
ENCODING 1049
SWIDTH 547 0
DWIDTH 18 0
BBX 14 28 2 0
BITMAP
3C78
3FF8
1FF0
0FE0
0000
F01C
F03C
F03C
F07C
F07C
F0FC
F0FC
F1FC
F1FC
F3BC
F3BC
F73C
F73C
F73C
FE3C
FE3C
FC3C
FC3C
F83C
F83C
F03C
F03C
E03C
ENDCHAR
STARTCHAR afii10028
ENCODING 1050
SWIDTH 519 0
DWIDTH 17 0
BBX 15 23 2 0
BITMAP
F07C
F078
F0F0
F0F0
F1E0
F1E0
F3C0
F3C0
F780
F780
FF00
FF00
FF80
F7C0
F3C0
F3E0
F1E0
F1F0
F0F0
F0F8
F078
F07C
F03E
ENDCHAR
STARTCHAR afii10029
ENCODING 1051
SWIDTH 517 0
DWIDTH 17 0
BBX 15 23 0 0
BITMAP
0FFE
0FFE
0FFE
0F1E
0F1E
0F1E
0F1E
0F1E
0E1E
0E1E
0E1E
0E1E
0E1E
1E1E
1E1E
1E1E
1E1E
1E1E
1C1E
3C1E
FC1E
F81E
F01E
ENDCHAR
STARTCHAR afii10030
ENCODING 1052
SWIDTH 664 0
DWIDTH 21 0
BBX 18 23 2 0
BITMAP
F003C0
F003C0
F803C0
F807C0
F807C0
FC0FC0
FC0FC0
FE1FC0
FE1FC0
FF1BC0
F73BC0
F73BC0
F3B3C0
F3F3C0
F3E3C0
F1E3C0
F1E3C0
F0C3C0
F0C3C0
F003C0
F003C0
F003C0
F003C0
ENDCHAR
STARTCHAR afii10031
ENCODING 1053
SWIDTH 533 0
DWIDTH 18 0
BBX 14 23 2 0
BITMAP
F03C
F03C
F03C
F03C
F03C
F03C
F03C
F03C
F03C
F03C
FFFC
FFFC
FFFC
F03C
F03C
F03C
F03C
F03C
F03C
F03C
F03C
F03C
F03C
ENDCHAR
STARTCHAR afii10032
ENCODING 1054
SWIDTH 553 0
DWIDTH 18 0
BBX 16 23 1 0
BITMAP
07E0
1FF8
3FFC
3C3C
781E
781E
F81E
F00F
F00F
F00F
F00F
F00F
F00F
F00F
F00F
F00F
F81E
781E
781E
3C3C
3FFC
1FF8
07E0
ENDCHAR
STARTCHAR afii10033
ENCODING 1055
SWIDTH 524 0
DWIDTH 17 0
BBX 13 23 2 0
BITMAP
FFF8
FFF8
FFF8
F078
F078
F078
F078
F078
F078
F078
F078
F078
F078
F078
F078
F078
F078
F078
F078
F078
F078
F078
F078
ENDCHAR
STARTCHAR afii10034
ENCODING 1056
SWIDTH 477 0
DWIDTH 16 0
BBX 13 23 2 0
BITMAP
FF80
FFE0
FFF0
F1F0
F0F8
F078
F078
F078
F078
F078
F0F8
F1F0
FFF0
FFE0
FF80
F000
F000
F000
F000
F000
F000
F000
F000
ENDCHAR
STARTCHAR afii10035
ENCODING 1057
SWIDTH 457 0
DWIDTH 15 0
BBX 13 23 1 0
BITMAP
07F0
0FF8
3FF8
3E10
7C00
7800
7800
F000
F000
F000
F000
F000
F000
F000
F000
F000
7800
7800
7C00
3E10
3FF8
1FF8
07F0
ENDCHAR
STARTCHAR afii10036
ENCODING 1058
SWIDTH 474 0
DWIDTH 16 0
BBX 14 23 1 0
BITMAP
FFFC
FFFC
FFFC
0780
0780
0780
0780
0780
0780
0780
0780
0780
0780
0780
0780
0780
0780
0780
0780
0780
0780
0780
0780
ENDCHAR
STARTCHAR afii10037
ENCODING 1059
SWIDTH 475 0
DWIDTH 15 0
BBX 15 23 0 0
BITMAP
F01E
F81E
781E
781C
7C3C
3C3C
3C38
1E78
1E78
1E70
0F70
0F70
07E0
07E0
03E0
03E0
03C0
03C0
03C0
0380
1F80
3F00
3E00
ENDCHAR
STARTCHAR afii10038
ENCODING 1060
SWIDTH 670 0
DWIDTH 22 0
BBX 20 24 1 0
BITMAP
00F000
00F000
00F000
0FFF00
3FFFC0
3FFFE0
7CF1E0
78F1E0
F0F0F0
F0F0F0
F0F0F0
F0F0F0
F0F0F0
F0F0F0
F0F0F0
F0F0F0
78F1E0
78F3E0
7FFFC0
3FFFC0
1FFF00
00F000
00F000
00F000
ENDCHAR
STARTCHAR afii10039
ENCODING 1061
SWIDTH 528 0
DWIDTH 17 0
BBX 15 23 1 0
BITMAP
F81E
783C
783C
3C38
3C78
3E78
1E70
1EF0
0FE0
0FE0
07C0
07C0
0FE0
0EE0
0EF0
1EF0
1CF8
3C78
3C78
783C
783C
F03E
F01E
ENDCHAR
STARTCHAR afii10040
ENCODING 1062
SWIDTH 563 0
DWIDTH 18 0
BBX 15 27 2 -4
BITMAP
F078
F078
F078
F078
F078
F078
F078
F078
F078
F078
F078
F078
F078
F078
F078
F078
F078
F078
F078
F078
FFFE
FFFE
FFFE
000E
000E
000E
000E
ENDCHAR
STARTCHAR afii10041
ENCODING 1063
SWIDTH 503 0
DWIDTH 17 0
BBX 14 23 1 0
BITMAP
F03C
F03C
F03C
F03C
F03C
F03C
F03C
F03C
F03C
F03C
F03C
F87C
7FFC
7FFC
1F3C
003C
003C
003C
003C
003C
003C
003C
003C
ENDCHAR
STARTCHAR afii10042
ENCODING 1064
SWIDTH 706 0
DWIDTH 22 0
BBX 18 23 2 0
BITMAP
F1E3C0
F1E3C0
F1E3C0
F1E3C0
F1E3C0
F1E3C0
F1E3C0
F1E3C0
F1E3C0
F1E3C0
F1E3C0
F1E3C0
F1E3C0
F1E3C0
F1E3C0
F1E3C0
F1E3C0
F1E3C0
F1E3C0
F1E3C0
FFFFC0
FFFFC0
FFFFC0
ENDCHAR
STARTCHAR afii10043
ENCODING 1065
SWIDTH 752 0
DWIDTH 23 0
BBX 20 27 2 -4
BITMAP
F1E3C0
F1E3C0
F1E3C0
F1E3C0
F1E3C0
F1E3C0
F1E3C0
F1E3C0
F1E3C0
F1E3C0
F1E3C0
F1E3C0
F1E3C0
F1E3C0
F1E3C0
F1E3C0
F1E3C0
F1E3C0
F1E3C0
F1E3C0
FFFFF0
FFFFF0
FFFFF0
000070
000070
000070
000070
ENDCHAR
STARTCHAR afii10044
ENCODING 1066
SWIDTH 556 0
DWIDTH 18 0
BBX 17 23 0 0
BITMAP
FF0000
FF0000
FF0000
0F0000
0F0000
0F0000
0F0000
0F0000
0FF800
0FFE00
0FFF00
0F0F00
0F0F80
0F0780
0F0780
0F0780
0F0780
0F0780
0F0F80
0F1F00
0FFF00
0FFE00
0FF800
ENDCHAR
STARTCHAR afii10045
ENCODING 1067
SWIDTH 668 0
DWIDTH 22 0
BBX 18 23 2 0
BITMAP
F003C0
F003C0
F003C0
F003C0
F003C0
F003C0
F003C0
F003C0
FF83C0
FFC3C0
FFE3C0
F1E3C0
F0F3C0
F0F3C0
F0F3C0
F0F3C0
F0F3C0
F0F3C0
F0F3C0
F1E3C0
FFE3C0
FFC3C0
FF03C0
ENDCHAR
STARTCHAR afii10046
ENCODING 1068
SWIDTH 475 0
DWIDTH 16 0
BBX 13 23 2 0
BITMAP
F000
F000
F000
F000
F000
F000
F000
F000
FF80
FFE0
FFF0
F0F0
F0F8
F078
F078
F078
F078
F078
F0F8
F1F0
FFF0
FFE0
FF80
ENDCHAR
STARTCHAR afii10047
ENCODING 1069
SWIDTH 477 0
DWIDTH 16 0
BBX 14 23 1 0
BITMAP
3F00
FFE0
FFF0
41F0
00F8
0078
0078
003C
003C
003C
1FFC
1FFC
1FFC
003C
003C
003C
0078
0078
00F8
41F0
7FE0
FFC0
7F00
ENDCHAR
STARTCHAR afii10048
ENCODING 1070
SWIDTH 743 0
DWIDTH 24 0
BBX 21 23 2 0
BITMAP
F01F00
F07FC0
F0FFE0
F1F1E0
F1E0F0
F1E0F0
F3C078
F3C078
F3C078
FFC078
FFC078
FFC078
F3C078
F3C078
F3C078
F3C078
F1C078
F1E0F0
F1E0F0
F0F1E0
F0FFE0
F07FC0
F01F00
ENDCHAR
STARTCHAR afii10049
ENCODING 1071
SWIDTH 486 0
DWIDTH 16 0
BBX 13 23 1 0
BITMAP
07F8
1FF8
3FF8
3C78
7878
7878
7878
7878
7878
7878
7C78
3FF8
1FF8
0FF8
0F78
1E78
1E78
3E78
3C78
7C78
7878
7878
F078
ENDCHAR
STARTCHAR afii10065
ENCODING 1072
SWIDTH 413 0
DWIDTH 13 0
BBX 11 16 1 0
BITMAP
1F80
7FC0
7FE0
21E0
01E0
01E0
01E0
1FE0
7FE0
FFE0
F9E0
F1E0
F1E0
FFE0
7EE0
3CE0
ENDCHAR
STARTCHAR afii10066
ENCODING 1073
SWIDTH 445 0
DWIDTH 14 0
BBX 12 24 1 0
BITMAP
0020
03E0
1FE0
3FE0
7F80
7800
7000
F000
E780
EFC0
FFE0
F9F0
F0F0
F0F0
F0F0
F0F0
F0F0
F0F0
F0F0
70F0
79E0
7FE0
3FC0
0F00
ENDCHAR
STARTCHAR afii10067
ENCODING 1074
SWIDTH 418 0
DWIDTH 13 0
BBX 11 16 1 0
BITMAP
FF00
FF80
FFC0
F3C0
F3C0
F3C0
FF80
FF80
FFC0
F1E0
F1E0
F1E0
F1E0
FFE0
FFC0
FF00
ENDCHAR
STARTCHAR afii10068
ENCODING 1075
SWIDTH 309 0
DWIDTH 10 0
BBX 9 16 1 0
BITMAP
FF80
FF80
FF80
F000
F000
F000
F000
F000
F000
F000
F000
F000
F000
F000
F000
F000
ENDCHAR
STARTCHAR afii10069
ENCODING 1076
SWIDTH 476 0
DWIDTH 15 0
BBX 14 20 0 -4
BITMAP
0FF8
0FF8
0FF8
0E78
0E78
0E78
0E78
1E78
1E78
1E78
1C78
3C78
3C78
FFFC
FFFC
FFFC
E01C
E01C
E01C
E01C
ENDCHAR
STARTCHAR afii10070
ENCODING 1077
SWIDTH 428 0
DWIDTH 13 0
BBX 11 16 1 0
BITMAP
1F00
3FC0
7FC0
79E0
F1E0
F1E0
FFE0
FFE0
FFE0
F000
F000
F000
7840
7FE0
3FE0
1F80
ENDCHAR
STARTCHAR afii10072
ENCODING 1078
SWIDTH 582 0
DWIDTH 18 0
BBX 18 16 0 0
BITMAP
F1E3C0
71E380
79E780
79E700
39E700
3DEF00
1FFE00
0FFE00
1FFE00
3DEF00
3DEF00
39E780
79E780
79E780
F1E3C0
F1E3C0
ENDCHAR
STARTCHAR afii10073
ENCODING 1079
SWIDTH 354 0
DWIDTH 12 0
BBX 10 16 1 0
BITMAP
7E00
FF00
FF80
4780
0780
0780
3F00
3F00
3F80
07C0
03C0
03C0
47C0
FF80
FF80
7E00
ENDCHAR
STARTCHAR afii10074
ENCODING 1080
SWIDTH 450 0
DWIDTH 14 0
BBX 12 16 1 0
BITMAP
F070
F0F0
F0F0
F1F0
F1F0
F3F0
F3F0
F7F0
F6F0
FEF0
FCF0
F8F0
F8F0
F0F0
F0F0
E0F0
ENDCHAR
STARTCHAR afii10075
ENCODING 1081
SWIDTH 450 0
DWIDTH 14 0
BBX 12 23 1 0
BITMAP
18C0
39E0
3FC0
1FC0
0F00
0000
0000
F070
F0F0
F0F0
F1F0
F1F0
F3F0
F3F0
F7F0
F6F0
FEF0
FCF0
F8F0
F8F0
F0F0
F0F0
E0F0
ENDCHAR
STARTCHAR afii10076
ENCODING 1082
SWIDTH 409 0
DWIDTH 13 0
BBX 12 16 1 0
BITMAP
F0F0
F1E0
F1C0
F3C0
F380
F780
FF00
FF00
FF80
F780
F3C0
F3C0
F1C0
F1E0
F1E0
F0F0
ENDCHAR
STARTCHAR afii10077
ENCODING 1083
SWIDTH 433 0
DWIDTH 14 0
BBX 13 16 0 0
BITMAP
1FF8
1FF8
1FF8
1C78
1C78
1C78
1C78
1C78
1C78
1C78
3C78
3C78
3878
F878
F878
F078
ENDCHAR
STARTCHAR afii10078
ENCODING 1084
SWIDTH 555 0
DWIDTH 17 0
BBX 15 16 1 0
BITMAP
F01E
F03E
F83E
F87E
FC7E
FC7E
FEFE
EEDE
EFDE
E7DE
E79E
E39E
E31E
E01E
E01E
E01E
ENDCHAR
STARTCHAR afii10079
ENCODING 1085
SWIDTH 444 0
DWIDTH 14 0
BBX 12 16 1 0
BITMAP
F0F0
F0F0
F0F0
F0F0
F0F0
F0F0
FFF0
FFF0
FFF0
F0F0
F0F0
F0F0
F0F0
F0F0
F0F0
F0F0
ENDCHAR
STARTCHAR afii10080
ENCODING 1086
SWIDTH 445 0
DWIDTH 14 0
BBX 12 16 1 0
BITMAP
1F80
3FC0
7FE0
79E0
F0F0
F0F0
F0F0
F0F0
F0F0
F0F0
F0F0
F0F0
79E0
7FE0
3FC0
1F80
ENDCHAR
STARTCHAR afii10081
ENCODING 1087
SWIDTH 440 0
DWIDTH 14 0
BBX 12 16 1 0
BITMAP
FFF0
FFF0
FFF0
F0F0
F0F0
F0F0
F0F0
F0F0
F0F0
F0F0
F0F0
F0F0
F0F0
F0F0
F0F0
F0F0
ENDCHAR
STARTCHAR afii10082
ENCODING 1088
SWIDTH 447 0
DWIDTH 14 0
BBX 12 22 1 -6
BITMAP
E780
EFE0
FFE0
F9F0
F0F0
F0F0
F0F0
F0F0
F0F0
F0F0
F0F0
F1F0
F1E0
FFE0
FFC0
FF80
F000
F000
F000
F000
F000
F000
ENDCHAR
STARTCHAR afii10083
ENCODING 1089
SWIDTH 350 0
DWIDTH 11 0
BBX 9 16 1 0
BITMAP
1F00
3F80
7F80
7900
F000
F000
F000
F000
F000
F000
F000
F800
7900
7F80
3F80
1F00
ENDCHAR
STARTCHAR afii10084
ENCODING 1090
SWIDTH 345 0
DWIDTH 12 0
BBX 11 16 1 0
BITMAP
FFE0
FFE0
FFE0
1E00
1E00
1E00
1E00
1E00
1E00
1E00
1E00
1E00
1E00
1E00
1E00
1E00
ENDCHAR
STARTCHAR afii10085
ENCODING 1091
SWIDTH 400 0
DWIDTH 13 0
BBX 13 22 0 -6
BITMAP
F878
F878
7870
78F0
7CF0
3CF0
3CE0
3CE0
1DE0
1FC0
1FC0
0FC0
0FC0
0F80
0780
0780
0700
0700
0F00
1E00
3E00
3C00
ENDCHAR
STARTCHAR afii10086
ENCODING 1092
SWIDTH 585 0
DWIDTH 18 0
BBX 16 29 1 -6
BITMAP
03C0
03C0
03C0
03C0
03C0
03C0
03C0
1FF8
3FFE
7FFE
7BDF
F3CF
F3CF
F3CF
F3CF
F3CF
F3CF
F3CF
F3CF
FBDE
7FFE
7FFC
1FF8
03C0
03C0
03C0
03C0
03C0
03C0
ENDCHAR
STARTCHAR afii10087
ENCODING 1093
SWIDTH 439 0
DWIDTH 14 0
BBX 14 16 0 0
BITMAP
F87C
7878
3C70
3CF0
1EE0
1FE0
0FC0
0FC0
0FC0
1FE0
1FE0
3CF0
3CF0
7878
7878
F03C
ENDCHAR
STARTCHAR afii10088
ENCODING 1094
SWIDTH 464 0
DWIDTH 14 0
BBX 13 20 1 -4
BITMAP
F1E0
F1E0
F1E0
F1E0
F1E0
F1E0
F1E0
F1E0
F1E0
F1E0
F1E0
F1E0
F1E0
FFF8
FFF8
FFF8
0038
0038
0038
0038
ENDCHAR
STARTCHAR afii10089
ENCODING 1095
SWIDTH 419 0
DWIDTH 13 0
BBX 11 16 1 0
BITMAP
F1E0
F1E0
F1E0
F1E0
F1E0
F1E0
F1E0
F1E0
FFE0
7FE0
3DE0
01E0
01E0
01E0
01E0
01E0
ENDCHAR
STARTCHAR afii10090
ENCODING 1096
SWIDTH 627 0
DWIDTH 20 0
BBX 18 16 1 0
BITMAP
F1E3C0
F1E3C0
F1E3C0
F1E3C0
F1E3C0
F1E3C0
F1E3C0
F1E3C0
F1E3C0
F1E3C0
F1E3C0
F1E3C0
F1E3C0
FFFFC0
FFFFC0
FFFFC0
ENDCHAR
STARTCHAR afii10091
ENCODING 1097
SWIDTH 653 0
DWIDTH 21 0
BBX 20 20 1 -4
BITMAP
F1E3C0
F1E3C0
F1E3C0
F1E3C0
F1E3C0
F1E3C0
F1E3C0
F1E3C0
F1E3C0
F1E3C0
F1E3C0
F1E3C0
F1E3C0
FFFFF0
FFFFF0
FFFFF0
000070
000070
000070
000070
ENDCHAR
STARTCHAR afii10092
ENCODING 1098
SWIDTH 454 0
DWIDTH 15 0
BBX 14 16 0 0
BITMAP
FE00
FE00
FE00
1E00
1E00
1FF0
1FF8
1FFC
1E7C
1E3C
1E3C
1E3C
1E7C
1FF8
1FF8
1FE0
ENDCHAR
STARTCHAR afii10093
ENCODING 1099
SWIDTH 591 0
DWIDTH 18 0
BBX 16 16 1 0
BITMAP
F00F
F00F
F00F
F00F
F00F
FF8F
FFCF
FFEF
F3EF
F1EF
F1EF
F1EF
F3EF
FFCF
FFCF
FF0F
ENDCHAR
STARTCHAR afii10094
ENCODING 1100
SWIDTH 411 0
DWIDTH 13 0
BBX 11 16 1 0
BITMAP
F000
F000
F000
F000
F000
FF80
FFC0
FFE0
F3E0
F1E0
F1E0
F1E0
F3E0
FFC0
FFC0
FF00
ENDCHAR
STARTCHAR afii10095
ENCODING 1101
SWIDTH 377 0
DWIDTH 12 0
BBX 10 16 1 0
BITMAP
7E00
FF00
FF80
4780
03C0
03C0
03C0
3FC0
3FC0
3FC0
03C0
03C0
4780
FF80
FF00
7E00
ENDCHAR
STARTCHAR afii10096
ENCODING 1102
SWIDTH 611 0
DWIDTH 20 0
BBX 18 16 1 0
BITMAP
F07E00
F0FF00
F1FF80
F1E780
F3C3C0
F3C3C0
FFC3C0
FFC3C0
FFC3C0
F3C3C0
F3C3C0
F3C3C0
F1E780
F1FF80
F0FF00
F07E00
ENDCHAR
STARTCHAR afii10097
ENCODING 1103
SWIDTH 421 0
DWIDTH 13 0
BBX 12 16 0 0
BITMAP
0FF0
3FF0
3FF0
7CF0
78F0
78F0
78F0
7CF0
3FF0
1FF0
1EF0
3CF0
3CF0
78F0
78F0
F8F0
ENDCHAR
STARTCHAR afii10071
ENCODING 1105
SWIDTH 428 0
DWIDTH 13 0
BBX 11 22 1 0
BITMAP
30C0
79E0
79E0
30C0
0000
0000
1F00
3FC0
7FC0
79E0
F1E0
F1E0
FFE0
FFE0
FFE0
F000
F000
F000
7840
7FE0
3FE0
1F80
ENDCHAR
STARTCHAR afii10099
ENCODING 1106
SWIDTH 457 0
DWIDTH 15 0
BBX 14 29 0 -6
BITMAP
3C00
3C00
3C00
FFC0
FFC0
FFC0
3C00
3C00
3CF0
3DF8
3FFC
3E7C
3C3C
3C3C
3C3C
3C3C
3C3C
3C3C
3C3C
3C3C
3C3C
3C3C
3C3C
003C
003C
007C
00FC
00F8
00F0
ENDCHAR
STARTCHAR afii10100
ENCODING 1107
SWIDTH 309 0
DWIDTH 10 0
BBX 9 23 1 0
BITMAP
0F00
0F00
0E00
0C00
1C00
0000
0000
FF80
FF80
FF80
F000
F000
F000
F000
F000
F000
F000
F000
F000
F000
F000
F000
F000
ENDCHAR
STARTCHAR afii10101
ENCODING 1108
SWIDTH 371 0
DWIDTH 12 0
BBX 10 16 1 0
BITMAP
0F80
3FC0
7FC0
7880
F800
F000
F000
FF00
FF00
FF00
F000
F000
7880
7FC0
3FC0
1F80
ENDCHAR
STARTCHAR afii10102
ENCODING 1109
SWIDTH 350 0
DWIDTH 11 0
BBX 9 16 1 0
BITMAP
3F00
7F80
FF80
F100
F000
F000
FC00
7E00
3F00
1F80
0F80
0780
4780
7F80
FF00
7E00
ENDCHAR
STARTCHAR afii10103
ENCODING 1110
SWIDTH 225 0
DWIDTH 8 0
BBX 5 23 2 0
BITMAP
78
F8
F8
78
00
00
00
F0
F0
F0
F0
F0
F0
F0
F0
F0
F0
F0
F0
F0
F0
F0
F0
ENDCHAR
STARTCHAR afii10104
ENCODING 1111
SWIDTH 274 0
DWIDTH 8 0
BBX 7 22 1 0
BITMAP
EE
EE
EE
EE
00
00
78
78
78
78
78
78
78
78
78
78
78
78
78
78
78
78
ENDCHAR
STARTCHAR afii10105
ENCODING 1112
SWIDTH 225 0
DWIDTH 8 0
BBX 6 29 0 -6
BITMAP
3C
7C
7C
3C
00
00
00
3C
3C
3C
3C
3C
3C
3C
3C
3C
3C
3C
3C
3C
3C
3C
3C
3C
3C
7C
FC
F8
F0
ENDCHAR
STARTCHAR afii10106
ENCODING 1113
SWIDTH 639 0
DWIDTH 20 0
BBX 20 16 -1 0
BITMAP
1FF800
1FF800
1FF800
1C7800
1C7800
1C7FC0
1C7FE0
1C7FF0
1C79F0
1C78F0
3C78F0
3C78F0
3879F0
F87FE0
F87FE0
F07F80
ENDCHAR
STARTCHAR afii10107
ENCODING 1114
SWIDTH 651 0
DWIDTH 21 0
BBX 19 16 1 0
BITMAP
F0F000
F0F000
F0F000
F0F000
F0F000
F0FF80
FFFFC0
FFFFE0
FFF3E0
F0F1E0
F0F1E0
F0F1E0
F0F3E0
F0FFC0
F0FFC0
F0FF00
ENDCHAR
STARTCHAR afii10108
ENCODING 1115
SWIDTH 457 0
DWIDTH 15 0
BBX 14 23 0 0
BITMAP
3C00
3C00
3C00
FFC0
FFC0
FFC0
3C00
3C00
3CF0
3FF8
3FFC
3E7C
3C3C
3C3C
3C3C
3C3C
3C3C
3C3C
3C3C
3C3C
3C3C
3C3C
3C3C
ENDCHAR
STARTCHAR afii10109
ENCODING 1116
SWIDTH 409 0
DWIDTH 13 0
BBX 12 23 1 0
BITMAP
0780
0780
0700
0600
0E00
0000
0000
F0F0
F1E0
F1C0
F3C0
F380
F780
FF00
FF00
FF80
F780
F3C0
F3C0
F1C0
F1E0
F1E0
F0F0
ENDCHAR
STARTCHAR afii10110
ENCODING 1118
SWIDTH 400 0
DWIDTH 13 0
BBX 13 29 0 -6
BITMAP
18C0
3CE0
3FE0
1FC0
0F80
0000
0000
F878
F878
7870
78F0
7CF0
3CF0
3CE0
3CE0
1DE0
1FC0
1FC0
0FC0
0FC0
0F80
0780
0780
0700
0700
0F00
1E00
3E00
3C00
ENDCHAR
STARTCHAR afii10193
ENCODING 1119
SWIDTH 438 0
DWIDTH 14 0
BBX 12 22 1 -6
BITMAP
F0F0
F0F0
F0F0
F0F0
F0F0
F0F0
F0F0
F0F0
F0F0
F0F0
F0F0
F0F0
F0F0
FFF0
FFF0
FFF0
0E00
0E00
0E00
0E00
0E00
0E00
ENDCHAR
STARTCHAR afii10146
ENCODING 1122
SWIDTH 545 0
DWIDTH 18 0
BBX 17 24 0 0
BITMAP
0F0000
0F0000
0F0000
FFF800
FFF800
FFF800
0F0000
0F0000
0F0000
0FF800
0FFE00
0FFF00
0F0F00
0F0F80
0F0780
0F0780
0F0780
0F0780
0F0780
0F0F80
0F1F00
0FFF00
0FFE00
0FF800
ENDCHAR
STARTCHAR afii10194
ENCODING 1123
SWIDTH 454 0
DWIDTH 15 0
BBX 14 23 0 0
BITMAP
1E00
1E00
1E00
1E00
1E00
1E00
1E00
FFE0
FFE0
FFE0
1E00
1E00
1FF0
1FF8
1FFC
1E7C
1E3C
1E3C
1E3C
1E7C
1FF8
1FF8
1FE0
ENDCHAR
STARTCHAR afii10147
ENCODING 1138
SWIDTH 552 0
DWIDTH 18 0
BBX 16 23 1 0
BITMAP
07E0
1FF8
3FFC
3C3C
781E
781E
F81E
F00F
F00F
F00F
FFFF
FFFF
FFFF
F00F
F00F
F00F
F80E
781E
781E
3C3C
3FFC
1FF8
07E0
ENDCHAR
STARTCHAR afii10195
ENCODING 1139
SWIDTH 445 0
DWIDTH 14 0
BBX 12 16 1 0
BITMAP
1F80
3FC0
7FE0
79E0
F0F0
F0F0
FFF0
FFF0
FFF0
F0F0
F0F0
F0F0
79E0
7FE0
3FC0
0F80
ENDCHAR
STARTCHAR afii10148
ENCODING 1140
SWIDTH 528 0
DWIDTH 17 0
BBX 19 23 -1 0
BITMAP
F803E0
7807E0
780FC0
780F00
7C0E00
3C1E00
3C1E00
3E1C00
1E1C00
1E3C00
1E3C00
0F3800
0F3800
0F7800
0F7000
077000
07F000
07F000
03E000
03E000
03E000
01E000
01C000
ENDCHAR
STARTCHAR afii10196
ENCODING 1141
SWIDTH 436 0
DWIDTH 14 0
BBX 14 16 0 0
BITMAP
F83C
F87C
787C
78F0
3CE0
3CE0
3DE0
1DC0
1DC0
1FC0
0F80
0F80
0F80
0780
0700
0700
ENDCHAR
STARTCHAR uni048A
ENCODING 1162
SWIDTH 589 0
DWIDTH 19 0
BBX 17 32 2 -4
BITMAP
3C7000
3FF000
1FE000
0FC000
000000
F01C00
F03C00
F03C00
F07C00
F07C00
F0FC00
F0FC00
F1FC00
F1FC00
F3BC00
F3BC00
F73C00
F73C00
F73C00
FE3C00
FE3C00
FC3C00
FC3C00
F83C00
F83C00
F03F80
F03F80
E03F00
000700
000F00
000E00
000E00
ENDCHAR
STARTCHAR uni048B
ENCODING 1163
SWIDTH 491 0
DWIDTH 15 0
BBX 14 27 1 -4
BITMAP
3180
79C0
7FC0
3F80
1F00
0000
0000
F070
F0F0
F0F0
F1F0
F1F0
F3F0
F3F0
F7F0
F6F0
FEF0
FCF0
F8F0
F8F0
F0FC
F0FC
E0F8
0038
0038
0030
0070
ENDCHAR
STARTCHAR uni048C
ENCODING 1164
SWIDTH 545 0
DWIDTH 18 0
BBX 17 24 0 0
BITMAP
0F0000
0F0000
0F0000
FFF800
FFF800
FFF800
0F0000
0F0000
0F0000
0FF800
0FFE00
0FFF00
0F0F00
0F0F80
0F0780
0F0780
0F0780
0F0780
0F0780
0F0F80
0F1F00
0FFF00
0FFE00
0FF800
ENDCHAR
STARTCHAR uni048D
ENCODING 1165
SWIDTH 454 0
DWIDTH 15 0
BBX 14 23 0 0
BITMAP
1E00
1E00
1E00
1E00
1E00
1E00
1E00
FFE0
FFE0
FFE0
1E00
1E00
1FF0
1FF8
1FFC
1E7C
1E3C
1E3C
1E3C
1E7C
1FF8
1FF8
1FE0
ENDCHAR
STARTCHAR uni048E
ENCODING 1166
SWIDTH 477 0
DWIDTH 16 0
BBX 13 23 2 0
BITMAP
FF80
FFE0
FFF0
F1F0
F0F8
F078
F078
F478
F678
F778
F3F8
F1F0
FFF0
FFE0
FFF0
F078
F030
F020
F000
F000
F000
F000
F000
ENDCHAR
STARTCHAR uni048F
ENCODING 1167
SWIDTH 447 0
DWIDTH 14 0
BBX 12 22 1 -6
BITMAP
E780
EFE0
FFE0
F9F0
F0F0
F0F0
F0F0
F0F0
F0F0
F0F0
F2F0
F7F0
F3E0
FFE0
FFE0
FFF0
F060
F040
F000
F000
F000
F000
ENDCHAR
STARTCHAR afii10050
ENCODING 1168
SWIDTH 381 0
DWIDTH 12 0
BBX 10 28 2 0
BITMAP
01C0
01C0
01C0
01C0
01C0
FFC0
FFC0
FFC0
F000
F000
F000
F000
F000
F000
F000
F000
F000
F000
F000
F000
F000
F000
F000
F000
F000
F000
F000
F000
ENDCHAR
STARTCHAR afii10098
ENCODING 1169
SWIDTH 309 0
DWIDTH 10 0
BBX 9 21 1 0
BITMAP
0380
0380
0380
0380
0380
FF80
FF80
FF80
F000
F000
F000
F000
F000
F000
F000
F000
F000
F000
F000
F000
F000
ENDCHAR
STARTCHAR uni0492
ENCODING 1170
SWIDTH 424 0
DWIDTH 13 0
BBX 13 23 0 0
BITMAP
1FF8
1FF8
1FF8
1E00
1E00
1E00
1E00
1E00
1E00
1E00
FFF0
FFF0
FFF0
1E00
1E00
1E00
1E00
1E00
1E00
1E00
1E00
1E00
1E00
ENDCHAR
STARTCHAR uni0493
ENCODING 1171
SWIDTH 338 0
DWIDTH 11 0
BBX 11 16 0 0
BITMAP
3FE0
3FE0
3FE0
3C00
3C00
3C00
3C00
FFC0
FFC0
FFC0
3C00
3C00
3C00
3C00
3C00
3C00
ENDCHAR
STARTCHAR uni0494
ENCODING 1172
SWIDTH 485 0
DWIDTH 16 0
BBX 13 26 2 -3
BITMAP
FFE0
FFE0
FFE0
F000
F000
F000
F000
F000
F000
F000
F7C0
FFE0
FFF0
F0F0
F0F8
F078
F078
F078
F078
F078
F078
F0F8
F0F0
07F0
07E0
07C0
ENDCHAR
STARTCHAR uni0495
ENCODING 1173
SWIDTH 443 0
DWIDTH 14 0
BBX 12 22 1 -6
BITMAP
FF80
FF80
FF80
F000
F000
F000
F000
FF80
FFE0
FFE0
F1F0
F0F0
F0F0
F0F0
F0F0
F0F0
00F0
00F0
01E0
0FE0
0FC0
0F80
ENDCHAR
STARTCHAR uni0496
ENCODING 1174
SWIDTH 726 0
DWIDTH 23 0
BBX 23 27 0 -4
BITMAP
F0783C
787878
787878
7C7878
3C78F0
3C78F0
1E79E0
1E79E0
1E7BC0
0F7BC0
0FFF80
07FF80
07FFC0
0F7BC0
0F79E0
1E79E0
1E78F0
3C78F0
3C78F0
3C7878
78787E
78783E
F0783E
00000E
00000E
00000E
00000E
ENDCHAR
STARTCHAR uni0497
ENCODING 1175
SWIDTH 612 0
DWIDTH 19 0
BBX 19 20 0 -4
BITMAP
F1E3C0
79E780
79E780
79E780
3DEF00
3DEF00
1FFE00
0FFE00
1FFE00
3DEF00
3DEF00
39E780
79E780
79E7E0
F1E3E0
F1E3E0
0000E0
0000E0
0000E0
0000E0
ENDCHAR
STARTCHAR uni0498
ENCODING 1176
SWIDTH 435 0
DWIDTH 14 0
BBX 13 28 0 -5
BITMAP
1F80
7FE0
3FE0
21F0
00F0
00F0
00F0
00F0
01E0
1FC0
1FC0
1FF0
01F0
00F8
0078
0078
0078
0078
00F8
41F0
7FF0
FFE0
7F80
0E00
0E00
0E00
0E00
0E00
ENDCHAR
STARTCHAR uni0499
ENCODING 1177
SWIDTH 354 0
DWIDTH 12 0
BBX 10 21 1 -5
BITMAP
7E00
FF00
FF80
4780
0780
0780
3F00
3F00
3F80
07C0
03C0
03C0
47C0
FF80
FF80
7E00
1C00
1C00
1C00
1C00
1C00
ENDCHAR
STARTCHAR uni049A
ENCODING 1178
SWIDTH 534 0
DWIDTH 17 0
BBX 15 27 2 -4
BITMAP
F03C
F078
F078
F0F0
F0F0
F1E0
F1E0
F3C0
F380
F780
FF00
FF00
FF80
F3C0
F3C0
F1C0
F1E0
F0E0
F0F0
F0F0
F07E
F07E
F03E
000E
000E
000E
000E
ENDCHAR
STARTCHAR uni049B
ENCODING 1179
SWIDTH 440 0
DWIDTH 14 0
BBX 12 20 2 -4
BITMAP
F1E0
F3C0
F3C0
F780
F780
F700
FE00
FF00
FF00
F780
F780
F380
F3C0
F3F0
F1F0
F1F0
0070
0070
0070
0070
ENDCHAR
STARTCHAR uni049C
ENCODING 1180
SWIDTH 604 0
DWIDTH 19 0
BBX 17 23 2 0
BITMAP
F00F00
F01E00
F01E00
F01C00
F03C00
F03C00
F77800
F77800
F77000
F7F000
FFE000
FFF000
FFF000
F77800
F77800
F73C00
F73C00
F03E00
F01E00
F01E00
F00F00
F00F00
F00780
ENDCHAR
STARTCHAR uni049D
ENCODING 1181
SWIDTH 491 0
DWIDTH 15 0
BBX 14 16 1 0
BITMAP
F03C
F038
F078
F670
F6F0
F6E0
FFC0
FFE0
FFE0
F6F0
F6F0
F670
F678
F078
F038
F03C
ENDCHAR
STARTCHAR uni049E
ENCODING 1182
SWIDTH 579 0
DWIDTH 18 0
BBX 18 23 0 0
BITMAP
1E0780
1E0F00
FF8F00
FF8E00
FF9E00
1E1C00
1E3C00
1E3800
1E7800
1E7000
1FE000
1FF000
1FF800
1E7800
1E7C00
1E3C00
1E3E00
1E1E00
1E1F00
1E0F00
1E0F80
1E0780
1E07C0
ENDCHAR
STARTCHAR uni049F
ENCODING 1183
SWIDTH 419 0
DWIDTH 14 0
BBX 14 23 0 0
BITMAP
3C00
3C00
3C00
FFC0
FFC0
FFC0
3C00
3C3C
3C78
3C70
3CF0
3CE0
3DE0
3F80
3FC0
3FE0
3DE0
3CE0
3CF0
3C70
3C78
3C78
3C3C
ENDCHAR
STARTCHAR uni04A0
ENCODING 1184
SWIDTH 604 0
DWIDTH 19 0
BBX 19 23 0 0
BITMAP
FF03C0
FF0780
FF0780
0F0F00
0F0F00
0F1E00
0F1C00
0F3C00
0F3800
0F7800
0FF000
0FF000
0FF800
0F3C00
0F3C00
0F1E00
0F1E00
0F0F00
0F0F80
0F0780
0F07C0
0F03C0
0F03E0
ENDCHAR
STARTCHAR uni04A1
ENCODING 1185
SWIDTH 453 0
DWIDTH 15 0
BBX 15 16 0 0
BITMAP
FE1E
FE3C
FE38
1E78
1E70
1EF0
1FC0
1FE0
1FF0
1EF0
1E78
1E78
1E78
1E3C
1E3C
1E1E
ENDCHAR
STARTCHAR uni04A2
ENCODING 1186
SWIDTH 575 0
DWIDTH 19 0
BBX 16 27 2 -4
BITMAP
F03C
F03C
F03C
F03C
F03C
F03C
F03C
F03C
F03C
F03C
FFFC
FFFC
FFFC
F03C
F03C
F03C
F03C
F03C
F03C
F03C
F03F
F03F
F03F
0007
0007
0007
0007
ENDCHAR
STARTCHAR uni04A3
ENCODING 1187
SWIDTH 472 0
DWIDTH 15 0
BBX 14 20 1 -4
BITMAP
F0F0
F0F0
F0F0
F0F0
F0F0
F0F0
FFF0
FFF0
FFF0
F0F0
F0F0
F0F0
F0F0
F0FC
F0FC
F0FC
001C
001C
001C
001C
ENDCHAR
STARTCHAR uni04A4
ENCODING 1188
SWIDTH 697 0
DWIDTH 22 0
BBX 20 23 2 0
BITMAP
F03FF0
F03FF0
F03FF0
F03C00
F03C00
F03C00
F03C00
F03C00
F03C00
F03C00
FFFC00
FFFC00
FFFC00
F03C00
F03C00
F03C00
F03C00
F03C00
F03C00
F03C00
F03C00
F03C00
F03C00
ENDCHAR
STARTCHAR uni04A5
ENCODING 1189
SWIDTH 546 0
DWIDTH 17 0
BBX 16 16 1 0
BITMAP
F0FF
F0FF
F0FF
F0F0
F0F0
F0F0
FFF0
FFF0
FFF0
F0F0
F0F0
F0F0
F0F0
F0F0
F0F0
F0F0
ENDCHAR
STARTCHAR uni04A6
ENCODING 1190
SWIDTH 791 0
DWIDTH 25 0
BBX 22 26 2 -3
BITMAP
FFF800
FFF800
FFF800
F07800
F07800
F07800
F07800
F07800
F07800
F07800
F07BE0
F07FF0
F07FF8
F07878
F0787C
F0783C
F0783C
F0783C
F0783C
F0783C
F0783C
F0787C
F07878
0003F8
0003F0
0003E0
ENDCHAR
STARTCHAR uni04A7
ENCODING 1191
SWIDTH 677 0
DWIDTH 22 0
BBX 20 22 1 -6
BITMAP
FFF000
FFF000
FFF000
F0F000
F0F000
F0F000
F0F000
F0FF80
F0FFE0
F0FFE0
F0F1F0
F0F0F0
F0F0F0
F0F0F0
F0F0F0
F0F0F0
0000F0
0000F0
0001E0
000FE0
000FC0
000F80
ENDCHAR
STARTCHAR uni04A8
ENCODING 1192
SWIDTH 742 0
DWIDTH 23 0
BBX 22 23 1 0
BITMAP
070000
1F0F80
3F1FE0
3C3FE0
7878F0
7878F0
F0F078
F0F078
F0F078
F0F078
F0F078
F0F078
F0F078
F0F078
F0F8F8
F8F8F0
7878F0
7C7DE0
7C3FE0
3F3FC8
1FFFF8
0FFFFC
03F0F8
ENDCHAR
STARTCHAR uni04A9
ENCODING 1193
SWIDTH 598 0
DWIDTH 19 0
BBX 18 16 1 0
BITMAP
0C7C00
3CFE00
7DFF00
79EF80
F3C780
F3C780
F3C780
F3C780
F3C780
F3C780
F3EF00
F9EF00
79FE80
7FFFC0
3FFFC0
0FCF80
ENDCHAR
STARTCHAR uni04AA
ENCODING 1194
SWIDTH 457 0
DWIDTH 15 0
BBX 13 28 1 -5
BITMAP
07F0
0FF8
1FF8
3E10
7C00
7800
7800
F000
F000
F000
F000
F000
F000
F000
F000
F000
F800
7800
7C00
7E10
3FF8
1FF8
0FF0
0380
0380
0380
0380
0380
ENDCHAR
STARTCHAR uni04AB
ENCODING 1195
SWIDTH 350 0
DWIDTH 11 0
BBX 9 21 1 -5
BITMAP
1F00
3F80
7F80
7900
F000
F000
F000
F000
F000
F000
F000
F800
7900
7F80
3F80
1F00
0E00
0E00
0E00
0E00
0E00
ENDCHAR
STARTCHAR uni04AC
ENCODING 1196
SWIDTH 474 0
DWIDTH 16 0
BBX 14 27 1 -4
BITMAP
FFFC
FFFC
FFFC
0780
0780
0780
0780
0780
0780
0780
0780
0780
0780
0780
0780
0780
0780
0780
0780
0780
07E0
07E0
07E0
00E0
00E0
00E0
00E0
ENDCHAR
STARTCHAR uni04AD
ENCODING 1197
SWIDTH 345 0
DWIDTH 12 0
BBX 11 20 1 -4
BITMAP
FFE0
FFE0
FFE0
1E00
1E00
1E00
1E00
1E00
1E00
1E00
1E00
1E00
1E00
1F80
1F80
1F80
0380
0380
0380
0380
ENDCHAR
STARTCHAR uni04AE
ENCODING 1198
SWIDTH 495 0
DWIDTH 16 0
BBX 16 23 0 0
BITMAP
F80F
781E
781E
7C1E
3C3C
3C3C
1E38
1E78
0E70
0F70
0F70
07E0
07E0
03C0
03C0
03C0
03C0
03C0
03C0
03C0
03C0
03C0
03C0
ENDCHAR
STARTCHAR uni04AF
ENCODING 1199
SWIDTH 408 0
DWIDTH 14 0
BBX 14 22 0 -6
BITMAP
F03C
7838
7878
7878
3870
3C70
3CF0
3CF0
1EE0
1EE0
1EE0
0FC0
0FC0
0FC0
0780
0780
0780
0780
0780
0780
0780
0780
ENDCHAR
STARTCHAR uni04B0
ENCODING 1200
SWIDTH 495 0
DWIDTH 16 0
BBX 16 23 0 0
BITMAP
F80F
781E
781E
3C1C
3C3C
3E3C
1E38
1E78
0F70
0F70
07E0
07E0
07E0
3FFC
3FFC
3FFC
03C0
03C0
03C0
03C0
03C0
03C0
03C0
ENDCHAR
STARTCHAR uni04B1
ENCODING 1201
SWIDTH 408 0
DWIDTH 14 0
BBX 14 22 0 -6
BITMAP
F03C
7838
7878
7878
3870
3C70
3CF0
3CF0
1EE0
1EE0
1EE0
0FC0
0FC0
0FC0
0780
0780
3FF0
3FF0
3FF0
0780
0780
0780
ENDCHAR
STARTCHAR uni04B2
ENCODING 1202
SWIDTH 558 0
DWIDTH 18 0
BBX 17 27 1 -4
BITMAP
F01E00
F81E00
783C00
7C3C00
3C7800
3C7800
1E7000
1EF000
1EE000
0FE000
0FC000
07C000
0FE000
0FE000
1EF000
1EF000
3CF800
3C7800
383C00
783C00
781F80
F01F80
F00F80
000380
000380
000380
000380
ENDCHAR
STARTCHAR uni04B3
ENCODING 1203
SWIDTH 455 0
DWIDTH 15 0
BBX 15 20 0 -4
BITMAP
F87C
7878
3CF0
3CF0
1EE0
1FE0
0FC0
0FC0
0FC0
1FE0
1FE0
3CF0
3CF8
787E
787E
F03E
000E
000E
000E
000E
ENDCHAR
STARTCHAR uni04B4
ENCODING 1204
SWIDTH 692 0
DWIDTH 21 0
BBX 20 27 0 -4
BITMAP
FFF3C0
FFF3C0
FFF3C0
0783C0
0783C0
0783C0
0783C0
0783C0
0783C0
0783C0
0783C0
0783C0
0783C0
0783C0
0783C0
0783C0
0783C0
0783C0
0783C0
0783C0
07FFF0
07FFF0
07FFF0
000070
000070
000070
000070
ENDCHAR
STARTCHAR uni04B5
ENCODING 1205
SWIDTH 538 0
DWIDTH 17 0
BBX 17 20 0 -4
BITMAP
FFDE00
FFDE00
FFDE00
0F1E00
0F1E00
0F1E00
0F1E00
0F1E00
0F1E00
0F1E00
0F1E00
0F1E00
0F1E00
0FFF80
0FFF80
0FFF80
000380
000380
000380
000380
ENDCHAR
STARTCHAR uni04B6
ENCODING 1206
SWIDTH 545 0
DWIDTH 18 0
BBX 16 27 1 -4
BITMAP
F03C
F03C
F03C
F03C
F03C
F03C
F03C
F03C
F03C
F03C
F03C
F87C
7FFC
7FFC
1F3C
003C
003C
003C
003C
003C
003F
003F
003F
0007
0007
0007
0007
ENDCHAR
STARTCHAR uni04B7
ENCODING 1207
SWIDTH 453 0
DWIDTH 14 0
BBX 13 20 1 -4
BITMAP
F1E0
F1E0
F1E0
F1E0
F1E0
F1E0
F1E0
F1E0
FFE0
7FE0
3DE0
01E0
01E0
01F8
01F8
01F8
0038
0038
0038
0038
ENDCHAR
STARTCHAR uni04B8
ENCODING 1208
SWIDTH 543 0
DWIDTH 18 0
BBX 15 23 1 0
BITMAP
F01E
F01E
F01E
F01E
F01E
F01E
F01E
F01E
F39E
F39E
F39E
FBBE
7FFE
7FFE
1F9E
039E
039E
039E
039E
001E
001E
001E
001E
ENDCHAR
STARTCHAR uni04B9
ENCODING 1209
SWIDTH 456 0
DWIDTH 14 0
BBX 12 16 1 0
BITMAP
F0F0
F0F0
F0F0
F0F0
F6F0
F6F0
F6F0
F6F0
FFF0
7FF0
3EF0
06F0
06F0
06F0
00F0
00F0
ENDCHAR
STARTCHAR uni04BA
ENCODING 1210
SWIDTH 506 0
DWIDTH 17 0
BBX 13 23 2 0
BITMAP
F000
F000
F000
F000
F000
F000
F000
F000
F3E0
FFF0
FFF0
F8F8
F078
F078
F078
F078
F078
F078
F078
F078
F078
F078
F078
ENDCHAR
STARTCHAR uni04BB
ENCODING 1211
SWIDTH 449 0
DWIDTH 14 0
BBX 12 23 1 0
BITMAP
F000
F000
F000
F000
F000
F000
F000
F3C0
FFE0
FFF0
F9F0
F0F0
F0F0
F0F0
F0F0
F0F0
F0F0
F0F0
F0F0
F0F0
F0F0
F0F0
F0F0
ENDCHAR
STARTCHAR uni04BC
ENCODING 1212
SWIDTH 667 0
DWIDTH 21 0
BBX 20 23 0 0
BITMAP
003F00
00FF80
01FFC0
01E3E0
03C1E0
03C0F0
F780F0
E780F0
E780F0
E780F0
FFFFF0
7FFFF0
3FFFF0
078000
078000
078000
07C000
03C000
03C040
01F0C0
01FFE0
00FFE0
003F00
ENDCHAR
STARTCHAR uni04BD
ENCODING 1213
SWIDTH 543 0
DWIDTH 17 0
BBX 16 16 0 0
BITMAP
0078
01FE
03FE
73CF
E78F
E78F
E78F
FFFF
7FFF
3FFF
0780
0780
03C2
03FF
01FF
00FC
ENDCHAR
STARTCHAR uni04BE
ENCODING 1214
SWIDTH 667 0
DWIDTH 21 0
BBX 20 28 0 -5
BITMAP
003F00
00FF80
01FFC0
01E3E0
03C1E0
03C0F0
F780F0
E780F0
E780F0
E780F0
FFFFF0
7FFFF0
3FFFF0
078000
078000
078000
07C000
03C000
03C040
03F0C0
01FFE0
00FFE0
007F00
001C00
001C00
001C00
001C00
001C00
ENDCHAR
STARTCHAR uni04BF
ENCODING 1215
SWIDTH 543 0
DWIDTH 17 0
BBX 16 21 0 -5
BITMAP
00F8
01FE
73FE
E3CF
E78F
E78F
FFFF
7FFF
3FFF
0780
0780
0780
03C2
03FF
01FF
00FC
0070
0070
0070
0070
0070
ENDCHAR
STARTCHAR uni04C0
ENCODING 1216
SWIDTH 238 0
DWIDTH 8 0
BBX 4 23 2 0
BITMAP
F0
F0
F0
F0
F0
F0
F0
F0
F0
F0
F0
F0
F0
F0
F0
F0
F0
F0
F0
F0
F0
F0
F0
ENDCHAR
STARTCHAR uni04C3
ENCODING 1219
SWIDTH 512 0
DWIDTH 17 0
BBX 14 29 2 -6
BITMAP
F07C
F078
F0F0
F0F0
F0E0
F1E0
F1C0
F3C0
F380
F700
FF80
FFE0
FFF0
F1F0
F0F0
F0F8
F078
F078
F078
F078
F078
F078
F078
0078
00F8
00F0
03F0
03E0
03C0
ENDCHAR
STARTCHAR uni04C4
ENCODING 1220
SWIDTH 418 0
DWIDTH 13 0
BBX 12 22 1 -6
BITMAP
F0F0
F1E0
F1C0
F3C0
F380
F780
FE00
FF80
FFC0
F3E0
F1E0
F1E0
F1E0
F1E0
F1E0
F1E0
01E0
01E0
03C0
0FC0
0F80
0F00
ENDCHAR
STARTCHAR uni04C5
ENCODING 1221
SWIDTH 547 0
DWIDTH 18 0
BBX 18 27 0 -4
BITMAP
0FFE00
0FFE00
0FFE00
0F1E00
0F1E00
0F1E00
0F1E00
0F1E00
0E1E00
0E1E00
0E1E00
0E1E00
0E1E00
1E1E00
1E1E00
1E1E00
1E1E00
1E1E00
1C1E00
3C1E00
FC1FC0
F81FC0
F01F80
000780
000700
000700
000E00
ENDCHAR
STARTCHAR uni04C6
ENCODING 1222
SWIDTH 466 0
DWIDTH 15 0
BBX 15 20 0 -4
BITMAP
1FF8
1FF8
1FF8
1C78
1C78
1C78
1C78
1C78
1C78
1C78
3C78
3C78
3878
F87E
F87E
F07C
001C
001C
0038
0038
ENDCHAR
STARTCHAR uni04C7
ENCODING 1223
SWIDTH 533 0
DWIDTH 18 0
BBX 14 29 2 -6
BITMAP
F03C
F03C
F03C
F03C
F03C
F03C
F03C
F03C
F03C
F03C
FFFC
FFFC
FFFC
F03C
F03C
F03C
F03C
F03C
F03C
F03C
F03C
F03C
F03C
003C
003C
007C
00FC
00F8
00F0
ENDCHAR
STARTCHAR uni04C8
ENCODING 1224
SWIDTH 444 0
DWIDTH 14 0
BBX 12 22 1 -6
BITMAP
F0F0
F0F0
F0F0
F0F0
F0F0
F0F0
FFF0
FFF0
FFF0
F0F0
F0F0
F0F0
F0F0
F0F0
F0F0
F0F0
00F0
00F0
01F0
03F0
03E0
03C0
ENDCHAR
STARTCHAR uni04C9
ENCODING 1225
SWIDTH 567 0
DWIDTH 19 0
BBX 17 27 2 -4
BITMAP
F03C00
F03C00
F03C00
F03C00
F03C00
F03C00
F03C00
F03C00
F03C00
F03C00
FFFC00
FFFC00
FFFC00
F03C00
F03C00
F03C00
F03C00
F03C00
F03C00
F03C00
F03F80
F03F80
F03F00
000F00
000E00
000E00
001C00
ENDCHAR
STARTCHAR uni04CA
ENCODING 1226
SWIDTH 482 0
DWIDTH 15 0
BBX 14 20 1 -4
BITMAP
F0F0
F0F0
F0F0
F0F0
F0F0
F0F0
FFF0
FFF0
FFF0
F0F0
F0F0
F0F0
F0F0
F0FC
F0FC
F0F8
0038
0038
0038
0070
ENDCHAR
STARTCHAR uni04CB
ENCODING 1227
SWIDTH 503 0
DWIDTH 17 0
BBX 14 27 1 -4
BITMAP
F03C
F03C
F03C
F03C
F03C
F03C
F03C
F03C
F03C
F03C
F03C
F87C
7FFC
7FFC
1F3C
003C
003C
003C
003C
003C
00FC
00FC
00FC
00E0
00E0
00E0
00E0
ENDCHAR
STARTCHAR uni04CC
ENCODING 1228
SWIDTH 420 0
DWIDTH 13 0
BBX 11 20 1 -4
BITMAP
F1E0
F1E0
F1E0
F1E0
F1E0
F1E0
F1E0
FFE0
7FE0
3DE0
01E0
01E0
01E0
0FE0
0FE0
0FE0
0E00
0E00
0E00
0E00
ENDCHAR
STARTCHAR uni04CD
ENCODING 1229
SWIDTH 705 0
DWIDTH 23 0
BBX 21 27 2 -4
BITMAP
F003C0
F003C0
F803C0
F807C0
FC07C0
FC0FC0
FC0FC0
FE1FC0
FE1FC0
FF1BC0
F73BC0
F7BBC0
F3B3C0
F3F3C0
F3E3C0
F1E3C0
F1E3C0
F0C3C0
F0C3C0
F003C0
F003F8
F003F8
F003F0
000070
0000F0
0000E0
0000E0
ENDCHAR
STARTCHAR uni04CE
ENCODING 1230
SWIDTH 593 0
DWIDTH 18 0
BBX 17 20 1 -4
BITMAP
E01E00
F03E00
F83E00
F83E00
FC7E00
FC7E00
FEFE00
EEDE00
EFDE00
E7DE00
E79E00
E39E00
E31E00
E01F80
E01F80
E01F00
000700
000700
000E00
000E00
ENDCHAR
STARTCHAR uni04CF
ENCODING 1231
SWIDTH 217 0
DWIDTH 8 0
BBX 4 23 2 0
BITMAP
F0
F0
F0
F0
F0
F0
F0
F0
F0
F0
F0
F0
F0
F0
F0
F0
F0
F0
F0
F0
F0
F0
F0
ENDCHAR
STARTCHAR uni04D0
ENCODING 1232
SWIDTH 501 0
DWIDTH 16 0
BBX 16 28 0 0
BITMAP
3C78
3FF0
1FF0
0FC0
0000
03C0
03C0
03C0
07E0
07E0
07E0
07E0
0FF0
0E70
0E70
1E78
1E78
1C38
1C38
3FFC
3FFC
3FFC
381C
781E
701E
700E
F00F
F00F
ENDCHAR
STARTCHAR uni04D1
ENCODING 1233
SWIDTH 413 0
DWIDTH 13 0
BBX 11 23 1 0
BITMAP
3180
79C0
7FC0
3F80
1F00
0000
0000
1F80
7FC0
7FE0
21E0
01E0
01E0
01E0
1FE0
7FE0
FFE0
F9E0
F1E0
F1E0
FFE0
7EE0
3CE0
ENDCHAR
STARTCHAR uni04D2
ENCODING 1234
SWIDTH 501 0
DWIDTH 16 0
BBX 16 28 0 0
BITMAP
0C30
1E78
1E78
0C70
0000
03C0
03C0
03C0
07E0
07E0
07E0
07E0
0FF0
0E70
0E70
1E78
1E78
1C38
1C38
3FFC
3FFC
3FFC
381C
781E
701E
700E
F00F
F00F
ENDCHAR
STARTCHAR uni04D3
ENCODING 1235
SWIDTH 413 0
DWIDTH 13 0
BBX 11 22 1 0
BITMAP
30C0
79E0
79E0
30C0
0000
0000
1F80
7FC0
7FE0
21E0
01E0
01E0
01E0
1FE0
7FE0
FFE0
F9E0
F1E0
F1E0
FFE0
7EE0
3CE0
ENDCHAR
STARTCHAR uni04D4
ENCODING 1236
SWIDTH 717 0
DWIDTH 23 0
BBX 23 23 -1 0
BITMAP
000FFE
001FFE
001FFE
003F00
003F00
007F00
007F00
00EF00
00EF00
01EF00
01CFFC
03CFFC
038FFC
078F00
07FF00
0FFF00
0FFF00
1E0F00
1C0F00
3C0F00
380FFE
780FFE
F00FFE
ENDCHAR
STARTCHAR uni04D5
ENCODING 1237
SWIDTH 653 0
DWIDTH 21 0
BBX 19 16 1 0
BITMAP
1F8F00
7FDFC0
7FFFC0
21F9E0
00F1E0
00F1E0
00FFE0
1FFFE0
7FFFE0
FFF000
F8F000
F0F000
F1F840
FFFFC0
7F3FE0
3E1F80
ENDCHAR
STARTCHAR uni04D6
ENCODING 1238
SWIDTH 430 0
DWIDTH 14 0
BBX 11 28 2 0
BITMAP
F1E0
FFE0
7FC0
3F80
0000
FFE0
FFE0
FFE0
F000
F000
F000
F000
F000
F000
F000
FFC0
FFC0
FFC0
F000
F000
F000
F000
F000
F000
F000
FFE0
FFE0
FFE0
ENDCHAR
STARTCHAR uni04D7
ENCODING 1239
SWIDTH 428 0
DWIDTH 13 0
BBX 11 23 1 0
BITMAP
3980
79C0
3FC0
3F80
0F00
0000
0000
1F00
3FC0
7FC0
79E0
F1E0
F1E0
FFE0
FFE0
FFE0
F000
F000
F000
7840
7FE0
3FE0
1F80
ENDCHAR
STARTCHAR uni04D8
ENCODING 1240
SWIDTH 521 0
DWIDTH 17 0
BBX 15 23 1 0
BITMAP
1FC0
7FF0
7FF8
20F8
003C
003C
003E
001E
001E
001E
FFFE
FFFE
FFFE
F01E
F01E
F01E
F01E
F03C
783C
7C78
3FF8
1FF0
0FC0
ENDCHAR
STARTCHAR afii10846
ENCODING 1241
SWIDTH 420 0
DWIDTH 13 0
BBX 11 16 1 0
BITMAP
3F00
FF80
7FC0
43C0
01E0
01E0
01E0
FFE0
FFE0
FFE0
F1E0
F1E0
FBC0
7FC0
7F80
1F00
ENDCHAR
STARTCHAR uni04DA
ENCODING 1242
SWIDTH 521 0
DWIDTH 17 0
BBX 15 28 1 0
BITMAP
1860
3CF0
3CF0
18E0
0000
1FC0
7FF0
7FF8
20F8
003C
003C
003E
001E
001E
001E
FFFE
FFFE
FFFE
F01E
F01E
F01E
F01E
F03C
783C
7C78
3FF8
1FF0
0FC0
ENDCHAR
STARTCHAR uni04DB
ENCODING 1243
SWIDTH 420 0
DWIDTH 13 0
BBX 11 22 1 0
BITMAP
6180
F3C0
F3C0
6180
0000
0000
3F00
FF80
7FC0
43C0
01E0
01E0
01E0
FFE0
FFE0
FFE0
F1E0
F1E0
FBC0
7FC0
7F80
1F00
ENDCHAR
STARTCHAR uni04DC
ENCODING 1244
SWIDTH 701 0
DWIDTH 22 0
BBX 22 28 0 0
BITMAP
018600
03CF00
03CF00
018E00
000000
F0783C
787878
787878
7C7878
3C78F0
3C78F0
1E79E0
1E79E0
1E7BC0
0F7BC0
0FFF80
07FF80
07FFC0
0F7BC0
0F79E0
1E79E0
1E79E0
3C78F0
3C78F0
3C78F8
787878
787878
F0787C
ENDCHAR
STARTCHAR uni04DD
ENCODING 1245
SWIDTH 582 0
DWIDTH 18 0
BBX 18 22 0 0
BITMAP
061800
0F3C00
0F3C00
061800
000000
000000
F1E3C0
71E380
79E780
79E700
39E700
3DEF00
1FFE00
0FFE00
1FFE00
3DEF00
3DEF00
39E780
79E780
79E780
F1E3C0
F1E3C0
ENDCHAR
STARTCHAR uni04DE
ENCODING 1246
SWIDTH 435 0
DWIDTH 14 0
BBX 13 28 0 0
BITMAP
30C0
79E0
79E0
31C0
0000
1F80
7FE0
3FE0
21F0
00F0
00F0
00F0
00F0
01E0
1FC0
1FC0
1FF0
01F0
00F8
0078
0078
0078
0078
00F8
41F0
7FF0
FFE0
7F80
ENDCHAR
STARTCHAR uni04DF
ENCODING 1247
SWIDTH 354 0
DWIDTH 12 0
BBX 10 22 1 0
BITMAP
6180
F3C0
F3C0
6180
0000
0000
7E00
FF00
FF80
4780
0780
0780
3F00
3F00
3F80
07C0
03C0
03C0
47C0
FF80
FF80
7E00
ENDCHAR
STARTCHAR uni04E0
ENCODING 1248
SWIDTH 452 0
DWIDTH 15 0
BBX 13 23 1 0
BITMAP
FFF0
FFF0
FFF0
01E0
03C0
0780
0780
0F00
1E00
3F80
3FE0
3FF0
01F0
00F8
0078
0078
0078
0078
00F8
41F0
FFF0
FFE0
7F80
ENDCHAR
STARTCHAR uni04E1
ENCODING 1249
SWIDTH 403 0
DWIDTH 13 0
BBX 11 22 1 -6
BITMAP
FFC0
FFC0
FFC0
0780
0780
0F00
0F00
1E00
1C00
3F00
3FC0
3FC0
03E0
01E0
01E0
01E0
01E0
01E0
43C0
7FC0
FF80
7E00
ENDCHAR
STARTCHAR uni04E2
ENCODING 1250
SWIDTH 547 0
DWIDTH 18 0
BBX 14 28 2 0
BITMAP
3FE0
3FE0
3FE0
0000
0000
F01C
F03C
F03C
F07C
F07C
F0FC
F0FC
F1FC
F1FC
F3BC
F3BC
F73C
F73C
F73C
FE3C
FE3C
FC3C
FC3C
F83C
F83C
F03C
F03C
E03C
ENDCHAR
STARTCHAR uni04E3
ENCODING 1251
SWIDTH 450 0
DWIDTH 14 0
BBX 12 21 1 0
BITMAP
7FC0
7FC0
7FC0
0000
0000
F070
F0F0
F0F0
F1F0
F1F0
F3F0
F3F0
F7F0
F6F0
FEF0
FCF0
F8F0
F8F0
F0F0
F0F0
E0F0
ENDCHAR
STARTCHAR uni04E4
ENCODING 1252
SWIDTH 547 0
DWIDTH 18 0
BBX 14 28 2 0
BITMAP
1860
3CF0
3CF0
18E0
0000
F01C
F03C
F03C
F07C
F07C
F0FC
F0FC
F1FC
F1FC
F3BC
F3BC
F73C
F73C
F73C
FE3C
FE3C
FC3C
FC3C
F83C
F83C
F03C
F03C
E03C
ENDCHAR
STARTCHAR uni04E5
ENCODING 1253
SWIDTH 450 0
DWIDTH 14 0
BBX 12 22 1 0
BITMAP
30C0
79E0
79E0
30C0
0000
0000
F070
F0F0
F0F0
F1F0
F1F0
F3F0
F3F0
F7F0
F6F0
FEF0
FCF0
F8F0
F8F0
F0F0
F0F0
E0F0
ENDCHAR
STARTCHAR uni04E6
ENCODING 1254
SWIDTH 553 0
DWIDTH 18 0
BBX 16 28 1 0
BITMAP
0C30
1E78
1E78
0C70
0000
07E0
1FF8
3FFC
3C3C
781E
781E
F81E
F00F
F00F
F00F
F00F
F00F
F00F
F00F
F00F
F00F
F81E
781E
781E
3C3C
3FFC
1FF8
07E0
ENDCHAR
STARTCHAR uni04E7
ENCODING 1255
SWIDTH 445 0
DWIDTH 14 0
BBX 12 22 1 0
BITMAP
30C0
79E0
79E0
30C0
0000
0000
1F80
3FC0
7FE0
79E0
F0F0
F0F0
F0F0
F0F0
F0F0
F0F0
F0F0
F0F0
79E0
7FE0
3FC0
1F80
ENDCHAR
STARTCHAR uni04E8
ENCODING 1256
SWIDTH 552 0
DWIDTH 18 0
BBX 16 23 1 0
BITMAP
07E0
1FF8
3FFC
3C3C
781E
781E
F81E
F00F
F00F
F00F
FFFF
FFFF
FFFF
F00F
F00F
F00F
F80E
781E
781E
3C3C
3FFC
1FF8
07E0
ENDCHAR
STARTCHAR uni04E9
ENCODING 1257
SWIDTH 445 0
DWIDTH 14 0
BBX 12 16 1 0
BITMAP
1F80
3FC0
7FE0
79E0
F0F0
F0F0
FFF0
FFF0
FFF0
F0F0
F0F0
F0F0
79E0
7FE0
3FC0
0F80
ENDCHAR
STARTCHAR uni04EA
ENCODING 1258
SWIDTH 552 0
DWIDTH 18 0
BBX 16 28 1 0
BITMAP
0C30
1E78
1E78
0C70
0000
07E0
1FF8
3FFC
3C3C
781E
781E
F81E
F00F
F00F
F00F
FFFF
FFFF
FFFF
F00F
F00F
F00F
F80E
781E
781E
3C3C
3FFC
1FF8
07E0
ENDCHAR
STARTCHAR uni04EB
ENCODING 1259
SWIDTH 445 0
DWIDTH 14 0
BBX 12 22 1 0
BITMAP
30C0
79E0
79E0
30C0
0000
0000
1F80
3FC0
7FE0
79E0
F0F0
F0F0
FFF0
FFF0
FFF0
F0F0
F0F0
F0F0
79E0
7FE0
3FC0
0F80
ENDCHAR
STARTCHAR uni04EC
ENCODING 1260
SWIDTH 477 0
DWIDTH 16 0
BBX 14 28 1 0
BITMAP
30C0
79E0
79E0
31C0
0000
3F00
FFE0
FFF0
41F0
00F8
0078
0078
003C
003C
003C
1FFC
1FFC
1FFC
003C
003C
003C
0078
0078
00F8
41F0
7FE0
FFC0
7F00
ENDCHAR
STARTCHAR uni04ED
ENCODING 1261
SWIDTH 377 0
DWIDTH 12 0
BBX 11 22 0 0
BITMAP
6180
F3C0
F3C0
6180
0000
0000
3F00
7F80
7FC0
23C0
01E0
01E0
01E0
1FE0
1FE0
1FE0
01E0
01E0
23C0
7FC0
7F80
3F00
ENDCHAR
STARTCHAR uni04EE
ENCODING 1262
SWIDTH 475 0
DWIDTH 15 0
BBX 15 28 0 0
BITMAP
1FF0
1FF0
1FF0
0000
0000
F01E
F81E
781E
781C
7C3C
3C3C
3C38
1E78
1E78
1E70
0F70
0F70
07E0
07E0
03E0
03E0
03C0
03C0
03C0
0380
1F80
3F00
3E00
ENDCHAR
STARTCHAR uni04EF
ENCODING 1263
SWIDTH 400 0
DWIDTH 13 0
BBX 13 27 0 -6
BITMAP
3FE0
3FE0
3FE0
0000
0000
F878
F878
7870
78F0
7CF0
3CF0
3CE0
3CE0
1DE0
1FC0
1FC0
0FC0
0FC0
0F80
0780
0780
0700
0700
0F00
1E00
3E00
3C00
ENDCHAR
STARTCHAR uni04F0
ENCODING 1264
SWIDTH 475 0
DWIDTH 15 0
BBX 15 28 0 0
BITMAP
0C30
1E78
1E78
0C70
0000
F01E
F81E
781E
781C
7C3C
3C3C
3C38
1E78
1E78
1E70
0F70
0F70
07E0
07E0
03E0
03E0
03C0
03C0
03C0
0380
1F80
3F00
3E00
ENDCHAR
STARTCHAR uni04F1
ENCODING 1265
SWIDTH 400 0
DWIDTH 13 0
BBX 13 28 0 -6
BITMAP
1860
3CF0
3CF0
1860
0000
0000
F878
F878
7870
78F0
7CF0
3CF0
3CE0
3CE0
1DE0
1FC0
1FC0
0FC0
0FC0
0F80
0780
0780
0700
0700
0F00
1E00
3E00
3C00
ENDCHAR
STARTCHAR uni04F2
ENCODING 1266
SWIDTH 475 0
DWIDTH 15 0
BBX 15 27 0 0
BITMAP
07BE
0778
0EF0
0000
F01E
F81E
781E
781C
7C3C
3C3C
3C38
1E78
1E78
1E70
0F70
0F70
07E0
07E0
03E0
03E0
03C0
03C0
03C0
0380
1F80
3F00
3E00
ENDCHAR
STARTCHAR uni04F3
ENCODING 1267
SWIDTH 400 0
DWIDTH 13 0
BBX 13 28 0 -6
BITMAP
0E78
0CF0
1CE0
19C0
0000
0000
F878
F878
7870
78F0
7CF0
3CF0
3CE0
3CE0
1DE0
1FC0
1FC0
0FC0
0FC0
0F80
0780
0780
0700
0700
0F00
1E00
3E00
3C00
ENDCHAR
STARTCHAR uni04F4
ENCODING 1268
SWIDTH 503 0
DWIDTH 17 0
BBX 14 28 1 0
BITMAP
1860
3CF0
3CF0
18E0
0000
F03C
F03C
F03C
F03C
F03C
F03C
F03C
F03C
F03C
F03C
F03C
F87C
7FFC
7FFC
1F3C
003C
003C
003C
003C
003C
003C
003C
003C
ENDCHAR
STARTCHAR uni04F5
ENCODING 1269
SWIDTH 419 0
DWIDTH 13 0
BBX 11 22 1 0
BITMAP
30C0
79E0
79E0
30C0
0000
0000
F1E0
F1E0
F1E0
F1E0
F1E0
F1E0
F1E0
F1E0
FFE0
7FE0
3DE0
01E0
01E0
01E0
01E0
01E0
ENDCHAR
STARTCHAR uni04F6
ENCODING 1270
SWIDTH 381 0
DWIDTH 12 0
BBX 10 27 2 -4
BITMAP
FFC0
FFC0
FFC0
F000
F000
F000
F000
F000
F000
F000
F000
F000
F000
F000
F000
F000
F000
F000
F000
F000
FC00
FC00
FC00
1C00
1C00
1C00
1C00
ENDCHAR
STARTCHAR uni04F7
ENCODING 1271
SWIDTH 310 0
DWIDTH 10 0
BBX 9 20 1 -4
BITMAP
FF80
FF80
FF80
F000
F000
F000
F000
F000
F000
F000
F000
F000
F000
FC00
FC00
FC00
1C00
1C00
1C00
1C00
ENDCHAR
STARTCHAR uni04F8
ENCODING 1272
SWIDTH 668 0
DWIDTH 22 0
BBX 18 28 2 0
BITMAP
061800
0F3C00
0F3C00
063800
000000
F003C0
F003C0
F003C0
F003C0
F003C0
F003C0
F003C0
F003C0
FF83C0
FFC3C0
FFE3C0
F1E3C0
F0F3C0
F0F3C0
F0F3C0
F0F3C0
F0F3C0
F0F3C0
F0F3C0
F1E3C0
FFE3C0
FFC3C0
FF03C0
ENDCHAR
STARTCHAR uni04F9
ENCODING 1273
SWIDTH 591 0
DWIDTH 18 0
BBX 16 22 1 0
BITMAP
0618
0F3C
0F3C
0618
0000
0000
F00F
F00F
F00F
F00F
F00F
FF8F
FFCF
FFEF
F3EF
F1EF
F1EF
F1EF
F3EF
FFCF
FFCF
FF0F
ENDCHAR
STARTCHAR uni04FC
ENCODING 1276
SWIDTH 525 0
DWIDTH 17 0
BBX 15 29 1 -6
BITMAP
F01E
F81E
783C
7C3C
3C78
3C78
1EF0
1EF0
1EE0
0FE0
0FC0
07C0
0FE0
0FE0
1EF0
1EF0
3CF8
3C78
387C
783C
783E
F01E
F01E
001E
001E
001E
007C
007C
0078
ENDCHAR
STARTCHAR uni04FD
ENCODING 1277
SWIDTH 438 0
DWIDTH 14 0
BBX 14 22 0 -6
BITMAP
F87C
7878
3CF0
3CF0
1EE0
1FE0
0FC0
0FC0
0FC0
1FE0
1FE0
3DF0
3CF0
78F0
7878
F078
0078
0078
0078
01F8
01F0
01E0
ENDCHAR
STARTCHAR uni0510
ENCODING 1296
SWIDTH 442 0
DWIDTH 14 0
BBX 12 23 1 0
BITMAP
0FE0
3FF0
3FF0
7C20
7800
7800
7800
7800
3C00
3F80
1F80
7F80
7C00
F800
F000
F000
F000
F000
F800
7820
7FF0
3FF0
0FC0
ENDCHAR
STARTCHAR uni0511
ENCODING 1297
SWIDTH 355 0
DWIDTH 11 0
BBX 9 16 1 0
BITMAP
3F00
7F80
FF80
F100
F000
F000
7E00
3E00
7E00
F000
F000
F000
F900
FF80
7F80
3F00
ENDCHAR
STARTCHAR uni0512
ENCODING 1298
SWIDTH 523 0
DWIDTH 17 0
BBX 15 29 0 -6
BITMAP
0FFE
0FFE
0FFE
0F1E
0F1E
0F1E
0F1E
0E1E
0E1E
0E1E
0E1E
0E1E
0E1E
1E1E
1E1E
1E1E
1E1E
1E1E
1C1E
3C1E
FC1E
F81E
F01E
001E
001E
001E
007E
007C
0078
ENDCHAR
STARTCHAR uni0513
ENCODING 1299
SWIDTH 433 0
DWIDTH 14 0
BBX 13 22 0 -6
BITMAP
1FF8
1FF8
1FF8
1C78
1C78
1C78
1C78
1C78
1C78
1C78
3C78
3C78
3878
F878
F878
F078
0078
0078
00F8
01F8
01F0
01E0
ENDCHAR
STARTCHAR uni051C
ENCODING 1308
SWIDTH 717 0
DWIDTH 23 0
BBX 23 23 0 0
BITMAP
F0381E
F03C1E
783C1C
783C1C
787C3C
787C3C
786E3C
3C6E38
3CEE38
3CEE38
3CEF78
3CEF78
1DC770
1FC770
1FC770
1FC770
0F8360
0F83E0
0F83E0
0F81E0
0F01E0
0701C0
0701C0
ENDCHAR
STARTCHAR uni051D
ENCODING 1309
SWIDTH 596 0
DWIDTH 19 0
BBX 19 16 0 0
BITMAP
F0E0E0
F0F1E0
78F1C0
78F1C0
79F1C0
79B9C0
39BB80
3DBB80
3FBB80
3F9F80
1F1F80
1F1F00
1F1F00
1F0F00
0E0F00
0E0E00
ENDCHAR
STARTCHAR uni0524
ENCODING 1316
SWIDTH 566 0
DWIDTH 18 0
BBX 15 27 2 -4
BITMAP
FFF8
FFF8
FFF8
F078
F078
F078
F078
F078
F078
F078
F078
F078
F078
F078
F078
F078
F078
F078
F078
F078
F07E
F07E
F07E
000E
000E
000E
000E
ENDCHAR
STARTCHAR uni0525
ENCODING 1317
SWIDTH 475 0
DWIDTH 15 0
BBX 14 20 1 -4
BITMAP
FFF0
FFF0
FFF0
F0F0
F0F0
F0F0
F0F0
F0F0
F0F0
F0F0
F0F0
F0F0
F0F0
F0FC
F0FC
F0FC
001C
001C
001C
001C
ENDCHAR
STARTCHAR uni0526
ENCODING 1318
SWIDTH 554 0
DWIDTH 18 0
BBX 15 27 2 -4
BITMAP
F000
F000
F000
F000
F000
F000
F000
F000
F3C0
FFF0
FFF0
F8F8
F078
F078
F078
F078
F078
F078
F078
F078
F07E
F07E
F07E
000E
000E
000E
000E
ENDCHAR
STARTCHAR uni0527
ENCODING 1319
SWIDTH 486 0
DWIDTH 15 0
BBX 14 27 1 -4
BITMAP
F000
F000
F000
F000
F000
F000
F000
F3C0
FFE0
FFF0
F9F0
F0F0
F0F0
F0F0
F0F0
F0F0
F0F0
F0F0
F0F0
F0F0
F0FC
F0FC
F0FC
001C
001C
001C
001C
ENDCHAR
STARTCHAR uni1E30
ENCODING 7728
SWIDTH 519 0
DWIDTH 17 0
BBX 15 28 2 0
BITMAP
03E0
07C0
0780
0E00
0000
F07C
F078
F0F0
F0F0
F1E0
F1E0
F3C0
F3C0
F780
F780
FF00
FF00
FF80
F7C0
F3C0
F3E0
F1E0
F1F0
F0F0
F0F8
F078
F07C
F03E
ENDCHAR
STARTCHAR uni1E31
ENCODING 7729
SWIDTH 412 0
DWIDTH 13 0
BBX 12 23 1 0
BITMAP
F1E0
F1C0
F3C0
F380
F300
F000
F000
F1F0
F1E0
F1C0
F3C0
F380
F780
FE00
FF00
FF80
F780
F780
F3C0
F3C0
F1E0
F1E0
F1F0
ENDCHAR
STARTCHAR uni1E3E
ENCODING 7742
SWIDTH 664 0
DWIDTH 21 0
BBX 18 28 2 0
BITMAP
007C00
00F800
01F000
01C000
000000
F003C0
F003C0
F803C0
F807C0
F807C0
FC0FC0
FC0FC0
FE1FC0
FE1FC0
FF1BC0
F73BC0
F73BC0
F3B3C0
F3F3C0
F3E3C0
F1E3C0
F1E3C0
F0C3C0
F0C3C0
F003C0
F003C0
F003C0
F003C0
ENDCHAR
STARTCHAR uni1E3F
ENCODING 7743
SWIDTH 663 0
DWIDTH 22 0
BBX 20 23 1 0
BITMAP
007800
007800
007000
006000
00E000
000000
000000
E3C7C0
EFEFE0
FFFFF0
F9F9F0
F0F0F0
F0F0F0
F0F0F0
F0F0F0
F0F0F0
F0F0F0
F0F0F0
F0F0F0
F0F0F0
F0F0F0
F0F0F0
F0F0F0
ENDCHAR
STARTCHAR uni1E54
ENCODING 7764
SWIDTH 477 0
DWIDTH 16 0
BBX 13 28 2 0
BITMAP
07C0
0780
0F00
1E00
0000
FF80
FFE0
FFF0
F1F0
F0F8
F078
F078
F078
F078
F078
F0F8
F1F0
FFF0
FFE0
FF80
F000
F000
F000
F000
F000
F000
F000
F000
ENDCHAR
STARTCHAR uni1E55
ENCODING 7765
SWIDTH 447 0
DWIDTH 14 0
BBX 12 29 1 -6
BITMAP
0780
0F00
0E00
0E00
0C00
0000
0000
E780
EFE0
FFE0
F9F0
F0F0
F0F0
F0F0
F0F0
F0F0
F0F0
F0F0
F1F0
F1E0
FFE0
FFC0
FF80
F000
F000
F000
F000
F000
F000
ENDCHAR
STARTCHAR uni1E9E
ENCODING 7838
SWIDTH 564 0
DWIDTH 18 0
BBX 15 23 2 0
BITMAP
1FC0
3FF8
7FFC
F87C
F078
F070
F0F0
F1E0
F1E0
F3C0
F3F0
F3FC
F3FC
F03E
F01E
F01E
F01E
F01E
F01E
F23C
F7FC
F7F8
F3F0
ENDCHAR
STARTCHAR uni2011
ENCODING 8209
SWIDTH 298 0
DWIDTH 10 0
BBX 7 3 1 7
BITMAP
FE
FE
FE
ENDCHAR
STARTCHAR endash
ENCODING 8211
SWIDTH 543 0
DWIDTH 17 0
BBX 12 3 3 7
BITMAP
FFF0
FFF0
FFF0
ENDCHAR
STARTCHAR emdash
ENCODING 8212
SWIDTH 676 0
DWIDTH 22 0
BBX 16 3 3 7
BITMAP
FFFF
FFFF
FFFF
ENDCHAR
STARTCHAR quoteleft
ENCODING 8216
SWIDTH 188 0
DWIDTH 6 0
BBX 4 8 1 18
BITMAP
20
70
60
E0
E0
F0
F0
60
ENDCHAR
STARTCHAR quoteright
ENCODING 8217
SWIDTH 188 0
DWIDTH 6 0
BBX 4 8 1 15
BITMAP
60
F0
F0
F0
70
60
E0
40
ENDCHAR
STARTCHAR quotesinglbase
ENCODING 8218
SWIDTH 188 0
DWIDTH 6 0
BBX 4 8 1 -4
BITMAP
60
F0
F0
F0
70
60
E0
40
ENDCHAR
STARTCHAR quotedblleft
ENCODING 8220
SWIDTH 342 0
DWIDTH 11 0
BBX 9 8 1 18
BITMAP
2100
7380
6300
E700
E700
F780
F780
6300
ENDCHAR
STARTCHAR quotedblright
ENCODING 8221
SWIDTH 342 0
DWIDTH 11 0
BBX 9 8 1 15
BITMAP
6300
F780
F780
F780
7380
6300
E700
4200
ENDCHAR
STARTCHAR quotedblbase
ENCODING 8222
SWIDTH 341 0
DWIDTH 11 0
BBX 9 8 1 -4
BITMAP
6700
F780
F780
F780
7380
6300
E700
4200
ENDCHAR
STARTCHAR dagger
ENCODING 8224
SWIDTH 424 0
DWIDTH 14 0
BBX 12 29 1 -6
BITMAP
0F00
0F00
0F00
0F00
0F00
0F00
0F00
FFF0
FFF0
FFF0
0F00
0F00
0F00
0F00
0F00
0F00
0F00
0F00
0F00
0F00
0F00
0F00
0F00
0F00
0F00
0F00
0F00
0F00
0F00
ENDCHAR
STARTCHAR daggerdbl
ENCODING 8225
SWIDTH 424 0
DWIDTH 14 0
BBX 12 29 1 -6
BITMAP
0F00
0F00
0F00
0F00
0F00
0F00
0F00
FFF0
FFF0
FFF0
0F00
0F00
0F00
0F00
0F00
FFF0
FFF0
FFF0
0F00
0F00
0F00
0F00
0F00
0F00
0F00
0F00
0F00
0F00
0F00
ENDCHAR
STARTCHAR bullet
ENCODING 8226
SWIDTH 372 0
DWIDTH 12 0
BBX 8 10 2 5
BITMAP
3C
7E
FF
FF
FF
FF
FF
FF
7E
3C
ENDCHAR
STARTCHAR ellipsis
ENCODING 8230
SWIDTH 721 0
DWIDTH 23 0
BBX 21 5 1 0
BITMAP
707070
F8F8F8
F8F8F8
F8F8F8
707070
ENDCHAR
STARTCHAR perthousand
ENCODING 8240
SWIDTH 1054 0
DWIDTH 34 0
BBX 32 23 1 0
BITMAP
1F002000
7F807000
7FC0F000
F1C0E000
E1C1C000
E1C3C000
E1C38000
F1C70000
7FCF0000
7F9E0000
1F1C0000
00380000
007FC0F8
007FE1FE
00FFF3FE
01FC738F
01F87387
03B87387
07387387
0F1C738F
0E1FF3FE
1C1FE1FE
0407C0FC
ENDCHAR
STARTCHAR guilsinglleft
ENCODING 8249
SWIDTH 256 0
DWIDTH 8 0
BBX 7 14 1 1
BITMAP
08
1E
1C
3C
38
70
F0
E0
70
38
3C
1C
0E
08
ENDCHAR
STARTCHAR guilsinglright
ENCODING 8250
SWIDTH 256 0
DWIDTH 8 0
BBX 7 14 1 1
BITMAP
20
E0
70
78
38
1C
1E
0E
1C
38
78
70
E0
20
ENDCHAR
STARTCHAR fraction
ENCODING 8260
SWIDTH 154 0
DWIDTH 5 0
BBX 14 23 -5 0
BITMAP
0010
001C
0038
0038
0070
00F0
00E0
01E0
01C0
03C0
0380
0780
0700
0F00
0E00
1E00
1C00
3C00
3800
7800
7000
E000
2000
ENDCHAR
STARTCHAR uni2081
ENCODING 8321
SWIDTH 353 0
DWIDTH 11 0
BBX 8 13 2 -3
BITMAP
1C
3C
7C
FC
FC
5C
1C
1C
1C
1C
7F
7F
7F
ENDCHAR
STARTCHAR uni2082
ENCODING 8322
SWIDTH 353 0
DWIDTH 11 0
BBX 8 13 1 -3
BITMAP
7C
FE
FF
47
07
07
0E
0E
1C
38
7F
FF
FF
ENDCHAR
STARTCHAR uni2083
ENCODING 8323
SWIDTH 353 0
DWIDTH 11 0
BBX 8 13 2 -3
BITMAP
FE
FE
FE
1C
1C
3E
3F
07
07
87
FF
FE
7C
ENDCHAR
STARTCHAR uni2084
ENCODING 8324
SWIDTH 352 0
DWIDTH 11 0
BBX 10 13 1 -3
BITMAP
0700
0F00
0F00
1F00
1F00
3F00
7700
6700
FFC0
FFC0
FFC0
0700
0700
ENDCHAR
STARTCHAR Euro
ENCODING 8364
SWIDTH 478 0
DWIDTH 15 0
BBX 14 23 0 0
BITMAP
01F8
03FC
07F8
0F88
1F00
1E00
1E00
3C00
7FF0
FFF0
FFE0
3C00
3C00
7FE0
FFE0
FFC0
3C00
1E00
1E00
1F08
0FFC
07FC
01F8
ENDCHAR
STARTCHAR uni20B4
ENCODING 8372
SWIDTH 478 0
DWIDTH 15 0
BBX 12 23 1 0
BITMAP
3F80
7FC0
3FE0
23E0
01E0
01E0
01E0
03C0
FFF0
FFF0
FFF0
0000
0000
FFF0
FFF0
FFF0
3C00
7800
7800
7840
7FE0
3FE0
1FC0
ENDCHAR
STARTCHAR uni20B6
ENCODING 8374
SWIDTH 478 0
DWIDTH 15 0
BBX 14 23 1 0
BITMAP
3FC0
3FF0
3FF8
3C78
3C3C
3C3C
3C3C
3C3C
3C3C
3C7C
3C78
FFF8
FFF0
FFC0
3C00
3C00
FFC0
FFC0
FFC0
3C00
3C00
3C00
3C00
ENDCHAR
STARTCHAR uni20B7
ENCODING 8375
SWIDTH 478 0
DWIDTH 15 0
BBX 14 23 1 0
BITMAP
3FC0
3FF0
3FF8
3C78
3C3C
3C3C
3C3C
3C3C
3C3C
3C7C
3C78
FFF8
FFF0
FFC0
3C00
3C00
FFC0
FFC0
FFC0
3C00
3C00
3C00
3C00
ENDCHAR
STARTCHAR uni20B9
ENCODING 8377
SWIDTH 478 0
DWIDTH 15 0
BBX 14 23 1 0
BITMAP
3FC0
3FF0
3FF8
3C78
3C3C
3C3C
3C3C
3C3C
3C3C
3C7C
3C78
FFF8
FFF0
FFC0
3C00
3C00
FFC0
FFC0
FFC0
3C00
3C00
3C00
3C00
ENDCHAR
STARTCHAR uni20BA
ENCODING 8378
SWIDTH 478 0
DWIDTH 15 0
BBX 14 23 1 0
BITMAP
3FC0
3FF0
3FF8
3C78
3C3C
3C3C
3C3C
3C3C
3C3C
3C7C
3C78
FFF8
FFF0
FFC0
3C00
3C00
FFC0
FFC0
FFC0
3C00
3C00
3C00
3C00
ENDCHAR
STARTCHAR uni20BB
ENCODING 8379
SWIDTH 478 0
DWIDTH 15 0
BBX 14 23 1 0
BITMAP
3FC0
3FF0
3FF8
3C78
3C3C
3C3C
3C3C
3C3C
3C3C
3C7C
3C78
FFF8
FFF0
FFC0
3C00
3C00
FFC0
FFC0
FFC0
3C00
3C00
3C00
3C00
ENDCHAR
STARTCHAR uni20BC
ENCODING 8380
SWIDTH 478 0
DWIDTH 15 0
BBX 14 23 1 0
BITMAP
3FC0
3FF0
3FF8
3C78
3C3C
3C3C
3C3C
3C3C
3C3C
3C7C
3C78
FFF8
FFF0
FFC0
3C00
3C00
FFC0
FFC0
FFC0
3C00
3C00
3C00
3C00
ENDCHAR
STARTCHAR uni20BD
ENCODING 8381
SWIDTH 478 0
DWIDTH 15 0
BBX 14 23 1 0
BITMAP
3FC0
3FF0
3FF8
3C78
3C3C
3C3C
3C3C
3C3C
3C3C
3C7C
3C78
FFF8
FFF0
FFC0
3C00
3C00
FFC0
FFC0
FFC0
3C00
3C00
3C00
3C00
ENDCHAR
STARTCHAR uni20BE
ENCODING 8382
SWIDTH 478 0
DWIDTH 15 0
BBX 14 23 1 0
BITMAP
3FC0
3FF0
3FF8
3C78
3C3C
3C3C
3C3C
3C3C
3C3C
3C7C
3C78
FFF8
FFF0
FFC0
3C00
3C00
FFC0
FFC0
FFC0
3C00
3C00
3C00
3C00
ENDCHAR
STARTCHAR uni20BF
ENCODING 8383
SWIDTH 478 0
DWIDTH 15 0
BBX 14 23 1 0
BITMAP
3FC0
3FF0
3FF8
3C78
3C3C
3C3C
3C3C
3C3C
3C3C
3C7C
3C78
FFF8
FFF0
FFC0
3C00
3C00
FFC0
FFC0
FFC0
3C00
3C00
3C00
3C00
ENDCHAR
STARTCHAR uni20C0
ENCODING 8384
SWIDTH 478 0
DWIDTH 15 0
BBX 14 23 1 0
BITMAP
3FC0
3FF0
3FF8
3C78
3C3C
3C3C
3C3C
3C3C
3C3C
3C7C
3C78
FFF8
FFF0
FFC0
3C00
3C00
FFC0
FFC0
FFC0
3C00
3C00
3C00
3C00
ENDCHAR
STARTCHAR uni20C1
ENCODING 8385
SWIDTH 478 0
DWIDTH 15 0
BBX 14 23 1 0
BITMAP
3FC0
3FF0
3FF8
3C78
3C3C
3C3C
3C3C
3C3C
3C3C
3C7C
3C78
FFF8
FFF0
FFC0
3C00
3C00
FFC0
FFC0
FFC0
3C00
3C00
3C00
3C00
ENDCHAR
STARTCHAR uni20C2
ENCODING 8386
SWIDTH 478 0
DWIDTH 15 0
BBX 14 23 1 0
BITMAP
3FC0
3FF0
3FF8
3C78
3C3C
3C3C
3C3C
3C3C
3C3C
3C7C
3C78
FFF8
FFF0
FFC0
3C00
3C00
FFC0
FFC0
FFC0
3C00
3C00
3C00
3C00
ENDCHAR
STARTCHAR uni20C3
ENCODING 8387
SWIDTH 478 0
DWIDTH 15 0
BBX 14 23 1 0
BITMAP
3FC0
3FF0
3FF8
3C78
3C3C
3C3C
3C3C
3C3C
3C3C
3C7C
3C78
FFF8
FFF0
FFC0
3C00
3C00
FFC0
FFC0
FFC0
3C00
3C00
3C00
3C00
ENDCHAR
STARTCHAR uni20C4
ENCODING 8388
SWIDTH 478 0
DWIDTH 15 0
BBX 14 23 1 0
BITMAP
3FC0
3FF0
3FF8
3C78
3C3C
3C3C
3C3C
3C3C
3C3C
3C7C
3C78
FFF8
FFF0
FFC0
3C00
3C00
FFC0
FFC0
FFC0
3C00
3C00
3C00
3C00
ENDCHAR
STARTCHAR uni20C5
ENCODING 8389
SWIDTH 478 0
DWIDTH 15 0
BBX 14 23 1 0
BITMAP
3FC0
3FF0
3FF8
3C78
3C3C
3C3C
3C3C
3C3C
3C3C
3C7C
3C78
FFF8
FFF0
FFC0
3C00
3C00
FFC0
FFC0
FFC0
3C00
3C00
3C00
3C00
ENDCHAR
STARTCHAR uni20C6
ENCODING 8390
SWIDTH 478 0
DWIDTH 15 0
BBX 14 23 1 0
BITMAP
3FC0
3FF0
3FF8
3C78
3C3C
3C3C
3C3C
3C3C
3C3C
3C7C
3C78
FFF8
FFF0
FFC0
3C00
3C00
FFC0
FFC0
FFC0
3C00
3C00
3C00
3C00
ENDCHAR
STARTCHAR uni20C7
ENCODING 8391
SWIDTH 478 0
DWIDTH 15 0
BBX 14 23 1 0
BITMAP
3FC0
3FF0
3FF8
3C78
3C3C
3C3C
3C3C
3C3C
3C3C
3C7C
3C78
FFF8
FFF0
FFC0
3C00
3C00
FFC0
FFC0
FFC0
3C00
3C00
3C00
3C00
ENDCHAR
STARTCHAR uni20C8
ENCODING 8392
SWIDTH 478 0
DWIDTH 15 0
BBX 14 23 1 0
BITMAP
3FC0
3FF0
3FF8
3C78
3C3C
3C3C
3C3C
3C3C
3C3C
3C7C
3C78
FFF8
FFF0
FFC0
3C00
3C00
FFC0
FFC0
FFC0
3C00
3C00
3C00
3C00
ENDCHAR
STARTCHAR uni20C9
ENCODING 8393
SWIDTH 478 0
DWIDTH 15 0
BBX 14 23 1 0
BITMAP
3FC0
3FF0
3FF8
3C78
3C3C
3C3C
3C3C
3C3C
3C3C
3C7C
3C78
FFF8
FFF0
FFC0
3C00
3C00
FFC0
FFC0
FFC0
3C00
3C00
3C00
3C00
ENDCHAR
STARTCHAR uni20CA
ENCODING 8394
SWIDTH 478 0
DWIDTH 15 0
BBX 14 23 1 0
BITMAP
3FC0
3FF0
3FF8
3C78
3C3C
3C3C
3C3C
3C3C
3C3C
3C7C
3C78
FFF8
FFF0
FFC0
3C00
3C00
FFC0
FFC0
FFC0
3C00
3C00
3C00
3C00
ENDCHAR
STARTCHAR uni20CB
ENCODING 8395
SWIDTH 478 0
DWIDTH 15 0
BBX 14 23 1 0
BITMAP
3FC0
3FF0
3FF8
3C78
3C3C
3C3C
3C3C
3C3C
3C3C
3C7C
3C78
FFF8
FFF0
FFC0
3C00
3C00
FFC0
FFC0
FFC0
3C00
3C00
3C00
3C00
ENDCHAR
STARTCHAR uni20CC
ENCODING 8396
SWIDTH 478 0
DWIDTH 15 0
BBX 14 23 1 0
BITMAP
3FC0
3FF0
3FF8
3C78
3C3C
3C3C
3C3C
3C3C
3C3C
3C7C
3C78
FFF8
FFF0
FFC0
3C00
3C00
FFC0
FFC0
FFC0
3C00
3C00
3C00
3C00
ENDCHAR
STARTCHAR uni20CD
ENCODING 8397
SWIDTH 478 0
DWIDTH 15 0
BBX 14 23 1 0
BITMAP
3FC0
3FF0
3FF8
3C78
3C3C
3C3C
3C3C
3C3C
3C3C
3C7C
3C78
FFF8
FFF0
FFC0
3C00
3C00
FFC0
FFC0
FFC0
3C00
3C00
3C00
3C00
ENDCHAR
STARTCHAR uni20CE
ENCODING 8398
SWIDTH 478 0
DWIDTH 15 0
BBX 14 23 1 0
BITMAP
3FC0
3FF0
3FF8
3C78
3C3C
3C3C
3C3C
3C3C
3C3C
3C7C
3C78
FFF8
FFF0
FFC0
3C00
3C00
FFC0
FFC0
FFC0
3C00
3C00
3C00
3C00
ENDCHAR
STARTCHAR uni20CF
ENCODING 8399
SWIDTH 478 0
DWIDTH 15 0
BBX 14 23 1 0
BITMAP
3FC0
3FF0
3FF8
3C78
3C3C
3C3C
3C3C
3C3C
3C3C
3C7C
3C78
FFF8
FFF0
FFC0
3C00
3C00
FFC0
FFC0
FFC0
3C00
3C00
3C00
3C00
ENDCHAR
STARTCHAR afii61289
ENCODING 8467
SWIDTH 500 0
DWIDTH 16 0
BBX 11 23 2 0
BITMAP
0780
0FC0
1CE0
1860
1860
1860
1860
18C0
18C0
1980
1B00
1F00
1E00
1C00
7800
F800
5800
1800
1800
1800
1C60
0FE0
0F80
ENDCHAR
STARTCHAR afii61352
ENCODING 8470
SWIDTH 857 0
DWIDTH 27 0
BBX 25 23 1 0
BITMAP
E03C3E00
F03C7F00
F03CFF00
F83CE380
F83CE380
FC3CE380
FC3CE380
FE3CE380
FE3CFF80
FF3C7F00
F73C3E00
F7BC0000
F3BC0000
F3FCFF00
F1FCFF00
F1FCFF00
F0FC0000
F0FC0000
F07C0000
F07C0000
F03C0000
F03C0000
F01C0000
ENDCHAR
STARTCHAR trademark
ENCODING 8482
SWIDTH 801 0
DWIDTH 26 0
BBX 24 12 1 11
BITMAP
FFDE0F
FFDE0F
FFDF1F
1E1F1F
1E1FBF
1E1FBF
1E1DF7
1E1DF7
1E1CE7
1E1CE7
1E1C07
1E1C07
ENDCHAR
STARTCHAR uni03A9.dup2
ENCODING 8486
SWIDTH 633 0
DWIDTH 20 0
BBX 17 23 2 0
BITMAP
07F000
0FF800
3FFE00
3C3E00
780F00
780F00
F00780
F00780
F00780
F00780
F00780
F00780
F00780
F80F80
780F00
7C1F00
7E3F00
3F7E00
1F7C00
077000
FF7F80
FF7F80
FF7F80
ENDCHAR
STARTCHAR estimated
ENCODING 8494
SWIDTH 600 0
DWIDTH 19 0
BBX 17 17 1 0
BITMAP
03F000
180C00
300600
700700
700700
F00780
F00780
FFFF80
F00000
F00000
F00000
F00000
700100
700200
300400
181800
07E000
ENDCHAR
STARTCHAR partialdiff
ENCODING 8706
SWIDTH 451 0
DWIDTH 14 0
BBX 13 23 0 0
BITMAP
0F00
1FC0
1FE0
03F0
00F0
00F0
0078
0FF8
1FF8
3FF8
7CF8
7878
F078
F078
F078
F078
F070
F0F0
F0F0
F9E0
7FE0
3FC0
1F00
ENDCHAR
STARTCHAR uni0394.dup3
ENCODING 8710
SWIDTH 486 0
DWIDTH 16 0
BBX 15 23 1 0
BITMAP
0380
0380
0780
07C0
07C0
07C0
0EE0
0EE0
0EE0
1EF0
1EF0
1C70
1C70
3C78
3C78
3838
783C
783C
701C
F01E
FFFE
FFFE
FFFE
ENDCHAR
STARTCHAR product
ENCODING 8719
SWIDTH 532 0
DWIDTH 17 0
BBX 14 29 2 -6
BITMAP
FFFC
FFFC
FFFC
F03C
F03C
F03C
F03C
F03C
F03C
F03C
F03C
F03C
F03C
F03C
F03C
F03C
F03C
F03C
F03C
F03C
F03C
F03C
F03C
F03C
F03C
F03C
F03C
F03C
F03C
ENDCHAR
STARTCHAR summation
ENCODING 8721
SWIDTH 444 0
DWIDTH 14 0
BBX 13 29 1 -6
BITMAP
FFF8
FFF8
FFF8
F000
7800
7800
7C00
3C00
3E00
1E00
1E00
0F00
0F00
0F80
0780
0780
0F00
0F00
1E00
1E00
3C00
3C00
7800
7800
7800
F000
FFF8
FFF8
FFF8
ENDCHAR
STARTCHAR minus
ENCODING 8722
SWIDTH 444 0
DWIDTH 14 0
BBX 12 3 1 9
BITMAP
FFF0
FFF0
FFF0
ENDCHAR
STARTCHAR uni2215
ENCODING 8725
SWIDTH 444 0
DWIDTH 14 0
BBX 14 23 0 0
BITMAP
0010
003C
0038
0070
0070
00E0
00E0
01C0
01C0
0380
0780
0700
0F00
0E00
1E00
1C00
3C00
3800
7800
7000
F000
E000
6000
ENDCHAR
STARTCHAR radical
ENCODING 8730
SWIDTH 444 0
DWIDTH 14 0
BBX 15 23 0 0
BITMAP
001E
001C
003C
003C
0038
0038
0078
F878
F870
FC70
1CF0
1CF0
1EE0
0EE0
0EE0
0EC0
0EC0
07C0
07C0
0780
0380
0380
0380
ENDCHAR
STARTCHAR infinity
ENCODING 8734
SWIDTH 714 0
DWIDTH 23 0
BBX 21 13 1 5
BITMAP
1F03C0
3F8FF0
7FDFF0
F9FCF8
F0F878
F0F878
F07078
F0F878
F0F878
F9FCF8
7F9FF0
3F8FE0
1E07C0
ENDCHAR
STARTCHAR integral
ENCODING 8747
SWIDTH 307 0
DWIDTH 10 0
BBX 13 29 -2 -6
BITMAP
01F8
03F8
07F8
0780
0780
0780
0780
0780
0780
0780
0780
0780
0780
0780
0780
0780
0780
0780
0780
0780
0780
0780
0780
0780
0780
0F80
7F80
FF00
FE00
ENDCHAR
STARTCHAR approxequal
ENCODING 8776
SWIDTH 444 0
DWIDTH 14 0
BBX 13 12 1 6
BITMAP
3C00
7F10
FFF0
FFF8
63F8
40F0
3C00
7F10
FFF0
FFF8
63F8
40E0
ENDCHAR
STARTCHAR notequal
ENCODING 8800
SWIDTH 444 0
DWIDTH 14 0
BBX 12 17 1 2
BITMAP
00E0
01C0
01C0
03C0
FFF0
FFF0
FFF0
0700
0F00
0E00
FFF0
FFF0
FFF0
3C00
3800
3800
7000
ENDCHAR
STARTCHAR lessequal
ENCODING 8804
SWIDTH 444 0
DWIDTH 14 0
BBX 12 22 1 0
BITMAP
0040
00E0
03F0
07E0
0F80
3F00
7E00
F800
F800
FC00
3F00
1F80
07E0
23F0
70E0
FC40
7F00
1F80
0FE0
03F0
00E0
0040
ENDCHAR
STARTCHAR greaterequal
ENCODING 8805
SWIDTH 444 0
DWIDTH 14 0
BBX 12 22 1 0
BITMAP
6000
7000
FC00
7E00
1F80
0FC0
03F0
01F0
01F0
07E0
0FC0
1F00
7E00
FC40
70E0
23F0
0FE0
1F80
7F00
FC00
7000
2000
ENDCHAR
STARTCHAR lozenge
ENCODING 9674
SWIDTH 444 0
DWIDTH 14 0
BBX 13 23 1 0
BITMAP
0700
0700
0F80
0F80
1FC0
1DC0
3DE0
39E0
78F0
70F0
7070
F078
F078
7870
78F0
38E0
3DE0
1DC0
1DC0
0F80
0F80
0700
0700
ENDCHAR
STARTCHAR uni2C67
ENCODING 11367
SWIDTH 575 0
DWIDTH 19 0
BBX 16 27 2 -4
BITMAP
F03C
F03C
F03C
F03C
F03C
F03C
F03C
F03C
F03C
F03C
FFFC
FFFC
FFFC
F03C
F03C
F03C
F03C
F03C
F03C
F03C
F03F
F03F
F03F
0007
0007
0007
0007
ENDCHAR
STARTCHAR uni2C68
ENCODING 11368
SWIDTH 486 0
DWIDTH 15 0
BBX 14 27 1 -4
BITMAP
F000
F000
F000
F000
F000
F000
F000
F3C0
FFE0
FFF0
F9F0
F0F0
F0F0
F0F0
F0F0
F0F0
F0F0
F0F0
F0F0
F0F0
F0FC
F0FC
F0FC
001C
001C
001C
001C
ENDCHAR
STARTCHAR uniF401
ENCODING 62465
SWIDTH 2 0
DWIDTH 0 0
BBX 7 4 -13 24
BITMAP
3E
3C
78
F0
ENDCHAR
STARTCHAR uniF406
ENCODING 62470
SWIDTH 443 0
DWIDTH 14 0
BBX 10 5 2 24
BITMAP
4080
E1C0
7F80
7F80
1E00
ENDCHAR
STARTCHAR uniF407
ENCODING 62471
SWIDTH 305 0
DWIDTH 10 0
BBX 6 6 2 -6
BITMAP
70
78
FC
3C
FC
F0
ENDCHAR
STARTCHAR uniF408
ENCODING 62472
SWIDTH 420 0
DWIDTH 13 0
BBX 10 4 2 24
BITMAP
1E00
3F00
FFC0
E1C0
ENDCHAR
STARTCHAR uniF409
ENCODING 62473
SWIDTH 253 0
DWIDTH 8 0
BBX 4 7 2 -8
BITMAP
60
F0
F0
F0
70
E0
40
ENDCHAR
STARTCHAR uniF40A
ENCODING 62474
SWIDTH 188 0
DWIDTH 6 0
BBX 4 8 1 15
BITMAP
60
F0
F0
F0
70
60
E0
40
ENDCHAR
STARTCHAR uniF40B
ENCODING 62475
SWIDTH 276 0
DWIDTH 9 0
BBX 5 4 2 24
BITMAP
70
F8
F8
70
ENDCHAR
STARTCHAR uniF40C
ENCODING 62476
SWIDTH 343 0
DWIDTH 11 0
BBX 7 6 2 23
BITMAP
7C
FE
C6
C6
FE
7C
ENDCHAR
STARTCHAR uniF40D
ENCODING 62477
SWIDTH 450 0
DWIDTH 14 0
BBX 11 4 2 24
BITMAP
3C40
7FE0
FFE0
87C0
ENDCHAR
STARTCHAR uniF40E
ENCODING 62478
SWIDTH 321 0
DWIDTH 10 0
BBX 6 6 2 -6
BITMAP
78
F0
F0
FC
FC
78
ENDCHAR
STARTCHAR uniF486
ENCODING 62598
SWIDTH 490 0
DWIDTH 16 0
BBX 13 28 2 0
BITMAP
07C0
0F80
0F00
1C00
0000
FF80
FFE0
FFE0
F1F0
F0F0
F0F0
F0F0
F0F0
F1F0
F1E0
FFC0
FFC0
FFF0
F0F0
F078
F078
F078
F078
F078
F0F0
FFF0
FFE0
FF80
ENDCHAR
STARTCHAR uniF487
ENCODING 62599
SWIDTH 443 0
DWIDTH 14 0
BBX 12 23 1 0
BITMAP
F1E0
F1E0
F1C0
F380
F300
F000
F000
F780
FFE0
FFE0
F9F0
F0F0
F0F0
F0F0
F0F0
F0F0
F0F0
F0F0
F0F0
F1E0
FFE0
FFC0
7F00
ENDCHAR
STARTCHAR uniF488
ENCODING 62600
SWIDTH 419 0
DWIDTH 14 0
BBX 11 28 2 0
BITMAP
07C0
0F80
0F00
1C00
0000
FFE0
FFE0
FFE0
F000
F000
F000
F000
F000
F000
F000
FFC0
FFC0
FFC0
F000
F000
F000
F000
F000
F000
F000
F000
F000
F000
ENDCHAR
STARTCHAR uniF489
ENCODING 62601
SWIDTH 267 0
DWIDTH 9 0
BBX 11 28 0 0
BITMAP
03E0
03E0
0780
0700
0800
0FC0
1FC0
1F80
3E00
3C00
3C00
3C00
FF80
FF80
FF80
3C00
3C00
3C00
3C00
3C00
3C00
3C00
3C00
3C00
3C00
3C00
3C00
3C00
ENDCHAR
STARTCHAR uniF49E
ENCODING 62622
SWIDTH 507 0
DWIDTH 17 0
BBX 15 23 0 0
BITMAP
3C00
3C00
3C00
FFF0
FFF0
FFF0
3C00
3C00
3CF8
3FFC
3FFC
3E3E
3C1E
3C1E
3C1E
3C1E
3C1E
3C1E
3C1E
3C1E
3C1E
3C1E
3C1E
ENDCHAR
STARTCHAR uniF49F
ENCODING 62623
SWIDTH 456 0
DWIDTH 15 0
BBX 14 23 0 0
BITMAP
3C00
3C00
FFC0
FFC0
FFC0
3C00
3C00
3CF0
3FF8
3FFC
3E7C
3C3C
3C3C
3C3C
3C3C
3C3C
3C3C
3C3C
3C3C
3C3C
3C3C
3C3C
3C3C
ENDCHAR
STARTCHAR uniF4C6
ENCODING 62662
SWIDTH 504 0
DWIDTH 17 0
BBX 14 29 1 -6
BITMAP
F03C
F03C
F03C
F03C
F03C
F03C
F03C
F03C
F03C
F03C
F03C
F87C
7FFC
7FFC
1F3C
003C
003C
003C
003C
003C
003C
003C
003C
003C
003C
007C
00FC
00F8
00F0
ENDCHAR
STARTCHAR uniF4C7
ENCODING 62663
SWIDTH 419 0
DWIDTH 13 0
BBX 11 22 1 -6
BITMAP
F1E0
F1E0
F1E0
F1E0
F1E0
F1E0
F1E0
F1E0
FFE0
7FE0
3DE0
01E0
01E0
01E0
01E0
01E0
01E0
01E0
03E0
07E0
07C0
0780
ENDCHAR
STARTCHAR uniF4CC
ENCODING 62668
SWIDTH 475 0
DWIDTH 15 0
BBX 15 28 0 0
BITMAP
00F0
01F0
03C0
0380
0400
F01E
F81E
781E
781C
7C3C
3C3C
3C38
1E78
1E78
1E70
0F70
0F70
07E0
07E0
03E0
03E0
03C0
03C0
03C0
0380
1F80
3F00
3E00
ENDCHAR
STARTCHAR uniF4CD
ENCODING 62669
SWIDTH 400 0
DWIDTH 13 0
BBX 13 29 0 -6
BITMAP
03C0
03C0
0380
0300
0700
0000
0000
F878
F878
7870
78F0
7CF0
3CF0
3CE0
3CE0
1DE0
1FC0
1FC0
0FC0
0FC0
0F80
0780
0780
0700
0700
0F00
1E00
3E00
3C00
ENDCHAR
STARTCHAR uniF4D6
ENCODING 62678
SWIDTH 477 0
DWIDTH 16 0
BBX 14 28 1 0
BITMAP
0E00
1F00
1F00
0E00
0000
3F00
FFE0
FFF0
41F0
00F8
0078
0078
003C
003C
003C
1FFC
1FFC
1FFC
003C
003C
003C
0078
0078
00F8
41F0
7FE0
FFC0
7F00
ENDCHAR
STARTCHAR uniF4D7
ENCODING 62679
SWIDTH 377 0
DWIDTH 12 0
BBX 10 23 1 0
BITMAP
3C00
3E00
3E00
3C00
0000
0000
0000
7E00
FF00
FF80
4780
03C0
03C0
03C0
3FC0
3FC0
3FC0
03C0
03C0
4780
FF80
FF00
7E00
ENDCHAR
STARTCHAR uni0498.alt
ENCODING 62730
SWIDTH 435 0
DWIDTH 14 0
BBX 13 28 0 -5
BITMAP
1F80
7FE0
3FE0
21F0
00F0
00F0
00F0
00F0
01E0
1FC0
1FC0
1FF0
01F0
00F8
0078
0078
0078
0078
00F8
41F0
7FF0
FFE0
7F80
0E00
0E00
0E00
0E00
0E00
ENDCHAR
STARTCHAR uni0499.alt
ENCODING 62731
SWIDTH 354 0
DWIDTH 12 0
BBX 10 21 1 -5
BITMAP
7E00
FF00
FF80
4780
0780
0780
3F00
3F00
3F80
07C0
03C0
03C0
47C0
FF80
FF80
7E00
1C00
1C00
1C00
1C00
1C00
ENDCHAR
STARTCHAR uni04AA.alt02
ENCODING 62732
SWIDTH 457 0
DWIDTH 15 0
BBX 13 29 1 -6
BITMAP
07F0
0FF8
1FF8
3E10
7C00
7800
7800
F000
F000
F000
F000
F000
F000
F000
F000
F000
F800
7800
7C00
3E10
3FF8
1FF8
07F0
0380
03C0
07E0
01E0
07E0
0780
ENDCHAR
STARTCHAR uni04AB.alt02
ENCODING 62733
SWIDTH 350 0
DWIDTH 11 0
BBX 9 22 1 -6
BITMAP
1F00
3F80
7F80
7900
F000
F000
F000
F000
F000
F000
F000
F800
7900
7F80
3F80
1F00
1800
1E00
3F00
0F00
3F00
3C00
ENDCHAR
STARTCHAR uniF50E
ENCODING 62734
SWIDTH 501 0
DWIDTH 16 0
BBX 16 28 0 0
BITMAP
0FF8
0FF8
0FF8
0000
0000
03C0
03C0
03C0
07E0
07E0
07E0
07E0
0FF0
0E70
0E70
1E78
1E78
1C38
1C38
3FFC
3FFC
3FFC
381C
781E
701E
700E
F00F
F00F
ENDCHAR
STARTCHAR uniF50F
ENCODING 62735
SWIDTH 413 0
DWIDTH 13 0
BBX 11 21 1 0
BITMAP
7FC0
7FC0
7FC0
0000
0000
1F80
7FC0
7FE0
21E0
01E0
01E0
01E0
1FE0
7FE0
FFE0
F9E0
F1E0
F1E0
FFE0
7EE0
3CE0
ENDCHAR
STARTCHAR uniF510
ENCODING 62736
SWIDTH 430 0
DWIDTH 14 0
BBX 11 28 2 0
BITMAP
7FC0
7FC0
7FC0
0000
0000
FFE0
FFE0
FFE0
F000
F000
F000
F000
F000
F000
F000
FFC0
FFC0
FFC0
F000
F000
F000
F000
F000
F000
F000
FFE0
FFE0
FFE0
ENDCHAR
STARTCHAR uniF511
ENCODING 62737
SWIDTH 428 0
DWIDTH 13 0
BBX 11 21 1 0
BITMAP
7FC0
7FC0
7FC0
0000
0000
1F00
3FC0
7FC0
79E0
F1E0
F1E0
FFE0
FFE0
FFE0
F000
F000
F000
7840
7FE0
3FE0
1F80
ENDCHAR
STARTCHAR uniF512
ENCODING 62738
SWIDTH 430 0
DWIDTH 14 0
BBX 11 32 2 0
BITMAP
FFC0
FFC0
FFC0
0000
6180
F3C0
F3C0
E380
0000
FFE0
FFE0
FFE0
F000
F000
F000
F000
F000
F000
F000
FFC0
FFC0
FFC0
F000
F000
F000
F000
F000
F000
F000
FFE0
FFE0
FFE0
ENDCHAR
STARTCHAR uniF513
ENCODING 62739
SWIDTH 428 0
DWIDTH 13 0
BBX 11 27 1 0
BITMAP
7FC0
7FC0
7FC0
0000
0000
30C0
79E0
79E0
30C0
0000
0000
1F00
3FC0
7FC0
79E0
F1E0
F1E0
FFE0
FFE0
FFE0
F000
F000
F000
7840
7FE0
3FE0
1F80
ENDCHAR
STARTCHAR uniF514
ENCODING 62740
SWIDTH 430 0
DWIDTH 14 0
BBX 11 33 2 0
BITMAP
F1C0
FFC0
7F80
3F00
0000
6180
F3C0
F3C0
E380
0000
FFE0
FFE0
FFE0
F000
F000
F000
F000
F000
F000
F000
FFC0
FFC0
FFC0
F000
F000
F000
F000
F000
F000
F000
FFE0
FFE0
FFE0
ENDCHAR
STARTCHAR uniF515
ENCODING 62741
SWIDTH 428 0
DWIDTH 13 0
BBX 12 27 1 0
BITMAP
78F0
7FF0
3FE0
1FC0
0000
30C0
79E0
79E0
30C0
0000
0000
1F00
3FC0
7FC0
79E0
F1E0
F1E0
FFE0
FFE0
FFE0
F000
F000
F000
7840
7FE0
3FE0
1F80
ENDCHAR
STARTCHAR uniF516
ENCODING 62742
SWIDTH 435 0
DWIDTH 14 0
BBX 13 28 0 0
BITMAP
38F0
3DE0
1FC0
0780
0000
1F80
7FE0
3FE0
21F0
00F0
00F0
00F0
00F0
01E0
1FC0
1FC0
1FF0
01F0
00F8
0078
0078
0078
0078
00F8
41F0
7FF0
FFE0
7F80
ENDCHAR
STARTCHAR uniF517
ENCODING 62743
SWIDTH 354 0
DWIDTH 12 0
BBX 10 24 1 0
BITMAP
F380
7300
3700
3E00
1E00
1C00
0000
0000
7E00
FF00
FF80
4780
0780
0780
3F00
3F00
3F80
07C0
03C0
03C0
47C0
FF80
FF80
7E00
ENDCHAR
STARTCHAR uniF518
ENCODING 62744
SWIDTH 553 0
DWIDTH 18 0
BBX 16 28 1 0
BITMAP
1FF0
1FF0
1FF0
0000
0000
07E0
1FF8
3FFC
3C3C
781E
781E
F81E
F00F
F00F
F00F
F00F
F00F
F00F
F00F
F00F
F00F
F81E
781E
781E
3C3C
3FFC
1FF8
07E0
ENDCHAR
STARTCHAR uniF519
ENCODING 62745
SWIDTH 445 0
DWIDTH 14 0
BBX 12 21 1 0
BITMAP
3FE0
3FE0
3FE0
0000
0000
1F80
3FC0
7FE0
79E0
F0F0
F0F0
F0F0
F0F0
F0F0
F0F0
F0F0
F0F0
79E0
7FE0
3FC0
1F80
ENDCHAR
STARTCHAR uniF51A
ENCODING 62746
SWIDTH 553 0
DWIDTH 18 0
BBX 16 28 1 0
BITMAP
1E3C
1FF8
1FF8
07E0
0000
07E0
1FF8
3FFC
3C3C
781E
781E
F81E
F00F
F00F
F00F
F00F
F00F
F00F
F00F
F00F
F00F
F81E
781E
781E
3C3C
3FFC
1FF8
07E0
ENDCHAR
STARTCHAR uniF51B
ENCODING 62747
SWIDTH 445 0
DWIDTH 14 0
BBX 12 23 1 0
BITMAP
7180
73C0
7F80
3F00
1E00
0000
0000
1F80
3FC0
7FE0
79E0
F0F0
F0F0
F0F0
F0F0
F0F0
F0F0
F0F0
F0F0
79E0
7FE0
3FC0
1F80
ENDCHAR
STARTCHAR uniF51C
ENCODING 62748
SWIDTH 552 0
DWIDTH 18 0
BBX 16 28 1 0
BITMAP
1E3C
1FF8
1FF8
07E0
0000
07E0
1FF8
3FFC
3C3C
781E
781E
F81E
F00F
F00F
F00F
FFFF
FFFF
FFFF
F00F
F00F
F00F
F80E
781E
781E
3C3C
3FFC
1FF8
07E0
ENDCHAR
STARTCHAR uniF51D
ENCODING 62749
SWIDTH 445 0
DWIDTH 14 0
BBX 12 23 1 0
BITMAP
7180
73C0
7F80
3F00
1E00
0000
0000
1F80
3FC0
7FE0
79E0
F0F0
F0F0
FFF0
FFF0
FFF0
F0F0
F0F0
F0F0
79E0
7FE0
3FC0
0F80
ENDCHAR
STARTCHAR uniF51E
ENCODING 62750
SWIDTH 552 0
DWIDTH 18 0
BBX 16 33 1 0
BITMAP
1E3C
1FFC
0FF8
07F0
0000
0C30
1E78
1E78
0C70
0000
07E0
1FF8
3FFC
3C3C
781E
781E
F81E
F00F
F00F
F00F
FFFF
FFFF
FFFF
F00F
F00F
F00F
F80E
781E
781E
3C3C
3FFC
1FF8
07E0
ENDCHAR
STARTCHAR uniF51F
ENCODING 62751
SWIDTH 445 0
DWIDTH 14 0
BBX 12 27 1 0
BITMAP
78F0
7FF0
3FE0
1FC0
0000
30C0
79E0
79E0
30C0
0000
0000
1F80
3FC0
7FE0
79E0
F0F0
F0F0
FFF0
FFF0
FFF0
F0F0
F0F0
F0F0
79E0
7FE0
3FC0
0F80
ENDCHAR
STARTCHAR uniF520
ENCODING 62752
SWIDTH 668 0
DWIDTH 22 0
BBX 18 28 2 0
BITMAP
0FF800
0FF800
0FF800
000000
000000
F003C0
F003C0
F003C0
F003C0
F003C0
F003C0
F003C0
F003C0
FF83C0
FFC3C0
FFE3C0
F1E3C0
F0F3C0
F0F3C0
F0F3C0
F0F3C0
F0F3C0
F0F3C0
F0F3C0
F1E3C0
FFE3C0
FFC3C0
FF03C0
ENDCHAR
STARTCHAR uniF521
ENCODING 62753
SWIDTH 591 0
DWIDTH 18 0
BBX 16 21 1 0
BITMAP
1FF0
1FF0
1FF0
0000
0000
F00F
F00F
F00F
F00F
F00F
FF8F
FFCF
FFEF
F3EF
F1EF
F1EF
F1EF
F3EF
FFCF
FFCF
FF0F
ENDCHAR
STARTCHAR uniF522
ENCODING 62754
SWIDTH 477 0
DWIDTH 16 0
BBX 14 28 1 0
BITMAP
7FC0
7FC0
7FC0
0000
0000
3F00
FFE0
FFF0
41F0
00F8
0078
0078
003C
003C
003C
1FFC
1FFC
1FFC
003C
003C
003C
0078
0078
00F8
41F0
7FE0
FFC0
7F00
ENDCHAR
STARTCHAR uniF523
ENCODING 62755
SWIDTH 377 0
DWIDTH 12 0
BBX 10 21 1 0
BITMAP
FF80
FF80
FF80
0000
0000
7E00
FF00
FF80
4780
03C0
03C0
03C0
3FC0
3FC0
3FC0
03C0
03C0
4780
FF80
FF00
7E00
ENDCHAR
STARTCHAR uniF524
ENCODING 62756
SWIDTH 477 0
DWIDTH 16 0
BBX 14 28 1 0
BITMAP
70E0
FFE0
7FC0
3F80
0000
3F00
FFE0
FFF0
41F0
00F8
0078
0078
003C
003C
003C
1FFC
1FFC
1FFC
003C
003C
003C
0078
0078
00F8
41F0
7FE0
FFC0
7F00
ENDCHAR
STARTCHAR uniF525
ENCODING 62757
SWIDTH 377 0
DWIDTH 12 0
BBX 10 23 1 0
BITMAP
6300
E780
FF00
7F00
3C00
0000
0000
7E00
FF00
FF80
4780
03C0
03C0
03C0
3FC0
3FC0
3FC0
03C0
03C0
4780
FF80
FF00
7E00
ENDCHAR
STARTCHAR uniF526
ENCODING 62758
SWIDTH 475 0
DWIDTH 15 0
BBX 13 28 1 0
BITMAP
0C30
1E78
1E78
0C70
0000
07F0
0FF8
3FF8
3E10
7C00
7800
7800
F000
F000
F000
FFE0
FFE0
FFE0
F000
F000
F000
7800
7800
7C00
3E10
3FF8
1FF8
07F0
ENDCHAR
STARTCHAR uniF527
ENCODING 62759
SWIDTH 371 0
DWIDTH 12 0
BBX 11 22 1 0
BITMAP
30C0
79E0
79E0
30C0
0000
0000
0F80
3FC0
7FC0
7880
F800
F000
F000
FF00
FF00
FF00
F000
F000
7880
7FC0
3FC0
1F80
ENDCHAR
STARTCHAR uniF528
ENCODING 62760
SWIDTH 486 0
DWIDTH 16 0
BBX 13 28 1 0
BITMAP
1FF0
1FF0
1FF0
0000
0000
07F8
1FF8
3FF8
3C78
7878
7878
7878
7878
7878
7878
7C78
3FF8
1FF8
0FF8
0F78
1E78
1E78
3E78
3C78
7C78
7878
7878
F078
ENDCHAR
STARTCHAR uniF529
ENCODING 62761
SWIDTH 421 0
DWIDTH 13 0
BBX 12 21 0 0
BITMAP
3FE0
3FE0
3FE0
0000
0000
0FF0
3FF0
3FF0
7CF0
78F0
78F0
78F0
7CF0
3FF0
1FF0
1EF0
3CF0
3CF0
78F0
78F0
F8F0
ENDCHAR
STARTCHAR uniF52A
ENCODING 62762
SWIDTH 486 0
DWIDTH 16 0
BBX 13 28 1 0
BITMAP
1C38
3FF8
1FF8
07E0
0000
07F8
1FF8
3FF8
3C78
7878
7878
7878
7878
7878
7878
7C78
3FF8
1FF8
0FF8
0F78
1E78
1E78
3E78
3C78
7C78
7878
7878
F078
ENDCHAR
STARTCHAR uniF52B
ENCODING 62763
SWIDTH 421 0
DWIDTH 13 0
BBX 12 23 0 0
BITMAP
1C60
1CF0
1FE0
0FC0
0780
0000
0000
0FF0
3FF0
3FF0
7CF0
78F0
78F0
78F0
7CF0
3FF0
1FF0
1EF0
3CF0
3CF0
78F0
78F0
F8F0
ENDCHAR
STARTCHAR uniF52C
ENCODING 62764
SWIDTH 743 0
DWIDTH 24 0
BBX 21 28 2 0
BITMAP
03FE00
03FE00
03FE00
000000
000000
F01F00
F07FC0
F0FFE0
F1F1E0
F1E0F0
F1E0F0
F3C078
F3C078
F3C078
FFC078
FFC078
FFC078
F3C078
F3C078
F3C078
F3C078
F1C078
F1E0F0
F1E0F0
F0F1E0
F0FFE0
F07FC0
F01F00
ENDCHAR
STARTCHAR uniF52D
ENCODING 62765
SWIDTH 611 0
DWIDTH 20 0
BBX 18 21 1 0
BITMAP
0FF800
0FF800
0FF800
000000
000000
F07E00
F0FF00
F1FF80
F1E780
F3C3C0
F3C3C0
FFC3C0
FFC3C0
FFC3C0
F3C3C0
F3C3C0
F3C3C0
F1E780
F1FF80
F0FF00
F07E00
ENDCHAR
STARTCHAR uniF52E
ENCODING 62766
SWIDTH 743 0
DWIDTH 24 0
BBX 21 28 2 0
BITMAP
0E1E00
0FFC00
0FFC00
03F000
000000
F01F00
F07FC0
F0FFE0
F1F1E0
F1E0F0
F1E0F0
F3C078
F3C078
F3C078
FFC078
FFC078
FFC078
F3C078
F3C078
F3C078
F3C078
F1C078
F1E0F0
F1E0F0
F0F1E0
F0FFE0
F07FC0
F01F00
ENDCHAR
STARTCHAR uniF52F
ENCODING 62767
SWIDTH 611 0
DWIDTH 20 0
BBX 18 23 1 0
BITMAP
063000
0F3800
07F800
07F000
03E000
000000
000000
F07E00
F0FF00
F1FF80
F1E780
F3C3C0
F3C3C0
FFC3C0
FFC3C0
FFC3C0
F3C3C0
F3C3C0
F3C3C0
F1E780
F1FF80
F0FF00
F07E00
ENDCHAR
STARTCHAR uniF530
ENCODING 62768
SWIDTH 558 0
DWIDTH 18 0
BBX 17 27 0 -4
BITMAP
0FFE00
0FFE00
0FFE00
0F1E00
0F1E00
0F1E00
0F1E00
0F1E00
0E1E00
0E1E00
0E1E00
0E1E00
0E1E00
1E1E00
1E1E00
1E1E00
1E1E00
1E1E00
1C1E00
3C1E00
FC1F80
F81F80
F01F80
000380
000380
000380
000380
ENDCHAR
STARTCHAR uniF531
ENCODING 62769
SWIDTH 472 0
DWIDTH 15 0
BBX 15 20 0 -4
BITMAP
1FF8
1FF8
1FF8
1C78
1C78
1C78
1C78
1C78
1C78
1C78
3C78
3C78
3878
F87E
F87E
F07E
000E
000E
000E
000E
ENDCHAR
STARTCHAR uniF532
ENCODING 62770
SWIDTH 547 0
DWIDTH 18 0
BBX 14 34 2 -6
BITMAP
3C70
3FF0
1FE0
0FC0
0000
F01C
F03C
F03C
F07C
F07C
F0FC
F0FC
F1FC
F1FC
F3BC
F3BC
F7BC
F73C
F73C
FE3C
FE3C
FC3C
FC3C
F83C
F83C
F03C
F03C
E03C
003C
003C
007C
00FC
00F8
00F0
ENDCHAR
STARTCHAR uniF533
ENCODING 62771
SWIDTH 450 0
DWIDTH 14 0
BBX 12 29 1 -6
BITMAP
3180
79C0
7FC0
3F80
1F00
0000
0000
F070
F070
F0F0
F1F0
F1F0
F3F0
F3F0
F7F0
F6F0
FEF0
FCF0
F8F0
F8F0
F0F0
E0F0
E0F0
00F0
00F0
01F0
03F0
03E0
03C0
ENDCHAR
STARTCHAR uniF534
ENCODING 62772
SWIDTH 553 0
DWIDTH 18 0
BBX 16 28 1 0
BITMAP
03C0
03C0
07C0
03C0
0000
07E0
1FF8
3FFC
3C3C
781E
781E
F81E
F00F
F00F
F00F
F00F
F00F
F00F
F00F
F00F
F00F
F81E
781E
781E
3C3C
3FFC
1FF8
07E0
ENDCHAR
STARTCHAR uniF535
ENCODING 62773
SWIDTH 445 0
DWIDTH 14 0
BBX 12 23 1 0
BITMAP
0700
0F80
0F80
0F00
0000
0000
0000
1F80
3FC0
7FE0
79E0
F0F0
F0F0
F0F0
F0F0
F0F0
F0F0
F0F0
F0F0
79E0
7FE0
3FC0
1F80
ENDCHAR
STARTCHAR uniF536
ENCODING 62774
SWIDTH 668 0
DWIDTH 22 0
BBX 18 28 2 0
BITMAP
1C3C00
1FF800
1FF800
07E000
000000
F003C0
F003C0
F003C0
F003C0
F003C0
F003C0
F003C0
F003C0
FF83C0
FFC3C0
FFE3C0
F1E3C0
F0F3C0
F0F3C0
F0F3C0
F0F3C0
F0F3C0
F0F3C0
F0F3C0
F1E3C0
FFE3C0
FFC3C0
FF03C0
ENDCHAR
STARTCHAR uniF537
ENCODING 62775
SWIDTH 591 0
DWIDTH 18 0
BBX 16 23 1 0
BITMAP
0C60
1EF0
1FE0
0FE0
0780
0000
0000
F00F
F00F
F00F
F00F
F00F
FF8F
FFCF
FFEF
F3EF
F1EF
F1EF
F1EF
F3EF
FFCF
FFCF
FF0F
ENDCHAR
STARTCHAR uniF538
ENCODING 62776
SWIDTH 442 0
DWIDTH 14 0
BBX 12 28 1 0
BITMAP
1860
3CF0
3CF0
18E0
0000
0FE0
3FF0
3FF0
7C20
7800
7800
7800
7800
3C00
3F80
1F80
7F80
7C00
F800
F000
F000
F000
F000
F800
7820
7FF0
3FF0
0FC0
ENDCHAR
STARTCHAR uniF539
ENCODING 62777
SWIDTH 355 0
DWIDTH 11 0
BBX 10 22 1 0
BITMAP
6180
F3C0
F3C0
6180
0000
0000
3F00
7F80
FF80
F100
F000
F000
7E00
3E00
7E00
F000
F000
F000
F900
FF80
7F80
3F00
ENDCHAR
STARTCHAR afii10055.alt
ENCODING 62778
SWIDTH 238 0
DWIDTH 8 0
BBX 5 28 2 0
BITMAP
78
F8
F8
78
00
F0
F0
F0
F0
F0
F0
F0
F0
F0
F0
F0
F0
F0
F0
F0
F0
F0
F0
F0
F0
F0
F0
F0
ENDCHAR
STARTCHAR afii10103.alt
ENCODING 62779
SWIDTH 225 0
DWIDTH 8 0
BBX 4 16 2 0
BITMAP
F0
F0
F0
F0
F0
F0
F0
F0
F0
F0
F0
F0
F0
F0
F0
F0
ENDCHAR
STARTCHAR uni0492.alt
ENCODING 62780
SWIDTH 419 0
DWIDTH 14 0
BBX 11 23 2 0
BITMAP
FFE0
FFE0
FFE0
F000
F000
F000
F000
F000
F000
F000
FFC0
FFC0
FFC0
F000
F000
F000
F000
F000
F000
F000
F000
F000
F000
ENDCHAR
STARTCHAR uni0493.alt
ENCODING 62781
SWIDTH 334 0
DWIDTH 11 0
BBX 9 16 1 0
BITMAP
FF80
FF80
FF80
F000
F000
F000
F000
FF80
FF80
FF80
F000
F000
F000
F000
F000
F000
ENDCHAR
STARTCHAR uni04AA.alt
ENCODING 62782
SWIDTH 457 0
DWIDTH 15 0
BBX 13 28 1 -5
BITMAP
07F0
0FF8
1FF8
3E10
7C00
7800
7800
F000
F000
F000
F000
F000
F000
F000
F000
F000
F800
7800
7C00
7E10
3FF8
1FF8
0FF0
0380
0380
0380
0380
0380
ENDCHAR
STARTCHAR uni04AB.alt
ENCODING 62783
SWIDTH 350 0
DWIDTH 11 0
BBX 9 21 1 -5
BITMAP
1F00
3F80
7F80
7900
F000
F000
F000
F000
F000
F000
F000
F800
7900
7F80
3F80
1F00
0E00
0E00
0E00
0E00
0E00
ENDCHAR
STARTCHAR uniF540
ENCODING 62784
SWIDTH 535 0
DWIDTH 17 0
BBX 14 28 2 0
BITMAP
01E0
03E0
0780
0700
0800
FF80
FFE0
FFF0
F0F0
F078
F078
F03C
F03C
F03C
F03C
F03C
F03C
F03C
F03C
F03C
F03C
F078
F078
F0F8
F1F0
FFE0
FFC0
FF00
ENDCHAR
STARTCHAR uniF541
ENCODING 62785
SWIDTH 445 0
DWIDTH 15 0
BBX 17 23 1 0
BITMAP
00F780
00FF00
00FE00
00FE00
00FC00
00F000
00F000
1FF000
3FF000
7FF000
78F000
F0F000
F0F000
F0F000
F0F000
F0F000
F0F000
F0F000
F0F000
79F000
7FF000
3F7000
1E7000
ENDCHAR
STARTCHAR uniF542
ENCODING 62786
SWIDTH 533 0
DWIDTH 18 0
BBX 14 28 2 0
BITMAP
01F0
03E0
03C0
0700
0000
F03C
F03C
F03C
F03C
F03C
F03C
F03C
F03C
F03C
F03C
FFFC
FFFC
FFFC
F03C
F03C
F03C
F03C
F03C
F03C
F03C
F03C
F03C
F03C
ENDCHAR
STARTCHAR uniF543
ENCODING 62787
SWIDTH 449 0
DWIDTH 14 0
BBX 12 23 1 0
BITMAP
F1E0
F1E0
F1C0
F180
F380
F000
F000
F3C0
FFE0
FFF0
F9F0
F0F0
F0F0
F0F0
F0F0
F0F0
F0F0
F0F0
F0F0
F0F0
F0F0
F0F0
F0F0
ENDCHAR
STARTCHAR uniF544
ENCODING 62788
SWIDTH 424 0
DWIDTH 13 0
BBX 11 23 2 0
BITMAP
F3C0
F3C0
F380
F700
F600
F000
F000
F000
F000
F000
F000
F000
F000
F000
F000
F000
F000
F000
F000
F000
FFE0
FFE0
FFE0
ENDCHAR
STARTCHAR uniF545
ENCODING 62789
SWIDTH 243 0
DWIDTH 7 0
BBX 9 23 1 0
BITMAP
F780
F780
F700
FE00
FE00
F000
F000
F000
F000
F000
F000
F000
F000
F000
F000
F000
F000
F000
F000
FC00
FC00
FC00
7C00
ENDCHAR
STARTCHAR uniF546
ENCODING 62790
SWIDTH 474 0
DWIDTH 16 0
BBX 14 28 1 0
BITMAP
01F0
03E0
03C0
0700
0000
FFFC
FFFC
FFFC
0780
0780
0780
0780
0780
0780
0780
0780
0780
0780
0780
0780
0780
0780
0780
0780
0780
0780
0780
0780
ENDCHAR
STARTCHAR uniF547
ENCODING 62791
SWIDTH 291 0
DWIDTH 9 0
BBX 12 23 0 0
BITMAP
00F0
00F0
00E0
0DC0
3D80
3C00
3C00
FF80
FF80
FF80
3C00
3C00
3C00
3C00
3C00
3C00
3C00
3C00
3C00
3C00
3F80
1F80
1F80
ENDCHAR
STARTCHAR uniF548
ENCODING 62792
SWIDTH 503 0
DWIDTH 16 0
BBX 16 28 0 0
BITMAP
0078
00F8
01E0
01C0
0200
F00F
F00F
F80F
780E
781E
781E
3C1C
3C1C
3C3C
3C3C
1E38
1E38
1E78
0F70
0F70
0F70
0770
07E0
07E0
07E0
03C0
03C0
03C0
ENDCHAR
STARTCHAR uniF549
ENCODING 62793
SWIDTH 399 0
DWIDTH 13 0
BBX 13 23 0 0
BITMAP
03C0
03C0
0380
0700
0600
0000
0000
F078
F078
7870
78F0
78F0
3CE0
3CE0
3DE0
1DC0
1FC0
1FC0
0F80
0F80
0F80
0700
0700
ENDCHAR
STARTCHAR uniF54A
ENCODING 62794
SWIDTH 435 0
DWIDTH 14 0
BBX 13 23 0 0
BITMAP
1F80
7FE0
3FE0
21F0
00F0
00F0
00F0
00F0
01E0
1FC0
1FC0
1FF0
01F0
00F8
0078
0078
0078
0078
00F8
41F0
7FF0
FFE0
7F80
ENDCHAR
STARTCHAR uniF54B
ENCODING 62795
SWIDTH 364 0
DWIDTH 12 0
BBX 10 22 1 -6
BITMAP
7E00
FF00
FF80
8F80
0780
0780
0780
0700
0F00
3E00
3F00
3F80
07C0
03C0
03C0
03C0
03C0
03C0
4780
7F80
FF00
7E00
ENDCHAR
STARTCHAR uniF54C
ENCODING 62796
SWIDTH 435 0
DWIDTH 14 0
BBX 13 28 0 0
BITMAP
71E0
7BC0
3F80
0F00
0000
1F80
7FE0
3FE0
21F0
00F0
00F0
00F0
00F0
01E0
1FC0
1FC0
1FF0
01F0
00F8
0078
0078
0078
0078
00F8
41F0
7FF0
FFE0
7F80
ENDCHAR
STARTCHAR uniF54D
ENCODING 62797
SWIDTH 364 0
DWIDTH 12 0
BBX 11 30 0 -6
BITMAP
E380
F700
7600
7E00
3C00
3C00
0000
0000
3F00
7F80
7FC0
47C0
03C0
03C0
03C0
0380
0780
1F00
1F80
1FC0
03E0
01E0
01E0
01E0
01E0
01E0
23C0
3FC0
7F80
3F00
ENDCHAR
STARTCHAR uniF62C
ENCODING 63020
SWIDTH 190 0
DWIDTH 6 0
BBX 4 8 1 12
BITMAP
20
70
60
E0
E0
F0
F0
60
ENDCHAR
STARTCHAR uniF62D
ENCODING 63021
SWIDTH 188 0
DWIDTH 6 0
BBX 4 8 1 9
BITMAP
60
F0
F0
F0
70
60
E0
40
ENDCHAR
STARTCHAR uniF62E
ENCODING 63022
SWIDTH 342 0
DWIDTH 11 0
BBX 9 8 1 12
BITMAP
2100
7380
6700
E700
E700
F780
F780
6300
ENDCHAR
STARTCHAR uniF62F
ENCODING 63023
SWIDTH 342 0
DWIDTH 11 0
BBX 9 8 1 9
BITMAP
6700
F780
F780
F780
7380
6300
E700
4200
ENDCHAR
STARTCHAR uniF634
ENCODING 63028
SWIDTH 217 0
DWIDTH 7 0
BBX 3 7 2 10
BITMAP
E0
E0
E0
E0
C0
C0
C0
ENDCHAR
STARTCHAR uniF635
ENCODING 63029
SWIDTH 351 0
DWIDTH 11 0
BBX 7 7 2 10
BITMAP
EE
EE
EE
EE
CE
CE
CC
ENDCHAR
STARTCHAR one.numerator
ENCODING 63074
SWIDTH 353 0
DWIDTH 11 0
BBX 7 14 1 9
BITMAP
0E
1E
3E
FE
EE
4E
0E
0E
0E
0E
0E
0E
0E
0E
ENDCHAR
STARTCHAR uniF6C3
ENCODING 63171
SWIDTH 253 0
DWIDTH 8 0
BBX 4 7 2 -8
BITMAP
60
F0
F0
F0
70
E0
40
ENDCHAR
STARTCHAR uniF6C9
ENCODING 63177
SWIDTH 345 0
DWIDTH 11 0
BBX 7 4 2 24
BITMAP
3E
3C
78
F0
ENDCHAR
STARTCHAR uniF6CA
ENCODING 63178
SWIDTH 420 0
DWIDTH 13 0
BBX 10 4 2 24
BITMAP
E1C0
FFC0
3F00
1E00
ENDCHAR
STARTCHAR uniF6CB
ENCODING 63179
SWIDTH 437 0
DWIDTH 14 0
BBX 10 4 2 24
BITMAP
6180
F3C0
F3C0
E380
ENDCHAR
STARTCHAR uniF6CE
ENCODING 63182
SWIDTH 344 0
DWIDTH 11 0
BBX 7 4 2 24
BITMAP
F8
78
3C
1E
ENDCHAR
STARTCHAR uniF6CF
ENCODING 63183
SWIDTH 465 0
DWIDTH 15 0
BBX 11 3 2 24
BITMAP
7BE0
7780
EF00
ENDCHAR
STARTCHAR uniF6D0
ENCODING 63184
SWIDTH 409 0
DWIDTH 13 0
BBX 9 3 2 25
BITMAP
FF80
FF80
FF80
ENDCHAR
STARTCHAR uniF6D1
ENCODING 63185
SWIDTH 448 0
DWIDTH 14 0
BBX 11 4 2 24
BITMAP
F1E0
FFE0
7FC0
3F80
ENDCHAR
STARTCHAR uniF6D4
ENCODING 63188
SWIDTH 411 0
DWIDTH 13 0
BBX 9 5 2 18
BITMAP
6300
F380
FF80
7F00
3E00
ENDCHAR
STARTCHAR fi
ENCODING 64257
SWIDTH 460 0
DWIDTH 14 0
BBX 13 23 0 0
BITMAP
07E0
1FF8
1FF8
3E10
3C00
3C00
3C00
FFF8
FFF8
FFF8
3C78
3C78
3C78
3C78
3C78
3C78
3C78
3C78
3C78
3C78
3C78
3C78
3C78
ENDCHAR
STARTCHAR fl
ENCODING 64258
SWIDTH 492 0
DWIDTH 15 0
BBX 15 23 0 0
BITMAP
07F8
1FF8
1FF8
3C78
3C78
3C78
3C78
FF78
FF78
FF78
3C78
3C78
3C78
3C78
3C78
3C78
3C78
3C78
3C78
3C78
3C7E
3C7E
3C3E
ENDCHAR
STARTCHAR .notdef
ENCODING -1
SWIDTH 750 0
DWIDTH 24 0
BBX 20 23 2 0
BITMAP
FFFFF0
FFFFF0
EFFF70
C7FE30
E3FC70
F1F8F0
F8F1F0
FC63F0
FE47F0
FF0FF0
FF1FF0
FF0FF0
FE47F0
FC63F0
F8F1F0
F1F8F0
E3FC70
C7FE30
EFFF70
FFFFF0
FFFFF0
DD5BD0
FFFFF0
ENDCHAR
STARTCHAR .null
ENCODING -1
SWIDTH 0 0
DWIDTH 0 0
BBX 1 1 0 0
BITMAP
00
ENDCHAR
STARTCHAR nonmarkingreturn
ENCODING -1
SWIDTH 205 0
DWIDTH 7 0
BBX 1 1 0 0
BITMAP
00
ENDCHAR
STARTCHAR l.var
ENCODING -1
SWIDTH 217 0
DWIDTH 8 0
BBX 4 23 2 0
BITMAP
F0
F0
F0
F0
F0
F0
F0
F0
F0
F0
F0
F0
F0
F0
F0
F0
F0
F0
F0
F0
F0
F0
F0
ENDCHAR
STARTCHAR fraction.alt
ENCODING -1
SWIDTH 151 0
DWIDTH 5 0
BBX 17 23 -6 0
BITMAP
000100
000380
000780
000700
000E00
001C00
003C00
003800
007000
00F000
00E000
01C000
038000
078000
070000
0E0000
1E0000
1C0000
380000
780000
F00000
E00000
400000
ENDCHAR
STARTCHAR caron.l
ENCODING -1
SWIDTH 155 0
DWIDTH 5 0
BBX 4 6 5 17
BITMAP
70
70
60
60
E0
40
ENDCHAR
ENDFONT
